<svg xmlns="http://www.w3.org/2000/svg" viewBox="0 0 4421.21 689.64"><defs><style>.cls-1,.cls-2{fill:#f01446;}.cls-1{fill-rule:evenodd;}.cls-3{fill:#000010;}</style></defs><title>DISH_LATINO_RED+BLACK_LOGO_HorizontalWordmark_012819-RGB</title><g id="Layer_2" data-name="Layer 2"><g id="Layer_1-2" data-name="Layer 1"><path class="cls-1" d="M1033.78,335.94c0-20.81,29.23-35.92,74-35.92,51.12,0,99.17,18.13,129.05,43.64a11.66,11.66,0,0,0,17.68-3.09L1291.05,268a11.18,11.18,0,0,0-3-14.5c-45.09-33.88-105.75-58.2-181.19-58.2-123.74,0-192.92,69.18-192.92,148.1,0,184.26,279.63,120.49,279.63,201.52,0,22.17-25.33,40.95-78.92,40.95-53.24,0-116.18-21-152.75-50a11.68,11.68,0,0,0-17.17,3.06L903.3,608.21a11.14,11.14,0,0,0,2.29,14.38c49.91,41.95,125.24,66.71,203.21,66.71,130.56,0,203.64-64.31,203.64-151C1312.44,352.6,1033.78,410,1033.78,335.94Z"/><path class="cls-1" d="M470,21.78H361.13a7.92,7.92,0,0,0-7.92,7.92V259.47c-36.47-39.83-85.4-64.11-140.46-64.11C95.25,195.36,0,305.93,0,442.33s95.25,247,212.75,247c55.06,0,104-24.28,140.46-64.11v44.5a7.91,7.91,0,0,0,7.92,7.92H470a7.92,7.92,0,0,0,7.92-7.92V29.7A7.93,7.93,0,0,0,470,21.78ZM238.89,585.59c-63.15,0-114.34-64.16-114.34-143.31S175.74,299,238.89,299c62.87,0,113.86,63.6,114.32,142.25v2.1C352.75,522,301.76,585.59,238.89,585.59Z"/><path class="cls-1" d="M1633.84,195.32c-57.5,0-101.75,24.17-130.79,63.6V29.7a7.92,7.92,0,0,0-7.92-7.92H1386.27a7.93,7.93,0,0,0-7.93,7.92v640a7.92,7.92,0,0,0,7.93,7.92h108.86a7.91,7.91,0,0,0,7.92-7.92V396c.09-61.95,44.34-96.48,97.79-96.48s95.52,32.89,95.52,113.63l.11,256.54a7.91,7.91,0,0,0,7.92,7.92h108.86a7.92,7.92,0,0,0,7.93-7.92V405.54C1821.18,260.34,1737.84,195.32,1633.84,195.32Z"/><path class="cls-2" d="M619.35,73.7C619.35,33,653.29,0,693.05,0a73.7,73.7,0,1,1,0,147.4C653.29,147.4,619.35,114.43,619.35,73.7ZM834.14,557.84c-49.81,28.94-103.25,36.57-140,36.63s-90.22-7.69-140-36.63c-8.16-4.57-12.51,3.41-10.82,10.37,16.92,69.49,77.78,121,150.4,121.43h.9C767.18,689.22,828,637.7,845,568.21,846.65,561.25,842.3,553.27,834.14,557.84ZM804.67,382.39c-39.33,22.85-81.52,28.87-110.56,28.92s-71.23-6.07-110.56-28.92c-6.45-3.61-9.88,2.69-8.54,8.18,13.35,54.87,61.4,95.55,118.75,95.88h.7c57.35-.33,105.4-41,118.75-95.88C814.55,385.08,811.12,378.78,804.67,382.39ZM773.28,232.85c-28.16,16.36-58.37,20.67-79.17,20.71s-51-4.35-79.17-20.71c-4.62-2.59-7.08,1.93-6.12,5.86,9.56,39.29,44,68.42,85,68.66h.5c41.07-.24,75.48-29.37,85-68.66C780.36,234.78,777.9,230.26,773.28,232.85Z"/><path class="cls-3" d="M2088.64,680.17v-477h102.27V590.77h201.67v89.4Zm709.45,0-30-80.82H2563.51l-30,80.82H2418.33l183.8-477h127.3l183.8,477ZM2665.78,304.7,2591.4,510h148.76ZM2986.6,680.17V292.54H2847.14V203.15h380.47v89.39H3088.87V680.17Zm299.29,0v-477h101.55v477Zm488.81,0-227.43-311.1v311.1H3445.72v-477h104.41l221,299.66V203.15h101.56v477Zm148-238.15c0-143.75,105.13-246.74,249.6-246.74,143.75,0,248.88,103,248.88,246.74s-105.13,246.73-248.88,246.73C4027.86,688.75,3922.73,585.77,3922.73,442Zm394.06,0c0-89.4-56.5-156.63-144.46-156.63-88.69,0-145.18,67.23-145.18,156.63,0,88.68,56.49,156.62,145.18,156.62C4260.29,598.64,4316.79,530.7,4316.79,442Z"/><path class="cls-3" d="M4375.75,668.93a18.75,18.75,0,1,1,18.75,18.74A18.7,18.7,0,0,1,4375.75,668.93Zm2.92,0a15.78,15.78,0,1,0,31.56,0,15.78,15.78,0,0,0-31.56,0Zm15.3,2.29h-3.54v8.49h-3.18V658.23H4396c4,0,7.16,2.56,7.16,6.54a6.29,6.29,0,0,1-5.48,6.37l5.75,8.57h-3.89Zm-3.54-10.34v7.6H4396a3.67,3.67,0,0,0,3.89-3.71,3.71,3.71,0,0,0-3.89-3.89Z"/></g></g></svg>