<?xml version="1.0" encoding="UTF-8"?>
<svg viewBox="0 0 1832.18 1203.02" xmlns="http://www.w3.org/2000/svg">
<defs>
<style>.cls-1,.cls-2{fill:#f01446;}.cls-1{fill-rule:evenodd;}</style>
</defs>
<title>DISH_LATINO_RED_LOGO_Vertical_012819-RGB</title>
<g data-name="Layer 2">
<g data-name="Layer 1">
<path class="cls-1" d="m1033.8 335.94c0-20.81 29.23-35.92 74-35.92 51.12 0 99.17 18.13 129.05 43.64a11.66 11.66 0 0 0 17.68 -3.09l36.54-72.57a11.18 11.18 0 0 0 -3 -14.5c-45.09-33.88-105.75-58.2-181.19-58.2-123.74 0-192.92 69.18-192.92 148.1 0 184.26 279.63 120.49 279.63 201.52 0 22.17-25.33 40.95-78.92 40.95-53.24 0-116.18-21-152.75-50a11.68 11.68 0 0 0 -17.17 3.06l-41.43 69.28a11.14 11.14 0 0 0 2.29 14.38c49.91 41.95 125.24 66.71 203.21 66.71 130.56 0 203.64-64.31 203.64-151 0-185.7-278.66-128.3-278.66-202.36z"/>
<path class="cls-1" d="M470,21.78H361.13a7.92,7.92,0,0,0-7.92,7.92V259.47c-36.47-39.83-85.4-64.11-140.46-64.11C95.25,195.36,0,305.93,0,442.33s95.25,247,212.75,247c55.06,0,104-24.28,140.46-64.11v44.5a7.91,7.91,0,0,0,7.92,7.92H470a7.92,7.92,0,0,0,7.92-7.92V29.7A7.93,7.93,0,0,0,470,21.78ZM238.89,585.59c-63.15,0-114.34-64.16-114.34-143.31S175.74,299,238.89,299c62.87,0,113.86,63.6,114.32,142.25v2.1C352.75,522,301.76,585.59,238.89,585.59Z"/>
<path class="cls-1" d="M1633.84,195.32c-57.5,0-101.75,24.17-130.79,63.6V29.7a7.92,7.92,0,0,0-7.92-7.92H1386.27a7.93,7.93,0,0,0-7.93,7.92v640a7.92,7.92,0,0,0,7.93,7.92h108.86a7.91,7.91,0,0,0,7.92-7.92V396c.09-61.95,44.34-96.48,97.79-96.48s95.52,32.89,95.52,113.63l.11,256.54a7.91,7.91,0,0,0,7.92,7.92h108.86a7.92,7.92,0,0,0,7.93-7.92V405.54C1821.18,260.34,1737.84,195.32,1633.84,195.32Z"/>
<path class="cls-2" d="m619.35 73.7c0-40.7 33.94-73.7 73.7-73.7a73.7 73.7 0 1 1 0 147.4c-39.76 0-73.7-32.97-73.7-73.7zm214.79 484.14c-49.81 28.94-103.25 36.57-140 36.63s-90.22-7.69-140-36.63c-8.16-4.57-12.51 3.41-10.82 10.37 16.92 69.49 77.78 121 150.4 121.43h0.9c72.56-0.42 133.38-51.94 150.38-121.43 1.65-6.96-2.7-14.94-10.86-10.37zm-29.47-175.45c-39.33 22.85-81.52 28.87-110.56 28.92s-71.23-6.07-110.56-28.92c-6.45-3.61-9.88 2.69-8.54 8.18 13.35 54.87 61.4 95.55 118.75 95.88h0.7c57.35-0.33 105.4-41 118.75-95.88 1.34-5.49-2.09-11.79-8.54-8.18zm-31.39-149.54c-28.16 16.36-58.37 20.67-79.17 20.71s-51-4.35-79.17-20.71c-4.62-2.59-7.08 1.93-6.12 5.86 9.56 39.29 44 68.42 85 68.66h0.5c41.07-0.24 75.48-29.37 85-68.66 1.04-3.93-1.42-8.45-6.04-5.86z"/>
<path class="cls-2" d="m17.18 1196.2v-371.18h79.58v301.62h156.93v69.56zm552 0-23.37-62.89h-159.12l-23.38 62.89h-89.59l143-371.18h99l143 371.18zm-103-292.16l-57.79 159.71h115.75zm249.63 292.16v-301.62h-108.43v-69.56h296v69.56h-108v301.62zm232.88 0v-371.18h79v371.18zm380.35 0-177-242.07v242.07h-79v-371.18h81.25l171.95 233.17v-233.17h79v371.18zm115.19-185.31c0-111.86 81.8-192 194.21-192 111.86 0 193.66 80.13 193.66 192s-81.8 192-193.66 192c-112.33-0.01-194.13-80.15-194.13-192zm306.62 0c0-69.56-44-121.87-112.41-121.87-69 0-113 52.31-113 121.87 0 69 44 121.87 113 121.87 68.56 0 112.49-52.87 112.49-121.87z"/>
<path class="cls-2" d="m1797.2 1188.5a14.55 14.55 0 1 1 14.55 14.53 14.51 14.51 0 0 1 -14.55 -14.53zm2.27 0a12.25 12.25 0 1 0 24.49 0 12.25 12.25 0 0 0 -24.49 0zm11.87 1.78h-2.75v6.59h-2.47v-16.67h6.8c3.08 0 5.55 2 5.55 5.08a4.88 4.88 0 0 1 -4.25 4.94l4.46 6.65h-3zm-2.75-8v5.9h4.36a3 3 0 1 0 0 -5.9z"/>
</g>
</g>
</svg>
