<?xml version="1.0" encoding="UTF-8"?>
<svg version="1.1" viewBox="0 0 53 54" xmlns="http://www.w3.org/2000/svg">
<title>Google Assistant Icon Copy</title>
<desc>Created with Sketch.</desc>
<g fill="none" fill-rule="evenodd">
<g transform="translate(-491 -125)">
<g transform="translate(491 125)">
<path d="m53 27c0 1.0739-0.060227 2.1355-0.18309 3.1786-1.4069 12.227-10.832 21.956-22.773 23.58-1.1588 0.15955-2.3416 0.24177-3.5438 0.24177-14.635 0-26.5-12.089-26.5-27s11.865-27 26.5-27 26.5 12.089 26.5 27" fill="#FAFAFA"/>
<path d="m26.5 0.30682c14.583 0 26.416 12.006 26.496 26.847 0-0.051546 0.0036136-0.10186 0.0036136-0.15341 0-14.911-11.865-27-26.5-27s-26.5 12.089-26.5 27c0 0.051546 0.0024091 0.10186 0.0024091 0.15341 0.081909-14.84 11.914-26.847 26.498-26.847" fill="#fff"/>
<path d="m37.943 23.318c0.99736 0 1.8068-0.8235 1.8068-1.8409s-0.80945-1.8409-1.8068-1.8409c-0.99736 0-1.8068 0.8235-1.8068 1.8409s0.80945 1.8409 1.8068 1.8409" fill="#34A853"/>
<path d="m32.523 29.455c1.9959 0 3.6136-1.6482 3.6136-3.6818s-1.6177-3.6818-3.6136-3.6818-3.6136 1.6482-3.6136 3.6818 1.6177 3.6818 3.6136 3.6818" fill="#EA4335"/>
<path d="m32.523 39.273c2.3284 0 4.2159-1.9231 4.2159-4.2955s-1.8875-4.2955-4.2159-4.2955c-2.3284 0-4.2159 1.9231-4.2159 4.2955s1.8875 4.2955 4.2159 4.2955" fill="#FBBC05"/>
<path d="m20.477 29.455c3.9907 0 7.2273-3.2977 7.2273-7.3636 0-4.066-3.2366-7.3636-7.2273-7.3636s-7.2273 3.2977-7.2273 7.3636c0 4.066 3.2366 7.3636 7.2273 7.3636" fill="#4285F4"/>
</g>
</g>
</g>
</svg>
