<svg xmlns="http://www.w3.org/2000/svg" viewBox="0 0 191.2 191.2"><defs><style>.cls-1{fill:#fff;}</style></defs><title>snowflake-medium-3</title><g id="Layer_2" data-name="Layer 2"><g id="Graphic"><path class="cls-1" d="M172.4,100.56h13.84a5,5,0,0,0,0-9.92H172.4l17.16-17.16a5,5,0,1,0-7-7L158.37,90.64H140.79L158,73.48a2.09,2.09,0,0,0,.14-.17c.12-.13.23-.27.34-.41s.18-.25.26-.39.15-.28.22-.43a3.43,3.43,0,0,0,.19-.44c.05-.15.1-.3.14-.46s.07-.31.09-.47a3.56,3.56,0,0,0,0-.47,4.51,4.51,0,0,0,0-.52,1.76,1.76,0,0,0,0-.23c0-.07,0-.14,0-.22a4.64,4.64,0,0,0-.11-.51c0-.15-.08-.3-.13-.44a4.62,4.62,0,0,0-.19-.47c-.07-.14-.14-.28-.22-.41s-.18-.27-.28-.41l-.3-.37c-.06-.07-.1-.13-.16-.19a1.63,1.63,0,0,0-.2-.17,3.51,3.51,0,0,0-.36-.29,4,4,0,0,0-.43-.29,3.48,3.48,0,0,0-.38-.2,4.25,4.25,0,0,0-.49-.21,3.31,3.31,0,0,0-.42-.12l-.5-.11-.45,0a4.69,4.69,0,0,0-.53,0,1.76,1.76,0,0,0-.23,0l-19.54,1.9,10.81-9.85,34.15,1.58h.24a5,5,0,0,0,.22-9.92L155.6,47.64l10.34-9.42a5,5,0,0,0-6.68-7.33l-10.34,9.42,1.13-24.25a5,5,0,0,0-9.91-.46l-1.59,34.15-13.17,12,.8-24.69a.22.22,0,0,1,0-.08c0-.19,0-.38,0-.58s0-.27,0-.4-.09-.32-.14-.49a3.52,3.52,0,0,0-.13-.43,3.86,3.86,0,0,0-.2-.41c-.08-.15-.15-.31-.24-.45s-.16-.21-.24-.32-.24-.31-.37-.45l0-.06c-.08-.08-.18-.14-.26-.21a3.83,3.83,0,0,0-.44-.36,3.18,3.18,0,0,0-.4-.23,3,3,0,0,0-.44-.23,3.75,3.75,0,0,0-.47-.17c-.15,0-.29-.1-.45-.13a5,5,0,0,0-.54-.07l-.35,0h-.08a3.77,3.77,0,0,0-.58,0l-.38,0a5.6,5.6,0,0,0-.7.2,1.17,1.17,0,0,0-.2.06,4.73,4.73,0,0,0-.78.39l-.07,0a5.34,5.34,0,0,0-.61.48l-.16.12a.81.81,0,0,1-.1.09L100.56,50.55V33L124.73,8.8a5,5,0,0,0-7-7L100.56,18.94V5a5,5,0,0,0-9.92,0v14L73.48,1.78a5,5,0,1,0-7,7L90.64,33V50.55L73.51,33.42a4.91,4.91,0,0,0-2.45-1.35l-.15,0c-.16,0-.32,0-.49-.05a4.41,4.41,0,0,0-.52,0h-.07a2.23,2.23,0,0,0-.36,0,5,5,0,0,0-.54.07c-.16,0-.3.09-.46.13l-.46.16c-.15.07-.3.16-.45.24a4,4,0,0,0-.39.23,3.83,3.83,0,0,0-.44.36,2.65,2.65,0,0,0-.26.21l0,0c-.14.15-.25.31-.38.47l-.23.3a4.23,4.23,0,0,0-.25.47c-.06.13-.14.25-.19.39s-.09.29-.14.44-.1.32-.13.48,0,.27,0,.41A5.46,5.46,0,0,0,65,37V37l.72,24.65-13.2-12L51,15.51a5,5,0,0,0-9.91.46l1.12,24.24L31.94,30.89a5,5,0,0,0-6.68,7.33l10.23,9.32L11.25,48.67a5,5,0,0,0,.23,9.91h.23L45.86,57l10.86,9.89L37.37,65a1.61,1.61,0,0,0-.22,0,4.86,4.86,0,0,0-.54,0l-.43,0-.53.11-.39.12a4.77,4.77,0,0,0-.52.22,3.9,3.9,0,0,0-.35.19,3.52,3.52,0,0,0-.45.3c-.12.09-.24.18-.35.28s-.14.1-.2.17-.1.13-.16.19-.2.24-.3.37a3.83,3.83,0,0,0-.28.42c-.08.13-.15.27-.22.41a3.85,3.85,0,0,0-.19.47c-.05.14-.09.28-.13.43a4.35,4.35,0,0,0-.1.52,2.25,2.25,0,0,0,0,.22c0,.08,0,.15,0,.23a4.51,4.51,0,0,0,0,.52,3.42,3.42,0,0,0,0,.46,4.1,4.1,0,0,0,.1.48c0,.15.08.31.13.46s.12.29.19.44a4.5,4.5,0,0,0,.23.43c.08.13.17.26.26.38a4.23,4.23,0,0,0,.33.41s.09.12.14.17L50.55,90.64H33L8.8,66.47a5,5,0,1,0-7,7L18.94,90.64H5a5,5,0,1,0,0,9.92h14L1.78,117.72a5,5,0,0,0,7,7L33,100.56H50.55L33.39,117.72s-.09.11-.14.17a3.29,3.29,0,0,0-.33.41c-.09.12-.18.25-.26.38a3.55,3.55,0,0,0-.23.43,4.07,4.07,0,0,0-.18.44,3.5,3.5,0,0,0-.14.46,3.94,3.94,0,0,0-.1.47,3.73,3.73,0,0,0,0,.47,4.51,4.51,0,0,0,0,.52c0,.08,0,.15,0,.22s0,.16,0,.24.05.31.08.46.09.32.14.47.11.28.17.41a4,4,0,0,0,.24.46c.07.12.14.24.22.35a5.19,5.19,0,0,0,.37.45c.06.06.1.14.16.2l.09.07a5.71,5.71,0,0,0,.47.39c.1.07.18.15.28.21a5.93,5.93,0,0,0,.56.29l.27.14a4.78,4.78,0,0,0,.84.25H36a4.91,4.91,0,0,0,.94.09,3.85,3.85,0,0,0,.48,0l19.35-1.84-10.86,9.89-34.15-1.58a5,5,0,0,0-.46,9.91l24.24,1.12L25.26,153a5,5,0,0,0,6.68,7.34L42.17,151l-1.12,24.25a5,5,0,0,0,4.72,5.18H46a5,5,0,0,0,5-4.72l1.58-34.15,13.2-12L65,154.3v.07a5.46,5.46,0,0,0,0,.57c0,.14,0,.28,0,.41s.09.32.13.48.08.3.14.44a3,3,0,0,0,.2.4,3.38,3.38,0,0,0,.24.46,3.65,3.65,0,0,0,.24.31,5.32,5.32,0,0,0,.37.46l0,0c.08.08.17.14.26.22a3.75,3.75,0,0,0,.44.35c.13.09.27.16.4.24L68,159a4.34,4.34,0,0,0,.47.16,3.81,3.81,0,0,0,.45.13,5.21,5.21,0,0,0,.55.08c.12,0,.23,0,.35,0h.24a3.54,3.54,0,0,0,1.39-.24,2.52,2.52,0,0,0,.39-.12,5.26,5.26,0,0,0,.85-.44l.09-.08a4.32,4.32,0,0,0,.66-.54l0,0,17.16-17.16v17.58L66.47,182.54a5,5,0,0,0,0,7,5,5,0,0,0,7,0L90.64,172.4v13.84a5,5,0,0,0,9.92,0V172.4l17.16,17.16a5,5,0,0,0,7,0,5,5,0,0,0,0-7l-24.17-24.17V140.79L117.72,158l0,0a5.1,5.1,0,0,0,.62.51l.13.1a5.26,5.26,0,0,0,.85.44c.12.05.24.08.37.12a5.52,5.52,0,0,0,.54.16,5,5,0,0,0,.86.08h.26c.12,0,.23,0,.34,0a4.85,4.85,0,0,0,.55-.08,3.33,3.33,0,0,0,.45-.13l.47-.16a3.09,3.09,0,0,0,.44-.24,3.18,3.18,0,0,0,.4-.23,3.83,3.83,0,0,0,.44-.36c.08-.07.18-.13.26-.21l0-.06a5.54,5.54,0,0,0,.37-.45,2.67,2.67,0,0,0,.24-.32c.09-.14.16-.29.24-.44a3.86,3.86,0,0,0,.2-.41,3.52,3.52,0,0,0,.13-.43,4.67,4.67,0,0,0,.14-.5c0-.13,0-.26,0-.39s0-.39,0-.59a.22.22,0,0,1,0-.08l-.8-24.83,13.17,12,1.59,34.15a5,5,0,0,0,5,4.73h.23a5,5,0,0,0,4.73-5.19l-1.13-24.24,10.34,9.42a5,5,0,0,0,6.68-7.33l-10.34-9.42,24.24-1.13a5,5,0,1,0-.46-9.91l-34.15,1.59-10.82-9.86,19.55,1.9a4.1,4.1,0,0,0,.49,0,4.91,4.91,0,0,0,.94-.09h.06a4.68,4.68,0,0,0,.83-.25l.27-.14a5.93,5.93,0,0,0,.56-.29,2.92,2.92,0,0,0,.28-.21,5.71,5.71,0,0,0,.47-.39l.09-.07a1.56,1.56,0,0,0,.16-.2,4,4,0,0,0,.37-.45c.08-.11.15-.23.22-.34s.17-.31.25-.47.11-.27.16-.4.1-.31.14-.47l.09-.46c0-.08,0-.16,0-.24a1.62,1.62,0,0,0,0-.22,4.69,4.69,0,0,0,0-.53,3.59,3.59,0,0,0,0-.46,4.1,4.1,0,0,0-.1-.48,3.33,3.33,0,0,0-.13-.45,4.32,4.32,0,0,0-.19-.45c-.07-.14-.14-.29-.22-.43s-.17-.25-.26-.38-.22-.28-.34-.41a2.09,2.09,0,0,0-.14-.17l-17.16-17.16h17.58l24.17,24.17a5,5,0,1,0,7-7ZM50.16,76.22,68.93,78,82.79,90.64H64.58Zm18.77,37L50.16,115l14.42-14.42H82.8Zm21.71,13.57L75.3,142.11l.64-21.89,14.7-13.39Zm0-42.39L75.94,71,75.3,49.24,90.64,64.58Zm9.92-19.79,15.3-15.31-.7,21.8-14.6,13.3Zm0,62.18V106.83l14.6,13.31.7,21.93ZM141.16,115l-19-1.84L108.4,100.56h18.36Zm-14.4-24.31H108.41L122.17,78.1l19-1.85Z"/></g></g></svg>