<?xml version="1.0" encoding="UTF-8"?>
<svg version="1.1" viewBox="0 0 802 77" xmlns="http://www.w3.org/2000/svg" xmlns:xlink="http://www.w3.org/1999/xlink">
<title>Group 36</title>
<desc>Created with Sketch.</desc>
<defs>
<polygon id="c" points="0.11554 0.636 33.602 0.636 33.602 77 0.11554 77"/>
<polygon id="b" points="0 77.364 801.55 77.364 801.55 1.0003 0 1.0003"/>
</defs>
<g fill="none" fill-rule="evenodd">
<g transform="translate(0 -1)">
<path d="m114.47 38.198c0-2.304 3.237-3.977 8.2-3.977 5.661 0 10.98 2.008 14.289 4.832 0.615 0.525 1.555 0.359 1.958-0.342l4.04-8.033c0.312-0.543 0.168-1.23-0.332-1.605-4.992-3.752-11.71-6.445-20.063-6.445-13.701 0-21.362 7.66-21.362 16.399 0 20.403 30.964 13.342 30.964 22.315 0 2.454-2.805 4.534-8.739 4.534-5.895 0-12.864-2.326-16.914-5.543-0.604-0.481-1.495-0.318-1.901 0.34l-4.588 7.674c-0.321 0.521-0.215 1.2 0.253 1.592 5.528 4.645 13.868 7.387 22.503 7.387 14.457 0 22.547-7.12 22.547-16.723 0-20.56-30.855-14.21-30.855-22.405" fill="#F01446"/>
<path d="m26.452 65.842c-6.992 0-12.661-7.104-12.661-15.867 0-8.764 5.669-15.868 12.661-15.868 6.961 0 12.608 7.041 12.658 15.751v0.233c-0.05 8.709-5.697 15.751-12.658 15.751m25.59-62.43h-12.054c-0.485 0-0.878 0.393-0.878 0.877v25.442c-4.037-4.41-9.456-7.098-15.552-7.098-13.011 0-23.558 12.243-23.558 27.347 0 15.103 10.547 27.346 23.558 27.346 6.096 0 11.515-2.688 15.552-7.098v4.927c0 0.485 0.393 0.877 0.878 0.877h12.054c0.485 0 0.878-0.392 0.878-0.877v-70.866c0-0.484-0.393-0.877-0.878-0.877" fill="#F01446"/>
<path d="m180.92 22.628c-6.367 0-11.267 2.676-14.482 7.042v-25.381c0-0.484-0.393-0.877-0.877-0.877h-12.055c-0.484 0-0.878 0.393-0.878 0.877v70.865c0 0.486 0.394 0.878 0.878 0.878h12.055c0.484 0 0.877-0.392 0.877-0.878v-30.304c9e-3 -6.861 4.909-10.684 10.827-10.684 5.924 0 10.577 3.642 10.577 12.582l0.013 28.406c0 0.486 0.393 0.878 0.877 0.878h12.055c0.484 0 0.877-0.392 0.877-0.878v-29.249c0-16.077-9.228-23.277-20.744-23.277" fill="#F01446"/>
<g transform="translate(60 .3643)">
<mask id="d" fill="white">
<use xlink:href="#c"/>
</mask>
<path d="m25.626 26.419c-3.118 1.812-6.464 2.29-8.767 2.293-2.303-3e-3 -5.649-0.481-8.767-2.293-0.511-0.286-0.783 0.213-0.677 0.649 1.059 4.351 4.869 7.577 9.416 7.603h0.056c4.547-0.026 8.358-3.252 9.417-7.603 0.106-0.436-0.166-0.935-0.678-0.649m3.476 16.559c-4.355 2.53-9.027 3.197-12.243 3.202-3.216-5e-3 -7.887-0.672-12.242-3.202-0.714-0.4-1.094 0.297-0.946 0.906 1.479 6.075 6.8 10.58 13.149 10.616h0.078c6.35-0.036 11.671-4.541 13.149-10.616 0.148-0.609-0.232-1.306-0.945-0.906m3.262 19.427c-5.514 3.205-11.431 4.05-15.505 4.057-4.073-7e-3 -9.99-0.852-15.505-4.057-0.904-0.506-1.385 0.378-1.198 1.149 1.873 7.694 8.612 13.399 16.654 13.446h0.099c8.042-0.047 14.781-5.752 16.654-13.446 0.187-0.771-0.294-1.655-1.199-1.149m-23.783-53.608c0-4.51 3.758-8.161 8.161-8.161 4.509 0 8.16 3.651 8.16 8.161 0 4.509-3.651 8.161-8.16 8.161-4.403 0-8.161-3.652-8.161-8.161" fill="#F01446" mask="url(#d)"/>
</g>
<path d="m210.81 75.953l-0.113-1.812c-0.012-0.238-0.012-0.533-0.023-0.861h-0.034c-0.079 0.272-0.17 0.634-0.261 0.917l-0.554 1.71h-0.635l-0.554-1.755c-0.057-0.238-0.147-0.6-0.215-0.872h-0.034c0 0.283-0.012 0.577-0.023 0.861l-0.113 1.812h-0.589l0.227-3.08h0.917l0.532 1.506c0.068 0.237 0.124 0.464 0.203 0.781h0.012c0.079-0.283 0.147-0.544 0.215-0.77l0.532-1.517h0.884l0.237 3.08h-0.611zm-3.329-3.08v0.509h-0.985v2.571h-0.612v-2.571h-0.985v-0.509h2.582z" fill="#F01446"/>
<path d="m587.23 45.141h13.794l-6.78-18.72h-0.233l-6.781 18.72zm-11.765 16.228l15.649-41.497h6.027l15.649 41.497h-5.913l-3.999-11.244h-17.444l-4.058 11.244h-5.911z" fill="#757575"/>
<path d="m627.28 62.296c-3.169 0-5.787-0.773-7.854-2.318s-3.584-3.478-4.549-5.796l4.753-1.971c1.506 3.556 4.076 5.332 7.708 5.332 1.661 0 3.022-0.366 4.086-1.101 1.062-0.734 1.593-1.7 1.593-2.898 0-1.854-1.295-3.109-3.883-3.767l-5.737-1.391c-1.817-0.464-3.536-1.342-5.159-2.637-1.622-1.294-2.434-3.042-2.434-5.245 0-2.511 1.111-4.549 3.333-6.114 2.221-1.565 4.858-2.347 7.911-2.347 2.511 0 4.753 0.57 6.722 1.709 1.971 1.14 3.381 2.773 4.232 4.898l-4.637 1.912c-1.043-2.511-3.207-3.767-6.491-3.767-1.584 0-2.918 0.329-3.999 0.985-1.082 0.658-1.622 1.546-1.622 2.666 0 1.623 1.255 2.724 3.766 3.303l5.622 1.334c2.665 0.618 4.637 1.681 5.911 3.188 1.276 1.506 1.914 3.207 1.914 5.099 0 2.55-1.044 4.676-3.13 6.375-2.086 1.7-4.773 2.551-8.056 2.551" fill="#757575"/>
<path d="m653.07 62.296c-3.168 0-5.786-0.773-7.853-2.318s-3.585-3.478-4.549-5.796l4.753-1.971c1.506 3.556 4.075 5.332 7.708 5.332 1.661 0 3.022-0.366 4.086-1.101 1.061-0.734 1.593-1.7 1.593-2.898 0-1.854-1.295-3.109-3.883-3.767l-5.738-1.391c-1.816-0.464-3.535-1.342-5.157-2.637-1.623-1.294-2.435-3.042-2.435-5.245 0-2.511 1.11-4.549 3.332-6.114s4.859-2.347 7.912-2.347c2.511 0 4.752 0.57 6.722 1.709 1.971 1.14 3.381 2.773 4.232 4.898l-4.637 1.912c-1.043-2.511-3.208-3.767-6.491-3.767-1.585 0-2.918 0.329-3.999 0.985-1.082 0.658-1.623 1.546-1.623 2.666 0 1.623 1.256 2.724 3.767 3.303l5.622 1.334c2.666 0.618 4.636 1.681 5.911 3.188 1.276 1.506 1.914 3.207 1.914 5.099 0 2.55-1.044 4.676-3.13 6.375-2.087 1.7-4.773 2.551-8.057 2.551" fill="#757575"/>
<mask id="a" fill="white">
<use xlink:href="#b"/>
</mask>
<path d="m668.48 61.368h5.332v-28.398h-5.332v28.398zm5.332-35.527c-0.735 0.734-1.623 1.101-2.666 1.101s-1.933-0.367-2.666-1.101c-0.735-0.734-1.102-1.623-1.102-2.667 0-1.042 0.367-1.931 1.102-2.666 0.733-0.733 1.623-1.101 2.666-1.101s1.931 0.368 2.666 1.101c0.733 0.735 1.1 1.624 1.1 2.666 0 1.044-0.367 1.933-1.1 2.667z" fill="#757575" mask="url(#a)"/>
<path d="m690.45 62.296c-3.169 0-5.786-0.773-7.854-2.318-2.067-1.545-3.584-3.478-4.549-5.796l4.753-1.971c1.506 3.556 4.075 5.332 7.708 5.332 1.661 0 3.023-0.366 4.086-1.101 1.062-0.734 1.593-1.7 1.593-2.898 0-1.854-1.295-3.109-3.883-3.767l-5.738-1.391c-1.816-0.464-3.535-1.342-5.157-2.637-1.623-1.294-2.435-3.042-2.435-5.245 0-2.511 1.111-4.549 3.332-6.114 2.222-1.565 4.859-2.347 7.913-2.347 2.51 0 4.752 0.57 6.722 1.709 1.97 1.14 3.381 2.773 4.231 4.898l-4.637 1.912c-1.043-2.511-3.208-3.767-6.491-3.767-1.585 0-2.917 0.329-3.999 0.985-1.081 0.658-1.623 1.546-1.623 2.666 0 1.623 1.256 2.724 3.767 3.303l5.622 1.334c2.666 0.618 4.637 1.681 5.912 3.188 1.275 1.506 1.913 3.207 1.913 5.099 0 2.55-1.043 4.676-3.13 6.375-2.087 1.7-4.773 2.551-8.056 2.551" fill="#757575" mask="url(#a)"/>
<path d="m717.69 61.832c-2.976 0-5.245-0.791-6.81-2.376-1.565-1.584-2.346-3.825-2.346-6.724v-14.894h-4.986v-4.868h4.986v-8.694h5.332v8.694h6.954v4.868h-6.954v14.489c0 3.092 1.274 4.636 3.824 4.636 0.966 0 1.777-0.153 2.435-0.463l1.854 4.579c-1.159 0.501-2.589 0.753-4.289 0.753" fill="#757575" mask="url(#a)"/>
<path d="m735.77 57.427c2.202 0 4.202-0.819 5.998-2.463 1.797-1.641 2.695-3.583 2.695-5.824-1.506-1.236-3.767-1.855-6.781-1.855-2.588 0-4.54 0.561-5.853 1.681-1.314 1.121-1.97 2.435-1.97 3.941 0 1.391 0.599 2.493 1.796 3.303 1.197 0.812 2.569 1.217 4.115 1.217m-0.869 4.869c-3.014 0-5.535-0.87-7.564-2.608-2.028-1.739-3.043-4.037-3.043-6.897 0-3.091 1.198-5.515 3.594-7.273 2.395-1.758 5.351-2.637 8.867-2.637 3.13 0 5.7 0.579 7.708 1.738v-0.811c0-2.087-0.714-3.757-2.144-5.013s-3.187-1.884-5.274-1.884c-1.546 0-2.947 0.368-4.202 1.101-1.256 0.734-2.115 1.739-2.579 3.014l-4.868-2.087c0.656-1.699 1.95-3.274 3.883-4.723 1.931-1.449 4.482-2.173 7.65-2.173 3.631 0 6.646 1.063 9.041 3.187 2.396 2.125 3.594 5.12 3.594 8.983v17.155h-5.101v-3.941h-0.231c-2.126 3.246-5.236 4.869-9.331 4.869" fill="#757575" mask="url(#a)"/>
<path d="m760.11 32.97v3.941h0.231c0.773-1.352 1.99-2.501 3.652-3.448 1.66-0.947 3.438-1.42 5.332-1.42 3.515 0 6.201 1.082 8.056 3.245 1.854 2.164 2.782 5.062 2.782 8.694v17.386h-5.332v-16.575c0-5.254-2.338-7.882-7.013-7.882-2.203 0-3.999 0.879-5.39 2.637-1.391 1.759-2.087 3.796-2.087 6.114v15.706h-5.332v-28.398h5.101z" fill="#757575" mask="url(#a)"/>
<path d="m797.26 61.832c-2.976 0-5.245-0.791-6.81-2.376-1.565-1.584-2.347-3.825-2.347-6.724v-14.894h-4.985v-4.868h4.985v-8.694h5.332v8.694h6.954v4.868h-6.954v14.489c0 3.092 1.275 4.636 3.825 4.636 0.965 0 1.776-0.153 2.435-0.463l1.854 4.579c-1.16 0.501-2.59 0.753-4.289 0.753" fill="#757575" mask="url(#a)"/>
<path d="m376.33 38.532c0-13.099 11.013-23.763 24.111-23.763 7.246 0 12.404 2.84 16.287 6.549l-4.579 4.579c-2.781-2.608-6.549-4.636-11.708-4.636-9.563 0-17.04 7.708-17.04 17.271s7.477 17.272 17.04 17.272c6.202 0 9.737-2.493 11.998-4.752 1.855-1.855 3.072-4.522 3.536-8.173h-15.534v-6.491h21.85c0.233 1.159 0.349 2.55 0.349 4.057 0 4.868-1.333 10.897-5.622 15.186-4.173 4.346-9.506 6.665-16.577 6.665-13.098 0-24.111-10.665-24.111-23.764" fill="#757575" mask="url(#a)"/>
<path d="m440.29 56.268c-4.637 0-8.636-3.825-8.636-9.273 0-5.506 3.999-9.274 8.636-9.274s8.636 3.768 8.636 9.274c0 5.448-3.999 9.273-8.636 9.273m0-24.574c-8.462 0-15.358 6.433-15.358 15.301 0 8.81 6.896 15.301 15.358 15.301s15.359-6.491 15.359-15.301c0-8.868-6.897-15.301-15.359-15.301" fill="#757575" mask="url(#a)"/>
<path d="m473.8 56.268c-4.636 0-8.636-3.825-8.636-9.273 0-5.506 4-9.274 8.636-9.274 4.637 0 8.636 3.768 8.636 9.274 0 5.448-3.999 9.273-8.636 9.273m0-24.574c-8.462 0-15.358 6.433-15.358 15.301 0 8.81 6.896 15.301 15.358 15.301s15.359-6.491 15.359-15.301c0-8.868-6.897-15.301-15.359-15.301" fill="#757575" mask="url(#a)"/>
<path d="m507.22 56.268c-4.637 0-8.521-3.883-8.521-9.215 0-5.39 3.884-9.332 8.521-9.332 4.578 0 8.172 3.942 8.172 9.332 0 5.332-3.594 9.215-8.172 9.215zm7.708-23.647v2.492h-0.231c-1.507-1.797-4.406-3.419-8.057-3.419-7.65 0-14.664 6.723-14.664 15.359 0 8.578 7.014 15.243 14.664 15.243 3.651 0 6.55-1.623 8.057-3.477h0.231v2.202c0 5.853-3.13 8.983-8.172 8.983-4.115 0-6.666-2.956-7.709-5.448l-5.853 2.435c1.68 4.057 6.143 9.042 13.562 9.042 7.882 0 14.548-4.637 14.548-15.939v-27.473h-6.376z" fill="#757575" mask="url(#a)"/>
<polygon points="525.94 61.368 532.66 61.368 532.66 16.392 525.94 16.392" fill="#757575" mask="url(#a)"/>
<path d="m550.57 37.605c2.667 0 4.927 1.333 5.681 3.246l-13.679 5.679c-0.174-5.911 4.579-8.925 7.998-8.925m0.522 18.663c-3.419 0-5.854-1.565-7.418-4.637l20.459-8.462-0.696-1.739c-1.274-3.419-5.158-9.737-13.098-9.737-7.883 0-14.432 6.202-14.432 15.301 0 8.578 6.491 15.302 15.185 15.302 7.013 0 11.071-4.289 12.751-6.781l-5.216-3.478c-1.739 2.55-4.115 4.231-7.535 4.231" fill="#757575" mask="url(#a)"/>
<path d="m348.83 28.768c3.001 0 5.434-2.433 5.434-5.433 0-3.001-2.433-5.434-5.434-5.434s-5.434 2.433-5.434 5.434c0 3 2.433 5.433 5.434 5.433" fill="#34A853" mask="url(#a)"/>
<path d="m332.53 46.879c6.001 0 10.867-4.865 10.867-10.867 0-6.001-4.866-10.866-10.867-10.866s-10.867 4.865-10.867 10.866c0 6.002 4.866 10.867 10.867 10.867" fill="#EA4335" mask="url(#a)"/>
<path d="m332.53 75.857c7.002 0 12.678-5.676 12.678-12.678s-5.676-12.678-12.678-12.678-12.678 5.676-12.678 12.678 5.676 12.678 12.678 12.678" fill="#FBBC05" mask="url(#a)"/>
<path d="m296.31 46.879c12.003 0 21.733-9.73 21.733-21.733 0-12.004-9.73-21.734-21.733-21.734s-21.734 9.73-21.734 21.734c0 12.003 9.731 21.733 21.734 21.733" fill="#4285F4" mask="url(#a)"/>
<polygon points="236.84 75.87 239.33 75.87 239.33 3.4213 236.84 3.4213" fill="#9E9E9E" mask="url(#a)"/>
</g>
</g>
</svg>
