<?xml version="1.0" encoding="UTF-8"?>
<svg version="1.1" viewBox="0 0 23 23" xmlns="http://www.w3.org/2000/svg">
<title>Group 9</title>
<desc>Created with Sketch.</desc>
<g fill="none" fill-rule="evenodd">
<g transform="translate(-35 -93)" fill="#BD8037">
<g transform="translate(35 93)">
<polygon points="10 23 11 23 11 0 10 0"/>
<polygon points="0 12 23 12 23 11 0 11"/>
<polygon points="4.1143 20 3 18.886 18.886 3 20 4.1146"/>
<polygon points="18.886 20 3 4.1146 4.1143 3 20 18.886"/>
<polygon points="7.5429 22 6 21.448 14.457 1 16 1.5517"/>
<polygon points="21.422 16 0 7.5426 0.57802 6 22 14.457"/>
<polygon points="0.66532 16 0 14.637 21.335 6 22 7.3631"/>
<polygon points="14.637 22 6 1.6351 7.3631 1 16 21.365"/>
</g>
</g>
</g>
</svg>
