<?xml version="1.0" encoding="UTF-8"?>
<svg version="1.1" viewBox="0 0 37 37" xmlns="http://www.w3.org/2000/svg">
<title>Group 9 Copy 2</title>
<desc>Created with Sketch.</desc>
<g fill="none" fill-rule="evenodd">
<g transform="translate(-6 -163)" fill="#BD8037">
<g transform="translate(6 163)">
<polygon points="16 37 18 37 18 0 16 0"/>
<polygon points="0 19 37 19 37 17 0 17"/>
<polygon points="6.7697 32 5 30.23 30.23 5 32 6.7702"/>
<polygon points="30.23 32 5 6.7702 6.7697 5 32 30.23"/>
<polygon points="12.469 35 10 34.107 23.531 1 26 1.8933"/>
<polygon points="34.08 26 0 12.468 0.91958 10 35 23.532"/>
<polygon points="1.0585 26 0 23.82 33.942 10 35 12.181"/>
<polygon points="23.819 35 10 2.0282 12.181 1 26 33.972"/>
</g>
</g>
</g>
</svg>
