<?xml version="1.0" encoding="UTF-8"?>
<svg version="1.1" viewBox="0 0 94 75" xmlns="http://www.w3.org/2000/svg" xmlns:xlink="http://www.w3.org/1999/xlink">
<title>Group</title>
<desc>Created with Sketch.</desc>
<defs>
<polygon id="b" points="0.27072 0.42844 25.587 0.42844 25.587 15.721 0.27072 15.721"/>
<polygon id="a" points="0.11166 0.42844 25.428 0.42844 25.428 15.721 0.11166 15.721"/>
</defs>
<g fill="none" fill-rule="evenodd">
<g transform="translate(-116 -15)">
<g transform="translate(116 15)">
<polygon points="4 75 91 75 91 32 4 32" fill="#BD8037"/>
<polygon points="0 30 94 30 94 19 0 19" fill="#BD8037"/>
<polygon points="41 75 54 75 54 19 41 19" fill="#001036"/>
<g transform="translate(21)">
<mask id="d" fill="white">
<use xlink:href="#b"/>
</mask>
<path d="m25.587 15.721h-25.316v-9.0127c0-5.584 7.0783-8.3804 11.219-4.4314l14.097 13.444z" fill="#001036" mask="url(#d)"/>
<g transform="translate(27.96)">
<mask id="c" fill="white">
<use xlink:href="#a"/>
</mask>
<path d="m0.11166 15.721h25.316v-9.0127c0-5.584-7.0789-8.3804-11.22-4.4314l-14.096 13.444z" fill="#001036" mask="url(#c)"/>
</g>
</g>
</g>
</g>
</g>
</svg>
