<?xml version="1.0" encoding="UTF-8"?>
<svg version="1.1" viewBox="0 0 98 79" xmlns="http://www.w3.org/2000/svg" xmlns:xlink="http://www.w3.org/1999/xlink">
<title>Group 2</title>
<desc>Created with Sketch.</desc>
<defs>
<polygon id="c" points="0.046951 0.2456 26.003 0.2456 26.003 32.911 0.046951 32.911"/>
<linearGradient id="a" x1="13.872%" x2="13.872%" y1="75.406%" y2="-25.477%">
<stop stop-color="#F01446" offset="0"/>
<stop stop-color="#9D2235" offset="1"/>
</linearGradient>
<polygon id="b" points="0.24043 0.2456 26.197 0.2456 26.197 32.911 0.24043 32.911"/>
</defs>
<g fill="none" fill-rule="evenodd">
<g transform="translate(-229 -11)">
<g transform="translate(229 11)">
<polygon points="3 79 96 79 96 28 3 28" fill="#001036"/>
<polygon points="0 25 98 25 98 7 0 7" fill="#001036"/>
<polygon points="42 79 56 79 56 7 42 7" fill="#BD8037"/>
<g transform="translate(26)">
<g transform="translate(20.386)">
<mask id="e" fill="white">
<use xlink:href="#c"/>
</mask>
<path d="m14.501 2.2248-14.363 14.308h-0.090462l0.045231 0.045058-0.045231 0.045058h0.090462l14.363 14.308c4.2447 4.2284 11.503 1.2343 11.503-4.7457v-9.5624-0.090115-9.5618c0-5.98-7.258-8.9747-11.503-4.7463" fill="url(#a)" mask="url(#e)"/>
</g>
<mask id="d" fill="white">
<use xlink:href="#b"/>
</mask>
<path d="m26.107 16.533-14.363-14.308c-4.2447-4.2284-11.503-1.2337-11.503 4.7469v9.5611 0.09075 9.5618c0 5.98 7.2586 8.9747 11.503 4.7457l14.363-14.307h0.090462l-0.045231-0.045692 0.045231-0.045058h-0.090462z" fill="url(#a)" mask="url(#d)"/>
</g>
</g>
</g>
</g>
</svg>
