<?xml version="1.0" encoding="UTF-8"?>
<svg width="94px" height="30px" viewBox="0 0 94 30" version="1.1" xmlns="http://www.w3.org/2000/svg" xmlns:xlink="http://www.w3.org/1999/xlink">
    <title>Logos/Enterprise/OnTech/OnTech+</title>
    <g id="DCO" stroke="none" stroke-width="1" fill="none" fill-rule="evenodd">
        <g id="Group" transform="translate(-35.000000, 0.000000)">
            <g id="Group" transform="translate(-0.000000, 0.000000)">
                <g id="OnTech-Smart-Services-Plus" transform="translate(-0.000000, 0.000000)">
                    <g id="Group" transform="translate(0.000000, 0.899183)" fill-rule="nonzero">
                        <g id="Color">
                            <ellipse id="Oval" fill="#0015EA" cx="14.6941473" cy="14.4834159" rx="14.6941473" ry="14.4834159"></ellipse>
                            <path d="M14.6535557,5.60132105 C15.7529466,5.60132105 16.6425425,6.47815909 16.6425425,7.56178342 C16.6425425,8.64540776 15.7529466,9.52224579 14.6535557,9.52224579 C13.5801859,9.52224579 12.6645689,8.64540776 12.6645689,7.56178342 C12.6645689,6.47896059 13.580999,5.60132105 14.6535557,5.60132105 Z" id="Path" fill="#FFFFFF"></path>
                            <path d="M12.5916307,11.7830509 C13.3540236,12.2176693 14.1710479,12.3321269 14.7344849,12.3329273 C15.2971064,12.3321269 16.1149461,12.2176693 16.8773391,11.7830509 C17.0020943,11.7142163 17.0689566,11.8342767 17.042864,11.9391294 C16.7843842,12.9828539 15.8532048,13.7568428 14.7418234,13.763246 L14.7279617,13.763246 C13.6165803,13.7568428 12.6854009,12.9828539 12.4269212,11.9391294 C12.4000132,11.8342767 12.4668754,11.7142163 12.5916307,11.7830509 Z" id="Path" fill="#FFFFFF"></path>
                            <path d="M11.7646796,15.7921144 C12.8209425,16.4005036 13.9540981,16.5610284 14.7343567,16.5626336 C15.5146153,16.5610284 16.6477709,16.4013062 17.7040338,15.7921144 C17.8772447,15.6957995 17.969516,15.863548 17.9339025,16.0104282 C17.5753397,17.4720068 16.2843517,18.5555495 14.7440695,18.5643784 L14.7254533,18.5643784 C13.1851711,18.5555495 11.8941831,17.4720068 11.5356203,16.0104282 C11.5000068,15.863548 11.5914687,15.6957995 11.7646796,15.7921144 Z" id="Path" fill="#FFFFFF"></path>
                            <path d="M18.7436224,20.7145964 C18.2898159,22.5519843 16.6557887,23.9144878 14.7062811,23.9256428 L14.6820134,23.9256428 C12.7325058,23.9144878 11.0984786,22.5519843 10.6446721,20.7145964 C10.5993723,20.5305389 10.7158574,20.3193907 10.9350759,20.4405022 C12.2722278,21.2062132 13.7064507,21.4078 14.6941473,21.4093936 C15.6818439,21.4078 17.1160667,21.2062132 18.4532186,20.4405022 C18.6724371,20.3193907 18.7889222,20.5305389 18.7436224,20.7145964 Z" id="Path" fill="#FFFFFF"></path>
                            <path d="M73.6110193,25.2877768 C74.2278771,25.2877768 74.7164935,25.4950581 75.0695634,25.7767685 L74.6937671,26.4218214 C74.4754319,26.1921314 74.0622995,26.0064586 73.6183242,26.0064586 C73.2725591,26.0064586 73.046919,26.1321079 73.046919,26.3401894 C73.046919,26.5626767 73.3326216,26.6443087 73.7384491,26.7259407 C74.3626119,26.8443871 75.1969933,27.0076511 75.1969933,27.8976 C75.1969933,28.5578589 74.632893,29.0468506 73.6256291,29.0468506 C72.9941614,29.0468506 72.3846085,28.8395693 72.0015073,28.4906325 L72.4154514,27.8303737 C72.6784276,28.0752697 73.2198015,28.3201657 73.6710818,28.3201657 C74.0850258,28.3201657 74.279823,28.1793105 74.279823,27.9568233 C74.279823,27.7047244 73.9640892,27.6158896 73.5501451,27.5342576 C72.9259824,27.4158111 72.1216322,27.2669528 72.1216322,26.4146186 C72.1216322,25.813583 72.6557013,25.2877768 73.6110193,25.2877768 Z M117.136834,25.2877768 C117.753691,25.2877768 118.242308,25.4950581 118.596189,25.7767685 L118.220393,26.4218214 C118.002058,26.1921314 117.588925,26.0064586 117.14495,26.0064586 C116.799185,26.0064586 116.573545,26.1321079 116.573545,26.3401894 C116.573545,26.5626767 116.859248,26.6443087 117.265075,26.7259407 C117.889238,26.8443871 118.724431,27.0076511 118.724431,27.8976 C118.724431,28.5578589 118.160331,29.0468506 117.153067,29.0468506 C116.521599,29.0468506 115.912046,28.8395693 115.528945,28.4906325 L115.941266,27.8303737 C116.204242,28.0752697 116.745616,28.3201657 117.196896,28.3201657 C117.61084,28.3201657 117.806449,28.1793105 117.806449,27.9568233 C117.806449,27.7047244 117.490715,27.6158896 117.076771,27.5342576 C116.452608,27.4158111 115.648258,27.2669528 115.648258,26.4146186 C115.648258,25.813583 116.182327,25.2877768 117.136834,25.2877768 Z M83.4101308,25.2869765 C84.2372073,25.2869765 84.9969165,25.6135045 84.9969165,26.6443087 L84.9969165,26.6443087 L84.9969165,28.9580158 L84.0415985,28.9580158 L84.0415985,28.5874705 C83.793232,28.8763838 83.3646781,29.0468506 82.8906716,29.0468506 C82.3111499,29.0468506 81.6269247,28.6618997 81.6269247,27.8607856 C81.6269247,27.0228571 82.3119615,26.7187379 82.8906716,26.7187379 C83.371983,26.7187379 83.8013486,26.8675962 84.0415985,27.1565095 L84.0415985,27.1565095 L84.0415985,26.6595146 C84.0415985,26.2953719 83.7258646,26.058479 83.2445532,26.058479 C82.8541471,26.058479 82.4929606,26.1993342 82.1845317,26.4810447 L82.1845317,26.4810447 L81.8233452,25.8503974 C82.2673205,25.4646462 82.8387257,25.2869765 83.4101308,25.2869765 Z M93.960835,25.2877768 C94.5776928,25.2877768 95.0663091,25.4950581 95.4193791,25.7767685 L95.0435828,26.4218214 C94.8252476,26.1921314 94.4121152,26.0064586 93.9681398,26.0064586 C93.6223748,26.0064586 93.3967347,26.1321079 93.3967347,26.3401894 C93.3967347,26.5626767 93.6824373,26.6443087 94.0882648,26.7259407 C94.7124275,26.8443871 95.5468089,27.0076511 95.5468089,27.8976 C95.5468089,28.5578589 94.9827087,29.0468506 93.9754447,29.0468506 C93.3439771,29.0468506 92.7344242,28.8395693 92.351323,28.4906325 L92.765267,27.8303737 C93.0282433,28.0752697 93.5696172,28.3201657 94.0208974,28.3201657 C94.4348415,28.3201657 94.6296387,28.1793105 94.6296387,27.9568233 C94.6296387,27.7047244 94.3139049,27.6158896 93.8999608,27.5342576 C93.2757981,27.4158111 92.4714479,27.2669528 92.4714479,26.4146186 C92.4714479,25.813583 93.0055169,25.2877768 93.960835,25.2877768 Z M89.6379601,24.3978279 L89.6379601,25.3766117 L90.3749429,25.3766117 L90.3749429,26.1993342 L89.6379601,26.1993342 L89.6379601,27.815968 C89.6379601,28.0384553 89.758085,28.2089221 89.9691154,28.2089221 C90.1119667,28.2089221 90.247513,28.1569017 90.3002706,28.1048813 L90.5031844,28.8163602 C90.3603331,28.9420095 90.1046618,29.0460517 89.7061391,29.0460517 C89.0365237,29.0468506 88.6753372,28.7051166 88.6753372,28.0680669 L88.6753372,26.1993342 L88.0739008,26.1993342 L88.0739008,25.3766117 L88.6753372,25.3766117 L88.6753372,24.3978279 L89.6379601,24.3978279 Z M113.557435,25.2869765 C114.640183,25.2869765 115.377165,26.0880906 115.377165,27.25975 L115.377165,27.25975 L115.377165,27.4662309 L112.677601,27.4662309 C112.737663,27.9184082 113.106155,28.2969566 113.723012,28.2969566 C114.061473,28.2969566 114.459995,28.1633042 114.69294,27.940817 L114.69294,27.940817 L115.114189,28.5490554 C114.745698,28.8827863 114.181597,29.0460503 113.617497,29.0460503 C112.512023,29.0460503 111.677642,28.3121626 111.677642,27.162912 C111.677642,26.124905 112.451961,25.2869765 113.557435,25.2869765 Z M97.758569,25.2869765 C98.8413168,25.2869765 99.5782996,26.0880906 99.5782996,27.25975 L99.5782996,27.25975 L99.5782996,27.4662309 L96.8787349,27.4662309 C96.9387974,27.9184082 97.3072888,28.2969566 97.9241466,28.2969566 C98.2626068,28.2969566 98.6611294,28.1633042 98.8940744,27.940817 L98.8940744,27.940817 L99.3153234,28.5490554 C98.946832,28.8827863 98.3827317,29.0460503 97.8186315,29.0460503 C96.7131573,29.0460503 95.8787759,28.3121626 95.8787759,27.162912 C95.8787759,26.124905 96.6530948,25.2869765 97.758569,25.2869765 Z M110.074623,25.2869765 C110.818911,25.2869765 111.270191,25.6055014 111.511252,25.9392322 L110.88709,26.509856 C110.714207,26.2649599 110.451231,26.1241047 110.120076,26.1241047 C109.541365,26.1241047 109.134726,26.5394676 109.134726,27.1621117 C109.134726,27.7847558 109.540554,28.2073215 110.120076,28.2073215 C110.451231,28.2073215 110.714207,28.0592634 110.88709,27.8215702 L111.511252,28.3921939 C111.271002,28.7259248 110.819722,29.0444497 110.074623,29.0444497 C108.953727,29.0444497 108.149377,28.2657444 108.149377,27.1613114 C108.150189,26.0656818 108.954539,25.2869765 110.074623,25.2869765 Z M80.0782868,25.2869765 C80.7479022,25.2869765 81.1464249,25.635113 81.1464249,26.369801 L81.1464249,28.9580158 L80.183802,28.9580158 L80.183802,26.6955288 C80.183802,26.3617979 80.0336458,26.124905 79.642428,26.124905 C79.3039679,26.124905 79.0255702,26.3473923 78.8900238,26.5402679 L78.8900238,28.9572155 L77.9274009,28.9572155 L77.9274009,26.6955288 C77.9274009,26.3617979 77.7772447,26.124905 77.386027,26.124905 C77.0548717,26.124905 76.776474,26.3473923 76.6336227,26.5474707 L76.6336227,28.9572155 L75.6783047,28.9572155 L75.6783047,25.3758113 L76.6336227,25.3758113 L76.6336227,25.8431946 C76.7837789,25.6279102 77.2650904,25.2869765 77.8218857,25.2869765 C78.3559548,25.2869765 78.6944149,25.5318725 78.8299613,25.9392322 C79.04018,25.6127042 79.5214914,25.2869765 80.0782868,25.2869765 Z M107.660761,25.3758113 L107.660761,28.9572155 L106.705443,28.9572155 L106.705443,25.3758113 L107.660761,25.3758113 Z M103.495347,25.3758113 L104.442548,27.8671881 L105.390562,25.3758113 L106.420552,25.3758113 L104.962008,28.9572155 L103.931206,28.9572155 L102.472662,25.3758113 L103.495347,25.3758113 Z M87.6680733,25.2941793 L87.6680733,26.2137399 C87.6007059,26.1993342 87.5098005,26.1913311 87.405097,26.1913311 C87.0893632,26.1913311 86.6681142,26.3617979 86.5098415,26.591488 L86.5098415,28.9572155 L85.5545235,28.9572155 L85.5545235,25.3758113 L86.5098415,25.3758113 L86.5098415,25.8648031 C86.7655128,25.5462782 87.2167931,25.2941793 87.6680733,25.2941793 Z M102.240528,25.2941793 L102.240528,26.2137399 C102.173161,26.1993342 102.082255,26.1913311 101.977552,26.1913311 C101.661818,26.1913311 101.240569,26.3617979 101.082296,26.591488 L101.082296,28.9572155 L100.126978,28.9572155 L100.126978,25.3758113 L101.082296,25.3758113 L101.082296,25.8648031 C101.337968,25.5462782 101.789248,25.2941793 102.240528,25.2941793 Z M83.2745844,27.341382 C82.8987881,27.341382 82.5903592,27.5414604 82.5903592,27.8823941 C82.5903592,28.2161249 82.8987881,28.4090005 83.2745844,28.4090005 C83.5830133,28.4090005 83.8833257,28.3049597 84.0415985,28.0976785 L84.0415985,28.0976785 L84.0415985,27.652704 C83.8833257,27.4454228 83.5830133,27.341382 83.2745844,27.341382 Z M113.557435,26.0360702 C112.963303,26.0360702 112.707632,26.4730415 112.662179,26.8291812 L112.662179,26.8291812 L114.45269,26.8291812 C114.429964,26.4882475 114.188902,26.0360702 113.557435,26.0360702 Z M97.758569,26.0360702 C97.1644375,26.0360702 96.9087661,26.4730415 96.8633134,26.8291812 L96.8633134,26.8291812 L98.6538245,26.8291812 C98.6310982,26.4882475 98.3900366,26.0360702 97.758569,26.0360702 Z M107.179449,23.7895894 C107.495183,23.7895894 107.750854,24.0416883 107.750854,24.3530103 C107.750854,24.6643324 107.495183,24.9164312 107.179449,24.9164312 C106.87102,24.9164312 106.608044,24.6643324 106.608044,24.3530103 C106.608044,24.0416883 106.87102,23.7895894 107.179449,23.7895894 Z M85.7014331,8.33713116 C89.6071172,8.33713116 92.2660992,11.2254636 92.2669108,15.4519206 L92.2669108,15.4519206 L92.2669108,15.9609201 C92.2669108,16.0937722 92.1581491,16.2010143 92.0234143,16.2010143 L92.0234143,16.2010143 L82.5286734,16.2010143 C82.746197,17.8328541 84.0748763,19.1965887 86.2996228,19.1965887 C87.4294467,19.1965887 88.7451395,18.7844271 89.6014356,18.0865535 C89.7101974,17.9977187 89.8741517,18.0233287 89.9545056,18.1385739 L89.9545056,18.1385739 L91.1955262,19.9304764 C91.2661402,20.0329166 91.2466604,20.1705706 91.1508851,20.250602 C89.8213941,21.3574359 87.8701754,21.898448 85.9189566,21.898448 C81.9312953,21.898448 78.920055,19.2502097 78.920055,15.1045844 C78.920055,11.3599163 81.7137717,8.33713116 85.7014331,8.33713116 Z M100.078279,8.33713116 C102.632558,8.33713116 104.229083,9.37753906 105.126774,10.5147849 C105.203881,10.6132235 105.191706,10.7532784 105.099177,10.8381117 L103.205586,12.5699907 C103.100883,12.665228 102.938552,12.6508224 102.848458,12.5419797 C102.227542,11.7880841 101.337156,11.3599163 100.24061,11.3599163 C98.1522217,11.3599163 96.6871843,12.8581036 96.6871843,15.1045844 C96.6871843,17.3510652 98.1522217,18.8756629 100.24061,18.8756629 C101.336344,18.8756629 102.225918,18.4250862 102.847646,17.6887976 C102.93774,17.5815555 103.099259,17.5687505 103.203151,17.6631875 L105.099177,19.3974675 C105.191706,19.4823007 105.203881,19.6223556 105.126774,19.7207942 C104.240446,20.8444348 102.670705,21.872838 100.170808,21.8976477 C96.3479125,21.9352624 93.1597314,18.926883 93.1345701,15.1582054 C93.1069738,11.1710422 96.0175689,8.33713116 100.078279,8.33713116 Z M44.9165779,3.44081151 C50.3968729,3.44081151 54.3837226,7.29272169 54.3837226,12.6684293 C54.3837226,18.0441369 50.3960612,21.8960471 44.9165779,21.8960471 C39.4646909,21.8960471 35.4770296,18.0441369 35.4770296,12.6684293 C35.4770296,7.29272169 39.4638792,3.44081151 44.9165779,3.44081151 Z M109.722365,3.72332227 C109.843301,3.72332227 109.941511,3.82016023 109.941511,3.93940698 L109.941511,3.93940698 L109.941511,10.1786531 C110.742615,9.10543238 111.964156,8.44757446 113.551753,8.44757446 C116.422577,8.44757446 118.723619,10.2170682 118.725242,14.1698179 L118.725242,14.1698179 L118.725242,21.3598368 C118.725242,21.4790836 118.627032,21.5759216 118.506096,21.5759216 L118.506096,21.5759216 L115.500537,21.5759216 C115.3796,21.5759216 115.28139,21.4790836 115.28139,21.3598368 L115.28139,21.3598368 L115.278143,14.3770992 C115.278143,12.1794376 114.117477,11.2838865 112.641076,11.2838865 C111.165487,11.2838865 109.943946,12.2234548 109.941511,13.9097159 L109.941511,13.9097159 L109.941511,21.3590365 C109.941511,21.4782833 109.843301,21.5751212 109.722365,21.5751212 L109.722365,21.5751212 L106.716806,21.5751212 C106.595869,21.5751212 106.497659,21.4782833 106.497659,21.3590365 L106.497659,21.3590365 L106.497659,3.93940698 C106.497659,3.82016023 106.595869,3.72332227 106.716806,3.72332227 L106.716806,3.72332227 Z M63.5351334,8.44757446 C66.4059573,8.44757446 68.7069994,10.2170682 68.7086227,14.1698179 L68.7086227,14.1698179 L68.7086227,21.3598368 C68.7086227,21.4790836 68.6104125,21.5759216 68.4894758,21.5759216 L68.4894758,21.5759216 L65.4839172,21.5759216 C65.3629806,21.5759216 65.2647703,21.4790836 65.2647703,21.3598368 L65.2647703,21.3598368 L65.2615237,14.3770992 C65.2615237,12.1794376 64.1008569,11.2838865 62.6244564,11.2838865 C61.1488675,11.2838865 59.9273266,12.2234548 59.9248917,13.9097159 L59.9248917,13.9097159 L59.9248917,21.3590365 C59.9248917,21.4782833 59.8266814,21.5751212 59.7057448,21.5751212 L59.7057448,21.5751212 L56.7001861,21.5751212 C56.5792495,21.5751212 56.4810392,21.4782833 56.4810392,21.3590365 L56.4810392,21.3590365 L56.4810392,8.8685395 C56.4810392,8.74929275 56.5792495,8.65245478 56.7001861,8.65245478 L56.7001861,8.65245478 L59.7057448,8.65245478 C59.8266814,8.65245478 59.9248917,8.74929275 59.9248917,8.8685395 L59.9248917,8.8685395 L59.9248917,10.1786531 C60.7259952,9.10543238 61.9475361,8.44757446 63.5351334,8.44757446 Z M80.8931885,3.73452666 C81.0279232,3.73452666 81.136685,3.8417687 81.136685,3.97462079 L81.136685,6.83814346 C81.136685,6.97099555 81.0279232,7.07823759 80.8931885,7.07823759 L75.8739136,7.07823759 L75.8739136,21.3350271 C75.8739136,21.4678792 75.7651518,21.5751212 75.6304171,21.5751212 L72.2385106,21.5751212 C72.1037758,21.5751212 71.9950141,21.4678792 71.9950141,21.3350271 L71.9950141,7.07823759 L66.9489545,7.07823759 C66.8142198,7.07823759 66.705458,6.97099555 66.705458,6.83814346 L66.705458,3.97462079 C66.705458,3.8417687 66.8142198,3.73452666 66.9489545,3.73452666 L80.8931885,3.73452666 Z M120.213818,20.6219475 L120.213818,20.7796094 L119.904577,20.7796094 L119.904577,21.5751212 L119.712215,21.5751212 L119.712215,20.7796094 L119.402974,20.7796094 L119.402974,20.6219475 L120.213818,20.6219475 Z M121.375296,20.6211472 L121.449969,21.5743209 L121.258418,21.5743209 L121.222705,21.0141013 C121.219458,20.9404724 121.219458,20.8492367 121.2154,20.7475968 L121.204849,20.7475968 C121.179687,20.8316298 121.151279,20.9436737 121.122872,21.0317082 L120.948366,21.5607156 L120.74951,21.5607156 L120.575004,21.0173025 C120.557148,20.9436737 120.52874,20.8316298 120.507637,20.7475968 L120.497085,20.7475968 C120.497085,20.834831 120.493839,20.9260668 120.489781,21.0141013 L120.454068,21.5751212 L120.26901,21.5751212 L120.340436,20.6219475 L120.628574,20.6219475 L120.795775,21.0877302 C120.816878,21.161359 120.834734,21.2317866 120.859895,21.3294249 L120.863142,21.3294249 C120.888303,21.2421907 120.909406,21.161359 120.930509,21.0909314 L121.09771,20.6211472 L121.375296,20.6211472 Z M44.9165779,6.8109328 C41.579864,6.8109328 39.4370946,9.32471835 39.4370946,12.6684293 C39.4370946,15.9849296 41.579864,18.5259258 44.9165779,18.5259258 C48.2532919,18.5259258 50.4236575,15.9849296 50.4236575,12.6684293 C50.4236575,9.32551866 48.2532919,6.8109328 44.9165779,6.8109328 Z M85.7014331,11.0389904 C83.5586637,11.0389904 82.6366235,12.6172092 82.4734809,13.9009125 L82.4734809,13.9009125 L88.9293852,13.9009125 C88.8482197,12.6708302 87.9797488,11.0389904 85.7014331,11.0389904 Z" id="Combined-Shape" fill="#000010"></path>
                        </g>
                    </g>
                    <path d="M124.478099,-4.646601e-15 C124.892215,-4.646601e-15 125.224984,0.335149864 125.224984,0.752043597 L125.224984,3.76839237 L128.220723,3.76839237 C128.634676,3.76839237 128.967608,4.10354223 128.967608,4.52043597 C128.967608,4.9373297 128.634676,5.27247956 128.220723,5.27247956 L125.224984,5.27247956 L125.224984,8.28882834 C125.224984,8.70572207 124.892215,9.04087193 124.478099,9.04087193 C124.064065,9.04087193 123.731296,8.70572207 123.731296,8.28882834 L123.731296,5.28882834 L120.735557,5.28882834 C120.321604,5.28882834 119.988672,4.95367847 119.988672,4.53678474 C119.988672,4.11989101 120.321604,3.78474114 120.735557,3.78474114 L123.731296,3.78474114 L123.731296,0.752043597 C123.723096,0.335149864 124.064065,-4.646601e-15 124.478099,-4.646601e-15" id="Fill-6" fill="#0015EA"></path>
                </g>
            </g>
        </g>
    </g>
</svg>