<svg xmlns="http://www.w3.org/2000/svg" viewBox="0 0 176.26 198.39"><defs><style>.cls-1{fill:#fff;}</style></defs><title>snowflake-medium-2</title><g id="Layer_2" data-name="Layer 2"><g id="Graphic"><path class="cls-1" d="M171.22,124.91l-20.87,5.59-12.27-7.08L163,116.73a3.46,3.46,0,0,0,.7-.26l.21-.12a3.54,3.54,0,0,0,.41-.26,1.84,1.84,0,0,0,.22-.17l.33-.31c.06-.07.12-.13.17-.2a3.69,3.69,0,0,0,.29-.4l.12-.19a3.88,3.88,0,0,0,.46-1.34,2.3,2.3,0,0,0,0-.26c0-.11,0-.23,0-.35V85.52c0-.12,0-.23,0-.35a2.3,2.3,0,0,0,0-.26,3.88,3.88,0,0,0-.46-1.34l-.12-.19a3.69,3.69,0,0,0-.29-.4,1.54,1.54,0,0,0-.17-.19c-.11-.12-.22-.22-.33-.32a1.84,1.84,0,0,0-.22-.17,3.54,3.54,0,0,0-.41-.26l-.21-.12a3.46,3.46,0,0,0-.7-.26L138.08,75l12.27-7.09,20.87,5.59a3.77,3.77,0,0,0,1,.14,4,4,0,0,0,1-7.86l-13.14-3.53,12.42-7.17a4,4,0,0,0-4-6.93l-12.42,7.18,3.52-13.15a4,4,0,0,0-7.73-2.07L146.35,61l-12.27,7.09,6.68-24.93a4.75,4.75,0,0,0,.12-.74v-.25a3.85,3.85,0,0,0,0-.48,2.51,2.51,0,0,0,0-.27,3.15,3.15,0,0,0-.11-.44,2.58,2.58,0,0,0-.08-.26c-.06-.15-.13-.3-.2-.44s-.06-.14-.1-.2a4,4,0,0,0-.94-1.08c-.06-.05-.14-.09-.21-.14a2.11,2.11,0,0,0-.29-.2L115.21,24.94a2.12,2.12,0,0,0-.31-.14l-.24-.12a4.71,4.71,0,0,0-.64-.19l-.11,0a3.47,3.47,0,0,0-.64-.06H113a3.44,3.44,0,0,0-.45,0l-.29.06a3,3,0,0,0-.4.12l-.28.11a3,3,0,0,0-.4.21l-.24.14a4.18,4.18,0,0,0-.57.47L92.13,43.83V29.66l15.28-15.28a4,4,0,1,0-5.66-5.66l-9.62,9.62V4a4,4,0,0,0-8,0V18.34L74.51,8.72a4,4,0,0,0-5.66,5.66L84.13,29.66V43.83L65.88,25.58a4.26,4.26,0,0,0-.58-.47L65.08,25a4,4,0,0,0-.41-.21l-.28-.11a2.77,2.77,0,0,0-.41-.12l-.28-.06a3.41,3.41,0,0,0-.46,0H63a3.39,3.39,0,0,0-.64.06l-.13,0a3.62,3.62,0,0,0-.62.18l-.24.12a1.73,1.73,0,0,0-.31.14L37.36,38.62a4,4,0,0,0-1.86,4.5l6.68,24.93L29.91,61l-5.6-20.87a4,4,0,1,0-7.72,2.07l3.52,13.15L7.69,48.13a4,4,0,1,0-4,6.93l12.42,7.17L3,65.76a4,4,0,0,0,1,7.86,3.77,3.77,0,0,0,1-.14l20.87-5.59L38.18,75,13.25,81.66a4,4,0,0,0-3,3.86v27.35c0,.12,0,.24,0,.35s0,.17,0,.26a4.11,4.11,0,0,0,.47,1.34,1.22,1.22,0,0,0,.12.19,3.6,3.6,0,0,0,.28.4l.18.2a3.26,3.26,0,0,0,.33.31,1.84,1.84,0,0,0,.22.17,2.85,2.85,0,0,0,.41.26l.21.12a3.25,3.25,0,0,0,.7.26l24.93,6.69L25.91,130.5,5,124.91A4,4,0,0,0,3,132.64l13.14,3.52L3.69,143.33a4,4,0,0,0,4,6.93l12.42-7.17-3.52,13.14a4,4,0,0,0,2.83,4.9,4.06,4.06,0,0,0,1,.14,4,4,0,0,0,3.86-3l5.6-20.87,12.27-7.09L35.5,155.28a3.71,3.71,0,0,0-.12.73,2.08,2.08,0,0,0,0,.25,3.85,3.85,0,0,0,0,.48c0,.09,0,.18,0,.28a3,3,0,0,0,.1.43c0,.09.05.18.08.26a4.54,4.54,0,0,0,.21.45,1.74,1.74,0,0,0,.1.19,4,4,0,0,0,.93,1.08l.21.14a2.51,2.51,0,0,0,.29.2l23.69,13.68c.1.06.21.1.31.15l.24.11a3.31,3.31,0,0,0,.68.2h0A3.35,3.35,0,0,0,63,174h0l.17,0a3.91,3.91,0,0,0,.48-.05l.27,0,.43-.13.26-.1a2.82,2.82,0,0,0,.42-.23l.22-.12a4.34,4.34,0,0,0,.58-.48l18.25-18.25v14.17L68.85,184a4,4,0,0,0,5.66,5.66l9.62-9.62v14.34a4,4,0,0,0,8,0V180.05l9.62,9.62a4,4,0,0,0,5.66-5.66L92.13,168.73V154.56l18.25,18.25a3.3,3.3,0,0,0,.62.51,3.89,3.89,0,0,0,1.4.58h0a3.94,3.94,0,0,0,.77.08h0a3.92,3.92,0,0,0,.68-.07l.17,0a4.56,4.56,0,0,0,.6-.18l.07,0q.24-.1.48-.24l23.68-13.68a1.49,1.49,0,0,0,.29-.2l.21-.14a4,4,0,0,0,.94-1.08c0-.06.06-.13.1-.19s.14-.3.2-.45a2,2,0,0,0,.08-.26,3.39,3.39,0,0,0,.11-.43c0-.1,0-.19,0-.28a3.85,3.85,0,0,0,0-.48V156a4.63,4.63,0,0,0-.12-.73l-6.68-24.94,12.27,7.09,5.59,20.87a4,4,0,0,0,3.86,3,4.13,4.13,0,0,0,1-.14,4,4,0,0,0,2.83-4.9l-3.52-13.14,12.42,7.17a4,4,0,0,0,2,.53,4,4,0,0,0,2-7.46l-12.42-7.17,13.14-3.52a4,4,0,0,0-2.07-7.73Zm-83.09-1.25A24.47,24.47,0,1,1,112.6,99.2,24.49,24.49,0,0,1,88.13,123.66ZM118,86.54l.08,0,10.17-5.87,29.69,8V109.8l-29.69,8-10.17-5.87-.08,0a32.44,32.44,0,0,0,0-25.31Zm6.25-12.83-10.17,5.87-.09.06A32.47,32.47,0,0,0,92.12,67s0-.06,0-.1V55.14L113.87,33.4,132.24,44ZM44,44,62.39,33.4,84.13,55.14V66.88s0,.07,0,.1A32.52,32.52,0,0,0,62.23,79.64s0,0-.08-.06L52,73.71ZM18.28,88.59l29.7-8L58.15,86.5l.08,0a32.44,32.44,0,0,0,0,25.31l-.08,0L48,117.76l-29.7-8ZM52,124.69l10.17-5.87.08-.07a32.48,32.48,0,0,0,21.91,12.66s0,.06,0,.1v11.74L62.39,165,44,154.38ZM113.87,165,92.13,143.25V131.51s0-.07,0-.1A32.44,32.44,0,0,0,114,118.75a.71.71,0,0,1,.09.07l10.17,5.87,8,29.69Z"/></g></g></svg>