<?xml version="1.0" encoding="UTF-8"?>
<svg version="1.1" viewBox="0 0 49 42" xmlns="http://www.w3.org/2000/svg" xmlns:xlink="http://www.w3.org/1999/xlink">
<title>Group 3</title>
<desc>Created with Sketch.</desc>
<defs>
<polygon id="c" points="0.023476 0.12652 13.002 0.12652 13.002 16.954 0.023476 16.954"/>
<linearGradient id="a" x1="13.872%" x2="13.872%" y1="75.406%" y2="-25.477%">
<stop stop-color="#F01446" offset="0"/>
<stop stop-color="#9D2235" offset="1"/>
</linearGradient>
<polygon id="b" points="0.12021 0.12652 13.099 0.12652 13.099 16.954 0.12021 16.954"/>
</defs>
<g fill="none" fill-rule="evenodd">
<g transform="translate(-119 -8)">
<g transform="translate(119 8)">
<polygon points="2 42 48 42 48 14 2 14" fill="#001036"/>
<polygon points="0 12 49 12 49 3 0 3" fill="#001036"/>
<polygon points="21 42 28 42 28 3 21 3" fill="#BD8037"/>
<g transform="translate(13)">
<g transform="translate(10.193)">
<mask id="e" fill="white">
<use xlink:href="#c"/>
</mask>
<path d="m7.2503 1.1461-7.1816 7.3708h-0.045231l0.022616 0.023212-0.022616 0.023212h0.045231l7.1816 7.3708c2.1224 2.1783 5.7514 0.63587 5.7514-2.4447v-4.9261-0.046423-4.9258c0-3.0806-3.629-4.6233-5.7514-2.4451" fill="url(#a)" mask="url(#e)"/>
</g>
<mask id="d" fill="white">
<use xlink:href="#b"/>
</mask>
<path d="m13.053 8.5169-7.1816-7.3708c-2.1224-2.1783-5.7517-0.63554-5.7517 2.4454v4.9254 0.04675 4.9257c0 3.0806 3.6293 4.6233 5.7517 2.4447l7.1816-7.3705h0.045231l-0.022616-0.023538 0.022616-0.023212h-0.045231z" fill="url(#a)" mask="url(#d)"/>
</g>
</g>
</g>
</g>
</svg>
