<?xml version="1.0" encoding="UTF-8"?>
<svg version="1.1" viewBox="0 0 64 45" xmlns="http://www.w3.org/2000/svg" xmlns:xlink="http://www.w3.org/1999/xlink">
<title>bow</title>
<desc>Created with Sketch.</desc>
<defs>
<polygon id="c" points="0.063934 0.3349 35.409 0.3349 35.409 44.878 0.063934 44.878"/>
<linearGradient id="a" x1="13.872%" x2="13.872%" y1="75.406%" y2="-25.477%">
<stop stop-color="#F01446" offset="0"/>
<stop stop-color="#9D2235" offset="1"/>
</linearGradient>
<polygon id="b" points="0.32739 0.3349 35.673 0.3349 35.673 44.878 0.32739 44.878"/>
</defs>
<g fill="none" fill-rule="evenodd">
<g transform="translate(-48 -301)">
<g transform="translate(48 301)">
<g transform="translate(27.759)">
<mask id="e" fill="white">
<use xlink:href="#c"/>
</mask>
<path d="m19.745 3.0339-19.558 19.511h-0.12318l0.061591 0.061442-0.061591 0.061442h0.12318l19.558 19.511c5.78 5.7661 15.663 1.6832 15.663-6.4713v-13.04-0.12288-13.039c0-8.1545-9.8832-12.238-15.663-6.4722" fill="url(#a)" mask="url(#e)"/>
</g>
<mask id="d" fill="white">
<use xlink:href="#b"/>
</mask>
<path d="m35.55 22.545-19.558-19.511c-5.78-5.7661-15.664-1.6823-15.664 6.4731v13.038 0.12375 13.039c0 8.1545 9.8841 12.238 15.664 6.4713l19.558-19.51h0.12318l-0.061591-0.062308 0.061591-0.061442h-0.12318z" fill="url(#a)" mask="url(#d)"/>
</g>
</g>
</g>
</svg>
