<?xml version="1.0" encoding="UTF-8"?>
<svg version="1.1" viewBox="0 0 564 183" xmlns="http://www.w3.org/2000/svg" xmlns:xlink="http://www.w3.org/1999/xlink">
<title>DISH | Google Icon</title>
<desc>Created with Sketch.</desc>
<defs>
<polygon id="a" points="0.2971 0.7592 27.53 0.7592 27.53 27.992 0.2971 27.992"/>
</defs>
<g fill="none" fill-rule="evenodd">
<polygon points="269.57 125.09 275.79 125.09 275.79 58.465 269.57 58.465" fill="#9E9E9E"/>
<g transform="translate(0 .551)">
<g transform="translate(536 36)">
<mask id="b" fill="white">
<use xlink:href="#a"/>
</mask>
<path d="m13.913 27.992c7.521 0 13.617-6.096 13.617-13.617 0-7.52-6.096-13.616-13.617-13.616-7.52 0-13.616 6.096-13.616 13.616 0 7.521 6.096 13.617 13.616 13.617" fill="#33A852" mask="url(#b)"/>
</g>
<path d="m509.06 109.38c15.04 0 27.232-12.192 27.232-27.232s-12.192-27.233-27.232-27.233-27.232 12.193-27.232 27.233 12.192 27.232 27.232 27.232" fill="#EA4435"/>
<path d="m509.06 182c17.547 0 31.771-14.224 31.771-31.771 0-17.546-14.224-31.771-31.771-31.771s-31.771 14.225-31.771 31.771c0 17.547 14.224 31.771 31.771 31.771" fill="#F9BC15"/>
<path d="m418.29 109.38c30.08 0 54.466-24.385 54.466-54.465s-24.386-54.465-54.466-54.465-54.465 24.385-54.465 54.465 24.385 54.465 54.465 54.465" fill="#4285F4"/>
<path d="m90.775 0.4492c-50.133 0-90.775 40.642-90.775 90.775 0 50.134 40.642 90.775 90.775 90.775 50.134 0 90.775-40.641 90.775-90.775 0-50.133-40.641-90.775-90.775-90.775" fill="#F01446"/>
<path d="m165.8 167.44l-0.186-2.975c-0.019-0.39-0.019-0.874-0.037-1.413h-0.056c-0.13 0.447-0.279 1.041-0.428 1.506l-0.91 2.808h-1.042l-0.91-2.882c-0.094-0.391-0.243-0.985-0.354-1.432h-0.056c0 0.465-0.018 0.949-0.037 1.413l-0.186 2.975h-0.966l0.371-5.058h1.506l0.874 2.474c0.112 0.39 0.205 0.762 0.335 1.282h0.019c0.129-0.465 0.241-0.892 0.353-1.263l0.874-2.493h1.45l0.39 5.058h-1.004zm-5.466-5.058v0.837h-1.617v4.221h-1.004v-4.221h-1.618v-0.837h4.239z" fill="#F01446"/>
<path d="m116.06 130.29c-2.816 11.573-12.952 20.152-25.046 20.223h-0.149c-12.095-0.071-22.23-8.65-25.047-20.223-0.282-1.158 0.442-2.487 1.802-1.727 8.294 4.821 17.193 6.09 23.319 6.1 6.126-0.01 15.024-1.279 23.319-6.1 1.361-0.76 2.084 0.569 1.802 1.727m-43.533-30.945c6.549 3.805 13.575 4.807 18.412 4.815 4.837-8e-3 11.863-1.01 18.412-4.815 1.074-0.601 1.645 0.448 1.422 1.363-2.223 9.137-10.226 15.911-19.775 15.967h-0.118c-9.549-0.056-17.551-6.83-19.775-15.967-0.223-0.915 0.349-1.964 1.422-1.363m5.227-24.904c4.69 2.725 9.722 3.443 13.185 3.449 3.464-6e-3 8.496-0.724 13.185-3.449 0.77-0.43 1.178 0.321 1.019 0.976-1.592 6.544-7.323 11.394-14.162 11.435h-0.084c-6.838-0.041-12.569-4.891-14.162-11.435-0.159-0.655 0.25-1.406 1.019-0.976m13.009-38.777c6.782 0 12.273 5.491 12.273 12.274 0 6.782-5.491 12.273-12.273 12.273-6.622 0-12.274-5.491-12.274-12.273 0-6.783 5.652-12.274 12.274-12.274" fill="#fff"/>
</g>
</g>
</svg>
