<?xml version="1.0" encoding="UTF-8"?>
<svg version="1.1" viewBox="0 0 24 23" xmlns="http://www.w3.org/2000/svg">
<title>Group 9</title>
<desc>Created with Sketch.</desc>
<g fill="none" fill-rule="evenodd">
<g transform="translate(-269 -163)" fill="#F01446">
<g transform="translate(269 163)">
<polygon points="11 23 13 23 13 0 11 0"/>
<polygon points="0 13 24 13 24 11 0 11"/>
<polygon points="4.1798 21 3 19.82 19.82 3 21 4.1798"/>
<polygon points="19.82 21 3 4.1798 4.1798 3 21 19.82"/>
<polygon points="8.5429 23 7 22.422 15.457 1 17 1.578"/>
<polygon points="22.422 17 1 8.5429 1.578 7 23 15.457"/>
<polygon points="1.6653 18 1 16.501 22.335 7 23 8.4997"/>
<polygon points="16.501 23 7 1.6653 8.4997 1 18 22.335"/>
</g>
</g>
</g>
</svg>
