<?xml version="1.0" encoding="UTF-8"?>
<svg width="104px" height="112px" viewBox="0 0 104 112" version="1.1" xmlns="http://www.w3.org/2000/svg" xmlns:xlink="http://www.w3.org/1999/xlink">
    <!-- Generator: Sketch 59.1 (86144) - https://sketch.com -->
    <title>donkey_blueberry</title>
    <desc>Created with Sketch.</desc>
    <defs>
        <polygon id="path-1" points="5.55260701e-05 0.153899281 103.935627 0.153899281 103.935627 111.194083 5.55260701e-05 111.194083"></polygon>
    </defs>
    <g id="Page-1" stroke="none" stroke-width="1" fill="none" fill-rule="evenodd">
        <g id="donkey_blueberry">
            <g id="Group-6">
                <g id="Group-3" transform="translate(0.000000, 0.651856)">
                    <mask id="mask-2" fill="white">
                        <use xlink:href="#path-1"></use>
                    </mask>
                    <g id="Clip-2"></g>
                    <path d="M100.313037,42.5485583 C99.8726625,42.3422849 99.4566625,42.1464863 99.0309125,41.8443281 C98.4686625,41.4438676 97.6724125,40.4447309 96.7510375,39.2892777 L96.2286,38.6350043 C95.4616,37.6793784 94.660475,36.9936806 94.075475,36.4933065 C93.873975,36.3216806 93.63185,36.1154072 93.5091625,35.9913209 C93.490475,35.9010763 93.4750375,35.7971338 93.4539125,35.6827165 C93.3076625,34.8648748 93.064725,33.4975079 91.9719125,32.1913784 C90.6784125,30.6443281 88.2441625,29.1190331 86.6337875,28.1102273 C86.0942875,27.7726158 85.661225,27.5083281 85.4475375,27.3383137 C85.4442875,27.3358964 85.1436625,27.0522705 85.358975,26.6638964 L85.45485,26.4995223 C85.859475,25.821882 86.805225,24.2345439 87.5616625,20.9865439 C88.1751,18.3533353 87.4796,13.1433209 86.8076625,9.53031367 C86.5265375,8.02193957 86.2372875,6.46199712 86.060975,5.07126331 C85.765225,2.71845755 84.3604125,2.53555108 83.9371,2.53555108 C83.0587875,2.53555108 82.0480375,3.17209784 81.84735,4.96006906 C81.5117875,7.95183885 80.288975,11.9499971 78.995475,14.621882 C78.38935,15.8724144 77.7759125,17.1382561 77.253475,18.466141 C77.1746625,17.3896518 77.139725,16.3228317 77.1047875,15.2680978 C76.96585,11.1007309 76.8236625,5.31701871 73.9929125,1.22539281 C73.51435,0.534054676 72.872475,0.153738129 72.1859125,0.153738129 C71.8495375,0.153738129 70.7201625,0.272989928 70.2960375,1.80553669 C70.2245375,2.06257266 70.0652875,2.65963741 69.849975,3.4726446 C69.0171625,6.60461583 67.0687875,15.4139396 66.3976625,17.1680691 C64.9757875,20.8817957 67.51485,26.8613065 68.2721,28.2592921 C68.4857875,28.6533065 68.30135,29.2592345 67.7781,29.8796662 C66.5341625,31.3550043 64.90835,33.9463137 63.4751,36.231436 C62.8080375,37.2950331 61.3691,39.7799827 60.85235,40.5510906 C63.7326625,50.4715511 63.310975,63.6400115 58.0346,68.1635223 C52.29185,73.0866878 34.2047875,73.1382561 28.0070375,69.1876374 C22.6380375,65.7647885 18.776225,53.779177 18.0181625,46.8311482 C13.31135,49.9752058 6.0581625,56.4188317 4.4096,62.1259971 C3.3606625,65.7623712 3.4955375,69.6598101 3.6141625,73.1003856 C3.7076,75.7746878 3.79535,78.3023424 3.2810375,80.0669468 C2.925975,81.2908892 2.474225,82.0418532 1.9956625,82.8355223 C1.5341625,83.6034072 1.0564125,84.3962705 0.699725,85.5388317 C-0.0258375,87.8682705 0.05785,90.3927022 0.1334125,92.6198101 C0.1846,94.1515511 0.2325375,95.5986878 0.0229125,96.7807309 C-0.096525,97.4495079 0.260975,98.1118388 0.888225,98.3857957 C1.51385,98.6621698 2.2491625,98.4728173 2.665975,97.9345727 L3.1429125,97.3205871 C6.0801,93.5544863 8.9912875,89.6087022 9.4982875,86.3993784 C9.919975,83.7355511 9.8631,81.1506878 9.8086625,78.6504288 C9.7924125,77.9445871 9.776975,77.2476086 9.773725,76.5627165 C10.7284125,79.6374791 11.496225,82.9201266 10.59435,85.7990906 C9.412975,89.5692201 10.4521625,91.6367885 10.8795375,92.4868604 C11.2240375,93.1798101 12.529725,96.5156374 12.6199125,100.172155 C12.6361625,100.865105 12.5386625,101.743378 12.4444125,102.592645 C12.259975,104.246055 12.126725,105.440184 12.6020375,106.303954 C12.9636,106.959839 13.61685,107.351436 14.3481,107.351436 C15.1337875,107.351436 15.8244125,106.910688 16.442725,106.451407 C16.4541,106.767263 16.4402875,107.168529 16.3785375,107.667292 C16.3297875,108.045191 16.237975,109.348904 17.1000375,110.320645 C17.6005375,110.883868 18.3187875,111.194083 19.1247875,111.194083 L27.8136625,111.194083 C28.7846,111.194083 29.7011,111.194083 30.3421625,110.438285 C30.9621,109.707465 30.7996,108.782458 30.745975,108.478688 C30.3551625,106.256414 28.8747875,103.545047 26.9767875,101.512932 C26.8207875,101.308271 26.6144125,100.970659 26.397475,100.622573 C26.0781625,100.109306 25.7401625,99.5775079 25.4817875,99.2552058 C24.4970375,98.0360978 23.9640375,94.2361554 23.9575375,91.9623137 C23.9559125,90.9857381 24.1704125,90.7037237 24.6920375,90.0212489 L24.9894125,89.6232058 C25.4427875,89.0237237 25.945725,88.5185151 26.5291,87.9343424 C27.69585,86.7643856 29.1486,85.3075799 30.80285,82.421364 C31.08235,81.9330763 31.1952875,81.9330763 31.269225,81.9330763 C31.37485,81.9330763 31.5739125,81.9564432 31.922475,82.0652201 C37.29635,83.7403856 41.5969125,84.4550906 46.303725,84.4550906 C49.7641625,84.4550906 53.5536625,84.0594647 58.2296,83.2101986 C58.3165375,83.1940835 58.3977875,83.1852201 58.53835,83.1755511 C58.5391625,83.1763568 58.64235,83.2786878 58.7390375,83.6783424 C58.8202875,84.0465727 58.8251625,85.5920115 58.829225,86.6137094 C58.8332875,87.6797237 58.8365375,88.6853065 58.8926,89.3452201 C59.0087875,90.7351482 59.4946625,92.2169324 59.7855375,93.1024576 C59.8667875,93.3522417 59.934225,93.5464288 59.9610375,93.6640691 C60.4290375,95.7864288 60.6922875,98.6226878 60.7036625,101.607206 C60.688225,101.740961 60.5557875,102.131753 60.4680375,102.3904 C60.1462875,103.340386 59.813975,104.323407 60.2047875,105.217796 C60.522475,105.942976 61.2074125,106.375666 62.036975,106.375666 C62.3091625,106.375666 62.5577875,106.332155 62.7836625,106.285422 C62.77635,106.402256 62.764975,106.520702 62.75685,106.606918 L62.7365375,106.833335 C62.6244125,108.286112 62.9526625,109.468961 63.6855375,110.252961 C64.246975,110.854055 65.0294125,111.186832 65.9995375,111.186832 L66.00685,111.186832 C66.5650375,111.166688 72.6197875,111.162659 73.6077875,111.187637 C74.4316625,111.187637 75.1336625,110.853249 75.5854125,110.246515 C76.3654125,109.196616 76.0851,107.764788 75.84785,107.005767 C75.254725,105.09935 73.801975,103.209047 73.1024125,102.29935 L72.9772875,102.136587 C72.8440375,101.961738 72.7189125,101.703896 72.54585,101.345335 C72.3922875,101.028673 72.2135375,100.659637 71.9697875,100.217278 C71.2515375,98.9079252 71.46035,97.0635511 71.66185,95.2804144 C71.7341625,94.6374216 71.8024125,94.0194072 71.829225,93.4521554 C71.8397875,93.2748892 71.9844125,92.6488173 72.0997875,92.1468317 C72.2785375,91.3733065 72.498725,90.4152633 72.6734125,89.3782561 C72.76035,88.8641842 72.9131,87.6039827 73.08535,86.1769899 C73.3217875,84.2173928 73.6451625,81.5358388 73.81985,80.7663424 C74.3504125,78.4296518 74.79485,75.4467453 74.9809125,72.9811338 L75.062975,71.8748317 C75.23685,69.5365295 75.37335,67.6897381 75.65935,66.6873784 C76.1281625,65.0428317 77.1811625,63.0195799 78.20085,61.0632058 C79.24085,59.0665439 80.3157875,57.0013928 80.9154125,55.1014216 C81.046225,54.6888748 81.1104125,54.6888748 81.30135,54.6888748 C81.4045375,54.6888748 81.5841,54.7033784 81.8546625,54.7734791 C82.8735375,55.0353496 84.292975,54.8443856 85.635225,54.6179683 C86.8645375,54.411695 88.212475,54.2344288 88.8584125,54.4471482 C89.782225,54.7565583 90.5792875,55.2939971 91.423475,55.8620547 C91.819975,56.1287597 92.2189125,56.3970763 92.6365375,56.6500835 C93.39135,57.1045295 94.1689125,57.3357813 94.94485,57.3357813 C95.9840375,57.3357813 96.77135,56.9320978 97.292975,56.6645871 C97.3522875,56.6339683 97.40835,56.6041554 97.4611625,56.5775655 C98.6994125,56.7379108 99.9279125,56.0965295 100.45035,55.017623 C100.50885,54.8943424 100.558413,54.7694504 100.597412,54.642141 C101.255538,54.4962993 101.70485,54.1723856 101.9876,53.8895655 C102.56285,53.3126446 102.870788,52.5085007 102.905725,51.4956662 C102.944725,51.397364 102.996725,51.2813353 103.052787,51.1491914 C103.580912,49.9115511 104.679412,47.3355511 103.1706,44.8876662 C102.302037,43.481623 101.245788,42.9860835 100.313037,42.5485583" id="Fill-1" fill="#00A3E0" mask="url(#mask-2)"></path>
                </g>
                <path d="M38.6630562,53.5036892 L40.2661188,47.3952576 L43.0716812,53.3771856 L50.2038062,53.171718 L44.8071812,57.0747971 L47.6127437,63.0567252 L41.4694312,59.486423 L36.0711813,63.3878906 L37.6742438,57.279459 L31.5309313,53.7083511 L38.6630562,53.5036892 Z M30.3121813,66.4449266 C35.5853063,69.8339338 50.2850562,69.6131568 55.1714312,65.3909986 C59.3241187,61.8029698 59.6653687,49.6408978 57.2108063,42.6509698 C56.4746813,42.9273439 55.6792437,43.1118619 54.8439938,43.1215309 C52.7509937,43.1489266 51.2267437,43.4535022 49.7528688,43.7484086 C48.1538688,44.0682935 46.6434313,44.369646 44.3172438,44.369646 C42.9270562,44.369646 41.3946813,44.2608691 39.6331813,44.0376748 C37.6945562,43.7911137 35.7729937,43.6670273 33.9253687,43.6670273 C28.4003687,43.6670273 24.2753062,44.7459338 21.3974313,45.9223367 C22.1920563,53.0677755 25.6711813,63.4628259 30.3121813,66.4449266 L30.3121813,66.4449266 Z" id="Fill-4" fill="#FFFFFF"></path>
            </g>
        </g>
    </g>
</svg>