<?xml version="1.0" encoding="UTF-8"?>
<svg width="124px" height="92px" viewBox="0 0 124 92" version="1.1" xmlns="http://www.w3.org/2000/svg" xmlns:xlink="http://www.w3.org/1999/xlink">
    <!-- Generator: Sketch 59.1 (86144) - https://sketch.com -->
    <title>Elephant_blueberry</title>
    <desc>Created with Sketch.</desc>
    <defs>
        <polygon id="path-1" points="0 0.354953204 123.568 0.354953204 123.568 91.2136752 0 91.2136752"></polygon>
    </defs>
    <g id="Page-1" stroke="none" stroke-width="1" fill="none" fill-rule="evenodd">
        <g id="Elephant_blueberry">
            <g id="Group-6" transform="translate(62.000000, 46.000000) scale(-1, 1) translate(-62.000000, -46.000000) ">
                <g id="Group-3" transform="translate(0.000000, 0.431692)">
                    <mask id="mask-2" fill="white">
                        <use xlink:href="#path-1"></use>
                    </mask>
                    <g id="Clip-2"></g>
                    <path d="M122.03624,13.7216034 C121.70104,13.6020821 121.38584,13.546253 121.07224,13.5509709 C120.03224,13.5635521 119.41464,14.216988 118.96104,14.6942872 C118.54264,15.1354154 118.10904,15.5906974 117.19784,15.9453299 C111.76664,18.0597573 110.55944,22.3546632 109.67944,25.4905265 C109.35384,26.6511419 109.04744,27.7464923 108.59704,28.4785607 C108.17224,29.1728855 107.59624,29.3238598 107.19064,29.3293641 C106.54024,29.3380137 105.91144,28.9747316 105.65944,28.4463214 L105.59464,28.3126462 C105.04744,27.1543897 103.90984,24.7450906 103.64744,22.557535 C103.58744,22.0464239 103.61064,21.5439624 103.63864,20.964441 C103.68344,19.9831077 103.73624,18.8712444 103.40664,17.3929538 C102.54824,13.5635521 98.98664,6.24129573 91.07384,3.08105641 C89.04824,2.27271453 85.94504,2.22632137 82.34184,3.04095385 C82.08984,3.04409915 81.74104,2.88368889 81.35784,2.58960342 C79.93544,1.49661197 78.14984,0.47045812 74.73864,0.361158974 C71.57224,0.255791453 69.15144,1.51076581 66.81784,2.71227009 C64.82184,3.74078291 62.93464,4.71268034 60.70424,4.74177436 C59.82664,4.75278291 58.94104,4.61989402 58.00104,4.33681709 L57.78904,4.27155214 C56.84424,3.97589402 55.74904,3.97353504 55.20664,4.71975726 C54.64184,5.49428718 54.95464,6.43001368 55.08584,6.83025299 C55.87704,9.19944957 59.07784,10.2916547 61.21944,13.5383897 C66.48984,21.5384581 65.44824,35.5193128 59.17304,41.7737402 C53.43384,47.4887487 36.98184,49.5237573 28.70024,44.705159 C24.37064,42.1842017 18.52184,31.5680308 16.49384,25.6721675 C14.45064,27.7040308 8.29944,33.8420821 6.53144,37.9270393 C3.77704,44.2931248 3.40264,48.5801675 3.03944,52.7256718 C2.91384,54.1544239 2.79544,55.5045436 2.58264,56.9285778 C2.52184,57.3256718 2.19304,57.9319282 1.84584,58.5735692 C1.09464,59.9606462 0.06664,61.8596205 0.00184,64.5354838 C-0.02136,65.4735692 0.16264,66.8339111 0.37704,68.409706 C0.68824,70.7254325 1.07864,73.6065265 0.81864,75.5117915 C0.72024,76.2367829 1.20264,76.9145949 1.92904,77.0718598 C2.66264,77.2322701 3.38584,76.8123726 3.60504,76.1141162 C3.94184,75.0392103 4.77784,73.5963043 5.66344,72.0669026 C7.27864,69.2793812 9.10744,66.1199282 9.46824,62.855894 C9.69144,60.8358256 9.37304,59.2403726 9.11624,57.9586632 C8.99384,57.3476889 8.88744,56.8184923 8.87384,56.3907316 C8.85384,55.8442359 8.87144,55.2796547 8.92264,54.7009197 C9.09624,55.6743897 9.32824,56.6494325 9.62024,57.643347 C10.60984,61.0033128 11.97784,63.2647829 13.18424,65.2596889 C14.40424,67.2758256 15.55384,69.1803043 16.22904,72.0370222 C16.80104,74.4565436 16.25864,78.130253 16.05464,79.5133983 L16.02104,79.7414325 C15.60344,82.6185949 15.70264,86.4605778 17.23304,88.615894 C18.71784,90.7083043 22.53864,90.797159 25.06504,90.8545607 C25.56984,90.8663556 26.19704,90.8805094 26.37224,90.9143214 C28.14424,91.2673812 30.17784,91.1486462 31.67624,90.9827316 C32.18984,90.9245436 32.65704,90.8695009 33.07704,90.8639966 L33.29144,90.8632103 C35.51704,90.8349026 37.81464,89.5752103 37.80904,87.516612 C37.80344,85.8904923 36.93144,84.5372274 36.22984,83.4505265 C35.94184,83.0054667 35.67064,82.5863556 35.53064,82.2576718 C34.67624,80.2210906 34.66424,78.1491248 35.51704,74.8001675 C36.43064,71.1870051 37.00104,69.8188 39.35224,69.7889197 C39.63384,69.7857744 39.93864,69.8022872 40.26584,69.8392444 L41.71704,70.0098769 C43.84664,70.2654325 45.68344,70.4856034 47.90264,70.4572957 C49.13224,70.4415692 50.42344,70.3495692 51.84424,70.1773641 C56.89464,69.5624581 61.51544,66.7670735 63.81864,65.155894 C63.94104,65.068612 64.04744,64.9986291 64.13704,64.9412274 C64.40504,66.0326462 65.02824,67.6493299 65.74744,69.5058427 C66.64744,71.8372957 67.66744,74.4809197 67.92424,76.016612 C68.20984,77.7347316 67.88584,79.757159 67.57544,81.7127487 C67.16424,84.294253 66.77864,86.7310735 67.80424,88.5254667 C69.06744,90.7405436 71.70664,90.9638598 73.58184,90.9410564 C74.18824,90.9324068 74.78904,90.8962359 75.34584,90.8624239 C75.78664,90.8349026 76.20104,90.8081675 76.56104,90.8042359 C77.01944,90.7979453 77.16264,90.8341162 77.17704,90.8380479 C78.09624,91.0951761 79.09064,91.2249197 80.06104,91.213863 C81.60664,91.1926803 82.97624,90.826253 83.98824,90.1728171 C84.11464,90.1106974 84.56104,90.0124068 84.85464,89.9463556 C86.18584,89.6499111 88.19784,89.199347 88.71224,87.3711419 C89.16744,85.7465949 88.00184,82.6146632 85.60664,80.6535692 C84.29304,79.1178769 83.40984,77.1229709 83.34264,75.5400991 C83.23624,73.0450906 83.43224,70.0877231 83.62184,67.2255009 C83.85624,63.7106291 84.09704,60.0762359 83.78504,57.1802017 C83.73704,56.7430051 83.67784,56.263347 83.61704,55.7483043 C83.06904,51.2135692 82.15224,43.6231761 85.86104,40.8576718 C86.22424,40.5926803 87.43224,41.3231761 88.36264,41.8869709 C89.55864,42.6143214 90.79704,43.3660479 92.10584,43.349535 C92.46024,43.3448171 92.80104,43.2834838 93.11944,43.1663214 C94.01784,42.8368513 94.29704,42.1519624 94.33064,41.4010222 C97.62024,43.9337744 100.95784,44.8718598 103.15704,44.8435521 L104.17784,44.8089538 C107.54344,44.6996547 110.71944,44.5950735 114.09464,41.0314496 C116.69464,38.2840308 117.34904,33.7084068 117.87704,30.0315521 C118.10104,28.4589026 118.43064,26.1565436 118.86664,25.4252615 C119.14024,25.7044068 119.66024,26.1809197 120.49304,26.1706974 C120.67544,26.1683385 120.86264,26.1408171 121.04984,26.089706 C123.47304,25.4213299 123.35784,21.8592786 123.07624,19.8329197 C123.07064,19.6552103 123.18584,19.0733299 123.26024,18.6888171 C123.59304,17.0037231 124.09944,14.4560308 122.03624,13.7216034" id="Fill-1" fill="#FF6A13" mask="url(#mask-2)"></path>
                </g>
                <path d="M38.6948,24.1121778 L40.0428,16.7097162 L43.478,23.2849641 L51.2116,21.9474256 L45.5996,27.3502632 L49.0348,33.9247248 L42.1308,30.6874256 L36.5148,36.0902632 L37.862,28.6878017 L30.9588,25.4505026 L38.6948,24.1121778 Z M30.6164,40.9914256 C37.8532,45.3641778 51.2844,43.8646564 56.2908,38.6985026 C61.4116,33.4096821 62.1332,21.0698872 57.342,13.2333744 C56.7268,13.1602462 56.1844,13.0973402 55.8356,13.0619556 C53.0284,12.774947 49.8476,12.4509812 46.4772,12.4934427 C42.2956,12.5461265 38.5132,13.1586735 34.9076,14.3664684 C26.8692,17.0612034 22.8052,20.2190838 19.8644,23.0231179 C22.0532,28.935494 26.982,38.7967932 30.6164,40.9914256 L30.6164,40.9914256 Z" id="Fill-4" fill="#FFFFFF"></path>
            </g>
        </g>
    </g>
</svg>