<?xml version="1.0" encoding="UTF-8"?>
<svg width="48px" height="13px" viewBox="0 0 48 13" version="1.1" xmlns="http://www.w3.org/2000/svg" xmlns:xlink="http://www.w3.org/1999/xlink">
    <title>Logos/Enterprise/OnTech/OnTech+ Copy</title>
    <g id="DCO" stroke="none" stroke-width="1" fill="none" fill-rule="evenodd">
        <g id="Logos-/-zz-build-/-Company-/-OnTech-/-OnTech+-/-Water-and-Midnight" transform="translate(-17.000000, 0.000000)">
            <path d="M62.7010535,0.628107438 C62.9097162,0.628107438 63.0773908,0.797528926 63.0773908,1.00827273 L63.0773908,2.53306612 L64.5868716,2.53306612 C64.7954525,2.53306612 64.9632089,2.7024876 64.9632089,2.9132314 C64.9632089,3.12397521 64.7954525,3.29339669 64.5868716,3.29339669 L63.0773908,3.29339669 L63.0773908,4.81819008 C63.0773908,5.02893388 62.9097162,5.19835537 62.7010535,5.19835537 C62.4924317,5.19835537 62.3247571,5.02893388 62.3247571,4.81819008 L62.3247571,3.30166116 L60.8152763,3.30166116 C60.6066954,3.30166116 60.438939,3.13223967 60.438939,2.92149587 C60.438939,2.71075207 60.6066954,2.54133058 60.8152763,2.54133058 L62.3247571,2.54133058 L62.3247571,1.00827273 C62.3206256,0.797528926 62.4924317,0.628107438 62.7010535,0.628107438" id="Fill-6" fill="#0015EA"></path>
            <path d="M61.0975579,12.1157107 L61.0811954,11.8264545 C61.0811954,11.7892645 61.0811954,11.7396364 61.0771048,11.6900909 L61.0729733,11.6900909 C61.0607423,11.7355455 61.0443389,11.7933967 61.032067,11.834719 L60.9462048,12.1074463 L60.8439393,12.1074463 L60.7579953,11.8264545 C60.7498549,11.7892645 60.7334924,11.7314132 60.7252703,11.6859587 L60.7212206,11.6859587 C60.7212206,11.7314132 60.7212206,11.7768678 60.717089,11.822281 L60.7007675,12.1115372 L60.6066831,12.1115372 L60.6434578,11.619843 L60.7866296,11.619843 L60.8725736,11.8595124 C60.8848455,11.8967025 60.8930267,11.9338926 60.9052986,11.9834793 C60.9175705,11.9380248 60.9298014,11.8967025 60.9380236,11.8595124 L61.0238858,11.6156694 L61.1630079,11.6156694 L61.1998235,12.1074463 L61.0975579,12.1074463 L61.0975579,12.1157107 Z M60.5698675,11.6239752 L60.5698675,11.7066198 L60.4144239,11.7066198 L60.4144239,12.1157107 L60.316208,12.1157107 L60.316208,11.7066198 L60.1608052,11.7066198 L60.1608052,11.6239752 L60.5698675,11.6239752 Z M32.0050469,5.33885124 C31.2032848,5.33885124 30.5896913,5.67769421 30.1847196,6.23141322 L30.1847196,5.55372727 C30.1847196,5.4917438 30.1356322,5.44215702 30.0742728,5.44215702 L28.5607423,5.44215702 C28.4993829,5.44215702 28.4502546,5.4917438 28.4502546,5.55372727 L28.4502546,12.0041405 C28.4502546,12.066124 28.4993829,12.1157107 28.5607423,12.1157107 L30.0742728,12.1157107 C30.1356322,12.1157107 30.1847196,12.066124 30.1847196,12.0041405 L30.1847196,8.15703306 C30.1847196,7.28513223 30.8023628,6.80166116 31.5468971,6.80166116 C32.2913905,6.80166116 32.8763496,7.26447107 32.8763496,8.39670248 L32.8763496,12.0041405 C32.8763496,12.066124 32.9254371,12.1157107 32.9867964,12.1157107 L34.5003269,12.1157107 C34.5616863,12.1157107 34.6107845,12.066124 34.6107845,12.0041405 L34.6107845,8.29339669 C34.6148644,6.25207438 33.4530865,5.33885124 32.0050469,5.33885124 L32.0050469,5.33885124 Z M57.2155566,5.33885124 C56.4137945,5.33885124 55.8002011,5.67769421 55.3952294,6.23141322 L55.3952294,3.00827273 C55.3952294,2.94628926 55.346101,2.89670248 55.2847417,2.89670248 L53.7712111,2.89670248 C53.7098518,2.89670248 53.6607643,2.94628926 53.6607643,3.00827273 L53.6607643,12.0041405 C53.6607643,12.066124 53.7098518,12.1157107 53.7712111,12.1157107 L55.2847417,12.1157107 C55.346101,12.1157107 55.3952294,12.066124 55.3952294,12.0041405 L55.3952294,8.15703306 C55.3952294,7.28513223 56.0128726,6.80166116 56.757366,6.80166116 C57.5019003,6.80166116 58.0868184,7.26447107 58.0868184,8.39670248 L58.0868184,12.0041405 C58.0868184,12.066124 58.1359468,12.1157107 58.1973062,12.1157107 L59.7108367,12.1157107 C59.772196,12.1157107 59.8212835,12.066124 59.8212835,12.0041405 L59.8212835,8.29339669 C59.8212835,6.25207438 58.6595057,5.33885124 57.2155566,5.33885124 L57.2155566,5.33885124 Z M36.2715667,4.63223967 L33.7271583,4.63223967 C33.6576177,4.63223967 33.6044396,4.57852066 33.6044396,4.50827273 L33.6044396,3.02893388 C33.6044396,2.95868595 33.6576177,2.90496694 33.7271583,2.90496694 L40.7548486,2.90496694 C40.8243892,2.90496694 40.8775673,2.95868595 40.8775673,3.02893388 L40.8775673,4.50827273 C40.8775673,4.57852066 40.8243892,4.63223967 40.7548486,4.63223967 L38.2268436,4.63223967 L38.2268436,11.9917438 C38.2268436,12.0619917 38.1737064,12.1157107 38.1041249,12.1157107 L36.3942854,12.1157107 C36.3247039,12.1157107 36.2715667,12.0619917 36.2715667,11.9917438 L36.2715667,4.63223967 Z M22.6252483,4.4917438 C20.9439613,4.4917438 19.8640777,5.78926446 19.8640777,7.51653719 C19.8640777,9.22728099 20.9439613,10.5412893 22.6252483,10.5412893 C24.3064943,10.5412893 25.3986907,9.23141322 25.3986907,7.51653719 C25.3986907,5.78926446 24.3064943,4.4917438 22.6252483,4.4917438 L22.6252483,4.4917438 Z M22.6252483,2.75207438 C25.3864188,2.75207438 27.3949147,4.73967769 27.3949147,7.51653719 C27.3949147,10.2933554 25.3864188,12.281 22.6252483,12.281 C19.8763496,12.281 17.8678537,10.2933554 17.8678537,7.51653719 C17.8678537,4.73967769 19.8763496,2.75207438 22.6252483,2.75207438 L22.6252483,2.75207438 Z M50.4251224,5.281 C51.7136687,5.281 52.5153899,5.81819008 52.9694899,6.40496694 C53.0103962,6.45455372 53.0022149,6.52893388 52.9572181,6.5702562 L52.004062,7.46281818 C51.9508839,7.51240496 51.8690714,7.5041405 51.8241155,7.45042149 C51.5091375,7.06199174 51.0632187,6.83885124 50.5109846,6.83885124 C49.4597354,6.83885124 48.7192917,7.61157851 48.7192917,8.77273554 C48.7192917,9.93389256 49.4556038,10.7190165 50.5109846,10.7190165 C51.0632187,10.7190165 51.5131872,10.4876116 51.8241155,10.107405 C51.8690714,10.0537273 51.9508839,10.0454215 52.004062,10.0950496 L52.9613087,10.9917438 C53.0062646,11.037157 53.0144459,11.1074463 52.9735396,11.1570331 C52.5277026,11.7355455 51.7341218,12.2686033 50.4742099,12.281 C48.5474855,12.3016612 46.9398707,10.7479008 46.9276397,8.80166116 C46.9112363,6.74380992 48.3757203,5.281 50.4251224,5.281 L50.4251224,5.281 Z M41.5525201,8.15290083 L44.8045654,8.15290083 C44.7636592,7.51653719 44.3260035,6.67356198 43.1764975,6.67356198 C42.0966139,6.67356198 41.6343326,7.4917438 41.5525201,8.15290083 L41.5525201,8.15290083 Z M43.1764975,5.281 C45.1441281,5.281 46.4858524,6.77273554 46.4858524,8.95455372 L46.4858524,9.21897521 C46.4858524,9.28926446 46.4326743,9.34294215 46.3631337,9.34294215 L41.5771048,9.34294215 C41.6875516,10.1859587 42.3583729,10.888438 43.4792445,10.888438 C44.0478002,10.888438 44.7104811,10.673562 45.1441281,10.3140165 C45.1973062,10.2686033 45.2831683,10.281 45.3240746,10.3388512 L45.9499399,11.2644298 C45.9867964,11.3181901 45.9745245,11.3883967 45.9254371,11.429719 C45.254534,12.0000083 44.2727845,12.281 43.2869852,12.281 C41.2784893,12.281 39.7608272,10.9131901 39.7608272,8.77273554 C39.7608272,6.84298347 41.1680425,5.281 43.1764975,5.281 L43.1764975,5.281 Z" id="Fill-4" fill="#000010"></path>
            <path d="M9.46570988,10.7355289 C9.23663499,11.6901157 8.41032914,12.396686 7.42448899,12.4008182 L7.41221712,12.4008182 C6.42637697,12.396686 5.60007111,11.6901157 5.37099622,10.7355289 C5.34645249,10.6404876 5.40781183,10.5289174 5.51825865,10.5950744 C6.19321145,10.9917273 6.92134235,11.0950331 7.42039836,11.0991653 C7.91945437,11.0991653 8.64349465,10.9917273 9.32253807,10.5950744 C9.42889427,10.5289174 9.486163,10.6404876 9.46570988,10.7355289 M5.91504909,8.18594215 C6.4509207,8.49999174 7.02360793,8.58263636 7.41630774,8.58263636 C7.80900755,8.58263636 8.38169478,8.49999174 8.91756639,8.18594215 C9.00346948,8.13639669 9.05255695,8.22313223 9.03210384,8.2975124 C8.85211643,9.04957851 8.19761674,9.60742975 7.42039836,9.61156198 L7.41221712,9.61156198 C6.63499874,9.60742975 5.98049906,9.04957851 5.80051164,8.2975124 C5.78005853,8.22313223 5.829146,8.13639669 5.91504909,8.18594215 M6.34047388,6.13635537 C6.72090183,6.35949587 7.13405475,6.42147934 7.41630774,6.42147934 C7.69856073,6.42147934 8.10762303,6.3636281 8.4921416,6.13635537 C8.55350094,6.09916529 8.58622593,6.16114876 8.57395406,6.21486777 C8.44305412,6.75205785 7.9767231,7.1528843 7.42039836,7.15701653 L7.41221712,7.15701653 C6.85589239,7.1528843 6.38956136,6.75619008 6.25866142,6.21486777 C6.24638955,6.16114876 6.27911454,6.09916529 6.34047388,6.13635537 M7.39994525,2.9421405 C7.95217936,2.9421405 8.40214789,3.39255372 8.40214789,3.95453719 C8.40214789,4.51238843 7.95626998,4.96693388 7.39994525,4.96693388 C6.85998301,4.96693388 6.39774261,4.51652066 6.39774261,3.95453719 C6.40183323,3.39255372 6.85998301,2.9421405 7.39994525,2.9421405 M7.39994525,0.0413140496 C3.31341284,0.0413140496 8.18124607e-06,3.38842149 8.18124607e-06,7.51652066 C8.18124607e-06,11.6446198 3.31341284,14.9917273 7.39994525,14.9917273 C11.4864777,14.9917273 14.7998823,11.6446198 14.7998823,7.51652066 C14.7998823,3.38842149 11.4905683,0.0413140496 7.39994525,0.0413140496" id="Fill-1" fill="#0015EA"></path>
        </g>
    </g>
</svg>