<svg xmlns="http://www.w3.org/2000/svg" viewBox="0 0 201.47 201.2"><defs><style>.cls-1{fill:#fff;}</style></defs><title>snowflake-medium-1</title><g id="Layer_2" data-name="Layer 2"><g id="Graphic"><path class="cls-1" d="M201.26,102c0-.16.09-.31.12-.47a3.86,3.86,0,0,0,.06-.49,3.71,3.71,0,0,0,0-.47,3.87,3.87,0,0,0,0-.48,3.93,3.93,0,0,0-.06-.48c0-.16-.08-.31-.12-.47s-.09-.3-.15-.45a4.52,4.52,0,0,0-.25-.49,2.59,2.59,0,0,0-.14-.29l-.07-.09c-.1-.15-.22-.29-.34-.44l-.29-.34c-.11-.11-.23-.2-.35-.3a4.58,4.58,0,0,0-.43-.34.71.71,0,0,1-.09-.07L160.32,72,186,57.13a5,5,0,1,0-5-8.66L155.49,63.22l-.79-46.89c0-.06,0-.12,0-.19a5.06,5.06,0,0,0-.06-.53c0-.15-.05-.31-.09-.46a3.81,3.81,0,0,0-.15-.44,5.49,5.49,0,0,0-.21-.51s0-.12-.07-.17-.1-.13-.14-.2a2.77,2.77,0,0,0-.31-.45,3.37,3.37,0,0,0-.29-.35l-.35-.35-.37-.3-.41-.26c-.13-.08-.27-.15-.41-.22a3.66,3.66,0,0,0-.46-.18,3,3,0,0,0-.45-.14,3.4,3.4,0,0,0-.46-.09l-.52-.06-.23,0h-.08l-.18,0a5,5,0,0,0-.54.07,3.89,3.89,0,0,0-.47.09,3.81,3.81,0,0,0-.44.15,4.4,4.4,0,0,0-.5.21l-.17.07L105.74,34.59V5a5,5,0,0,0-10,0V34.93L56.37,15.39a4.65,4.65,0,0,0-1-.37,5,5,0,0,0-2-.12c-.21,0-.41.09-.62.14s-.21,0-.32.08a5.45,5.45,0,0,0-.55.25,3.31,3.31,0,0,0-.33.15c-.15.09-.28.19-.42.29a4.61,4.61,0,0,0-.38.28c-.12.11-.23.24-.35.37s-.22.21-.31.33a5.16,5.16,0,0,0-.88,1.77,4.57,4.57,0,0,0-.16,1h0v0L46.36,63.43l-25.91-15a5,5,0,0,0-5,8.66L41.16,72,2.33,96.36l-.09.07c-.15.1-.3.23-.44.34a3.31,3.31,0,0,0-.34.3c-.11.11-.2.23-.3.34s-.24.29-.34.44l-.07.09c-.05.09-.09.19-.14.29a4.44,4.44,0,0,0-.24.49,4,4,0,0,0-.15.45,4.12,4.12,0,0,0-.13.47c0,.16,0,.32-.06.48a3.87,3.87,0,0,0,0,.48,3.71,3.71,0,0,0,0,.47c0,.17,0,.33.06.49a4.12,4.12,0,0,0,.13.47,4,4,0,0,0,.15.45,4.44,4.44,0,0,0,.24.49c.05.1.09.2.14.29l.09.12.14.19a5.55,5.55,0,0,0,.49.58.6.6,0,0,1,.08.08,4.65,4.65,0,0,0,.71.55s0,0,.07,0l38.83,24.39L15.45,144.07a5,5,0,1,0,5,8.66L45.94,138l.51,48a2,2,0,0,0,0,.24,4.6,4.6,0,0,0,.06.52,4.1,4.1,0,0,0,.1.48c0,.15.09.29.14.44a4.46,4.46,0,0,0,.22.5,2,2,0,0,0,.09.22l.16.24.14.21a4.78,4.78,0,0,0,.54.65h0a4.7,4.7,0,0,0,.65.53l.18.12a4.42,4.42,0,0,0,.68.36l.09,0a4.47,4.47,0,0,0,.81.25l.22,0a5.27,5.27,0,0,0,.89.09h.09a4.91,4.91,0,0,0,.85-.09l.18,0a5.08,5.08,0,0,0,.81-.26l.18-.09.33-.16,41.84-23.56V196.2a5,5,0,0,0,10,0V166.54l40.68,21.68.17.07.19.09a4.18,4.18,0,0,0,.82.28h0a5.53,5.53,0,0,0,.91.12h.24a4.94,4.94,0,0,0,.87-.08l.24-.05a4.33,4.33,0,0,0,.7-.21l.12,0a5.22,5.22,0,0,0,.74-.39l.18-.12c.18-.13.36-.28.53-.43l.14-.12a5,5,0,0,0,.55-.65l.08-.13c.09-.14.19-.27.27-.42a.59.59,0,0,1,.06-.14,5.38,5.38,0,0,0,.2-.51,3.52,3.52,0,0,0,.15-.42c0-.16.06-.31.09-.47a4.34,4.34,0,0,0,.07-.52s0-.08,0-.13l1.57-46.07L181,152.73a5,5,0,1,0,5-8.66l-25.71-14.85,38.83-24.39.06,0a4.65,4.65,0,0,0,.71-.55.6.6,0,0,1,.08-.08,5.63,5.63,0,0,0,.5-.58l.13-.19.09-.12a2.59,2.59,0,0,0,.14-.29,4.52,4.52,0,0,0,.25-.49C201.17,102.33,201.21,102.18,201.26,102ZM144.84,24.74l.74,44.19-39.84,23V46Zm-86.2,2.94,37.1,18.41V91.94L56,69ZM14.39,100.6,51,77.63l39.78,23L51,123.57Zm42,76.86-.48-45.19,39.86-23v46Zm87.69-1.84-38.31-20.41V109.26l39.79,23Zm-33.31-75,39.78-23,36.57,23-36.57,23Z"/></g></g></svg>