<?xml version="1.0" encoding="UTF-8"?>
<svg enable-background="new 0 0 56 54" version="1.1" viewBox="0 0 56 54" xml:space="preserve" xmlns="http://www.w3.org/2000/svg">
<style type="text/css">
	.st0{fill-rule:evenodd;clip-rule:evenodd;fill:#BD8037;}
</style>
<title>Group 9</title>
<desc>Created with Sketch.</desc>
	<g transform="translate(-16 -12)">
		<g transform="translate(16 12)">
			<polygon class="st0" points="26 54 30 54 30 0 26 0"/>
			<polygon class="st0" points="0 30 56 30 56 26 0 26"/>
			<polygon class="st0" points="8.7 47 6 44.3 44.3 6 47 8.7"/>
			<polygon class="st0" points="44.3 47 6 8.7 8.7 6 47 44.3"/>
			<polygon class="st0" points="18.7 54 15 52.6 35.3 2 39 3.4"/>
			<polygon class="st0" points="52.6 39 0 18.7 1.4 15 54 35.3"/>
			<polygon class="st0" points="3.6 41 2 37.5 52.4 15 54 18.5"/>
			<polygon class="st0" points="37.5 54 15 3.6 18.5 2 41 52.4"/>
		</g>
	</g>
</svg>
