<?xml version="1.0" encoding="UTF-8"?>
<svg version="1.1" viewBox="0 0 56 54" xmlns="http://www.w3.org/2000/svg">
<title>Group 9</title>
<desc>Created with Sketch.</desc>
<g fill="none" fill-rule="evenodd">
<g transform="translate(-16 -12)" fill="#F01446">
<g transform="translate(16 12)">
<polygon points="26 54 30 54 30 0 26 0"/>
<polygon points="0 30 56 30 56 26 0 26"/>
<polygon points="8.6873 47 6 44.313 44.313 6 47 8.6873"/>
<polygon points="44.313 47 6 8.6873 8.6873 6 47 44.313"/>
<polygon points="18.703 54 15 52.634 35.297 2 39 3.3662"/>
<polygon points="52.581 39 0 18.703 1.4188 15 54 35.297"/>
<polygon points="3.5726 41 2 37.456 52.427 15 54 18.545"/>
<polygon points="37.456 54 15 3.5725 18.545 2 41 52.427"/>
</g>
</g>
</g>
</svg>
