<?xml version="1.0" encoding="UTF-8"?>
<svg width="29px" height="29px" viewBox="0 0 29 29" version="1.1" xmlns="http://www.w3.org/2000/svg" xmlns:xlink="http://www.w3.org/1999/xlink">
    <!-- Generator: Sketch 59.1 (86144) - https://sketch.com -->
    <title>ontech-logo-beacon-white</title>
    <desc>Created with Sketch.</desc>
    <g id="Page-1" stroke="none" stroke-width="1" fill="none" fill-rule="evenodd">
        <g id="ONTECH_25257_New_Years_Campaign_DCO_160x600_Frame-2" transform="translate(-8.000000, -32.000000)" fill="#FFFFFF" fill-rule="nonzero">
            <g id="ontech-logo-beacon-white" transform="translate(7.500000, 32.000000)">
                <path d="M15,0 C23.0081289,0 29.5,6.49187113 29.5,14.5 C29.5,22.5081289 23.0081289,29 15,29 C6.99187113,29 0.5,22.5081289 0.5,14.5 C0.5,6.49187113 6.99187113,0 15,0 Z M18.9959713,20.7383155 C19.0406725,20.5540473 18.9257265,20.3426573 18.7094044,20.4639074 C17.3899196,21.2304952 15.9746466,21.4323129 15,21.4339083 C14.0253534,21.4323129 12.6100804,21.2304952 11.2905956,20.4639074 C11.0742735,20.3426573 10.9593275,20.5540473 11.0040287,20.7383155 C11.4518393,22.5778072 13.0642768,23.9418709 14.9880264,23.9530387 L14.9880264,23.9530387 L15.0119736,23.9530387 C16.9357232,23.9418709 18.5481607,22.5778072 18.9959713,20.7383155 Z M18.1969498,16.0287608 C18.2320927,15.8817125 18.1410406,15.7137718 17.9701182,15.8101971 C16.9278113,16.4200864 15.8096275,16.5799915 15.0396782,16.5815985 C14.2697288,16.5799915 13.1515451,16.4192828 12.1092381,15.8101971 C11.9383157,15.7137718 11.8480623,15.8817125 11.8832053,16.0287608 C12.2370305,17.492013 13.5109613,18.5767964 15.0308925,18.5856354 L15.0308925,18.5856354 L15.0492626,18.5856354 C16.5691938,18.5767964 17.8431245,17.492013 18.1969498,16.0287608 Z M12.925263,11.796543 C12.8021562,11.7276296 12.7361773,11.8478274 12.7627298,11.9528002 C13.0177943,12.9977198 13.9366705,13.772595 15.0333677,13.7790055 L15.0333677,13.7790055 L15.0470463,13.7790055 C16.1437434,13.772595 17.0626196,12.9977198 17.3176842,11.9528002 C17.343432,11.8478274 17.2774532,11.7276296 17.1543463,11.796543 C16.4020265,12.2316591 15.5949925,12.3462477 15.0398047,12.347049 C14.4838122,12.3462477 13.6775828,12.2316591 12.925263,11.796543 Z M14.9599448,5.60773481 C13.9015593,5.60773481 12.9972376,6.48637927 12.9972376,7.57044199 C12.9972376,8.65530715 13.9007569,9.53314917 14.9599448,9.53314917 C16.0448099,9.53314917 16.9226519,8.65530715 16.9226519,7.57044199 C16.9226519,6.48557686 16.0448099,5.60773481 14.9599448,5.60773481 Z" id="Combined-Shape"></path>
            </g>
        </g>
    </g>
</svg>