<?xml version="1.0" encoding="UTF-8"?>
<svg enable-background="new 0 0 1061 320" version="1.1" viewBox="0 0 1061 320" xml:space="preserve" xmlns="http://www.w3.org/2000/svg">
<style type="text/css">
	.st0{fill:#FFFFFF;}
</style>
	<path class="st0" d="m0 111.2"/>
				<path class="st0" d="m456.9 304.8c3.2 3.1 9.9 6.1 15.5 6.1 5.1 0 7.5-1.8 7.5-4.5 0-3.1-3.9-4.3-9-5.3-7.7-1.5-17.6-3.3-17.6-14 0-7.5 6.6-14.1 18.3-14.1 7.6 0 13.6 2.6 18 6.1l-4.6 8.1c-2.7-2.9-7.8-5.2-13.2-5.2-4.3 0-7 1.6-7 4.2 0 2.8 3.5 3.8 8.5 4.8 7.7 1.5 18 3.5 18 14.6 0 8.2-7 14.4-19.4 14.4-7.8 0-15.3-2.6-20-7l5-8.2z"/>
				<path class="st0" d="m552.6 290.6c0-4.2-1.8-7.1-6.7-7.1-4.2 0-7.6 2.8-9.3 5.2v30.2h-11.9v-28.3c0-4.2-1.8-7.1-6.7-7.1-4.1 0-7.5 2.8-9.3 5.3v30.1h-11.8v-44.8h11.8v5.8c1.8-2.7 7.8-7 14.6-7 6.6 0 10.8 3.1 12.4 8.1 2.6-4.1 8.5-8.1 15.4-8.1 8.2 0 13.2 4.4 13.2 13.5v32.3h-11.9v-28.1z"/>
			<path class="st0" d="m592.4 273c-7 0-14.1 2.2-19.5 7l4.5 7.9c3.8-3.5 8.2-5.3 13.1-5.3 5.9 0 9.8 3 9.8 7.5v6.2c-3-3.6-8.2-5.5-14.2-5.5-7.1 0-15.6 3.8-15.6 14.3 0 10 8.4 14.8 15.6 14.8 5.8 0 11.1-2.1 14.2-5.7v4.6h11.8v-28.9c-0.2-12.9-9.5-16.9-19.7-16.9zm7.7 35.1c-1.9 2.6-5.7 3.9-9.4 3.9-4.6 0-8.4-2.4-8.4-6.6 0-4.3 3.8-6.8 8.4-6.8 3.8 0 7.5 1.3 9.4 3.9v5.6z"/>
				<path class="st0" d="m618.8 274.1h11.8v6.1c3.2-4 8.7-7.1 14.3-7.1v11.5c-0.8-0.2-1.9-0.3-3.2-0.3-3.9 0-9.1 2.1-11 5v29.6h-11.8v-44.8z"/>
				<path class="st0" d="m657.2 307.7v-23.4h-7.4v-10.3h7.4v-12.2h11.9v12.2h9.1v10.3h-9.1v20.2c0 2.8 1.5 4.9 4.1 4.9 1.8 0 3.4-0.6 4.1-1.3l2.5 8.9c-1.8 1.6-4.9 2.9-9.8 2.9-8.3 0.1-12.8-4.2-12.8-12.2z"/>
				<path class="st0" d="m707.6 304.8c3.2 3.1 9.9 6.1 15.5 6.1 5.1 0 7.5-1.8 7.5-4.5 0-3.1-3.9-4.3-9-5.3-7.7-1.5-17.6-3.3-17.6-14 0-7.5 6.6-14.1 18.3-14.1 7.6 0 13.6 2.6 18 6.1l-4.6 8.1c-2.7-2.9-7.8-5.2-13.2-5.2-4.3 0-7 1.6-7 4.2 0 2.8 3.5 3.8 8.5 4.8 7.7 1.5 18 3.5 18 14.6 0 8.2-6.9 14.4-19.4 14.4-7.8 0-15.3-2.6-20-7l5-8.2z"/>
			<path class="st0" d="m791.6 297.6c0-14.6-9.1-24.6-22.4-24.6-13.6 0-23.2 10.5-23.2 23.4 0 14.4 10.3 23.5 23.9 23.5 6.9 0 13.9-2 18.4-6.2l-5.2-7.6c-2.9 2.8-7.8 4.5-11.9 4.5-7.6 0-12.1-4.7-12.9-10.4h33.3v-2.6zm-33.5-5.4c0.6-4.5 3.7-9.9 11-9.9 7.8 0 10.8 5.6 11 9.9h-22z"/>
				<path class="st0" d="m798.3 274.1h11.8v6.1c3.2-4 8.7-7.1 14.3-7.1v11.5c-0.8-0.2-1.9-0.3-3.2-0.3-3.9 0-9.1 2.1-11 5v29.6h-11.8v-44.8z"/>
				<polygon class="st0" points="827.2 274.1 839.8 274.1 851.5 305.2 863.2 274.1 875.9 274.1 857.9 318.8 845.2 318.8"/>
				<path class="st0" d="m878.2 261.3c0-3.9 3.2-7 7-7 3.9 0 7 3.1 7 7s-3.2 7-7 7-7-3.1-7-7z"/>
				<rect class="st0" x="879.4" y="274.1" width="11.8" height="44.8"/>
				<path class="st0" d="m920.9 273c9.2 0 14.7 4 17.7 8.1l-7.7 7.1c-2.1-3.1-5.4-4.8-9.4-4.8-7.1 0-12.1 5.2-12.1 13s5 13.1 12.1 13.1c4.1 0 7.3-1.9 9.4-4.8l7.7 7.1c-3 4.2-8.5 8.1-17.7 8.1-13.8 0-23.7-9.7-23.7-23.5 0-13.7 9.9-23.4 23.7-23.4z"/>
			<path class="st0" d="m986.2 297.6c0-14.6-9.1-24.6-22.4-24.6-13.6 0-23.2 10.5-23.2 23.4 0 14.4 10.3 23.5 23.9 23.5 6.9 0 13.9-2 18.4-6.2l-5.2-7.6c-2.9 2.8-7.8 4.5-11.9 4.5-7.6 0-12.1-4.7-12.9-10.4h33.3v-2.6zm-33.4-5.4c0.6-4.5 3.7-9.9 11-9.9 7.8 0 10.8 5.6 11 9.9h-22z"/>
				<path class="st0" d="m993.2 304.8c3.2 3.1 9.9 6.1 15.5 6.1 5.1 0 7.5-1.8 7.5-4.5 0-3.1-3.9-4.3-9-5.3-7.7-1.5-17.6-3.3-17.6-14 0-7.5 6.6-14.1 18.3-14.1 7.6 0 13.6 2.6 18 6.1l-4.6 8.1c-2.7-2.9-7.8-5.2-13.2-5.2-4.3 0-7 1.6-7 4.2 0 2.8 3.5 3.8 8.5 4.8 7.7 1.5 18 3.5 18 14.6 0 8.2-7 14.4-19.4 14.4-7.8 0-15.3-2.6-20-7l5-8.2z"/>
			<path class="st0" d="m620.6 61.2c-49.1 0-83.5 37.8-83.5 84.6 0 51.8 37.1 84.9 86.2 84.9 24 0 48.1-6.8 64.5-20.6 1.2-1 1.4-2.7 0.6-4l-15.4-22.5c-1-1.4-3-1.8-4.3-0.6-10.6 8.7-26.8 13.9-40.7 13.9-27.4 0-43.8-17-46.5-37.4h117c1.7 0 3-1.3 3-3v-6.4c0-52.8-32.8-88.9-80.9-88.9zm-39.8 69.5c2-16 13.4-35.8 39.8-35.8 28.1 0 38.8 20.4 39.8 35.8h-79.6z"/>
				<path class="st0" d="m797.7 61.2c31.5 0 51.1 13 62.2 27.2 0.9 1.2 0.8 3-0.3 4l-23.3 21.6c-1.3 1.2-3.3 1-4.4-0.4-7.7-9.4-18.6-14.8-32.1-14.8-25.7 0-43.8 18.7-43.8 46.8s18.1 47.1 43.8 47.1c13.5 0 24.5-5.6 32.1-14.8 1.1-1.3 3.1-1.5 4.4-0.3l23.4 21.7c1.1 1.1 1.3 2.8 0.3 4-10.9 14-30.3 26.9-61.1 27.2-47.1 0.5-86.4-37.1-86.7-84.2-0.4-49.7 35.5-85.1 85.5-85.1z"/>
			<path class="st0" d="m118.1 0c-67.2 0-116.3 48.1-116.3 115.3s49.1 115.3 116.3 115.3c67.5 0 116.6-48.1 116.6-115.3s-49.1-115.3-116.6-115.3zm0 188.5c-41.1 0-67.5-31.8-67.5-73.2 0-41.8 26.4-73.2 67.5-73.2s67.9 31.4 67.9 73.2c0 41.4-26.8 73.2-67.9 73.2z"/>
				<path class="st0" d="m451.7 45.5h-62.2c-1.7 0-3-1.3-3-3v-35.8c0-1.7 1.3-3 3-3h171.8c1.7 0 3 1.3 3 3v35.8c0 1.7-1.3 3-3 3h-61.8v178.1c0 1.7-1.3 3-3 3h-41.8c-1.7 0-3-1.3-3-3v-178.1z"/>
			<path class="st0" d="m963.7 62.6c-19.6 0-34.6 8.2-44.5 21.6v-78c0-1.5-1.2-2.7-2.7-2.7h-37c-1.5 0-2.7 1.2-2.7 2.7v217.7c0 1.5 1.2 2.7 2.7 2.7h37c1.5 0 2.7-1.2 2.7-2.7v-93.1c0-21.1 15.1-32.8 33.3-32.8s32.5 11.2 32.5 38.7v87.2c0 1.5 1.2 2.7 2.7 2.7h37c1.5 0 2.7-1.2 2.7-2.7v-89.8c0-49.4-28.3-71.5-63.7-71.5z"/>
			<path class="st0" d="m347.5 62.6c-19.6 0-34.6 8.2-44.5 21.6v-16.4c0-1.5-1.2-2.7-2.7-2.7h-37c-1.5 0-2.7 1.2-2.7 2.7v156.1c0 1.5 1.2 2.7 2.7 2.7h37c1.5 0 2.7-1.2 2.7-2.7v-93.1c0-21.1 15.1-32.8 33.3-32.8s32.5 11.2 32.5 38.7v87.2c0 1.5 1.2 2.7 2.7 2.7h37c1.5 0 2.7-1.2 2.7-2.7v-89.8c0-49.4-28.3-71.5-63.7-71.5z"/>
					<polygon class="st0" points="1045.8 214.7 1045.8 216.6 1042 216.6 1042 226.6 1039.6 226.6 1039.6 216.6 1035.8 216.6 1035.8 214.7"/>
					<path class="st0" d="m1058.7 226.6l-0.4-7c0-0.9 0-2.1-0.1-3.3h-0.1c-0.3 1-0.7 2.5-1 3.5l-2.1 6.6h-2.4l-2.2-6.8c-0.2-0.9-0.6-2.3-0.8-3.4h-0.1c0 1.1 0 2.2-0.1 3.3l-0.4 7h-2.3l0.9-11.9h3.6l2.1 5.8c0.3 0.9 0.5 1.8 0.8 3 0.3-1.1 0.6-2.1 0.8-3l2.1-5.9h3.4l0.9 11.9-2.6 0.2z"/>
</svg>
