<?xml version="1.0" encoding="UTF-8"?>
<svg width="94px" height="67px" viewBox="0 0 94 67" version="1.1" xmlns="http://www.w3.org/2000/svg" xmlns:xlink="http://www.w3.org/1999/xlink">
    <!-- Generator: Sketch 56.3 (81716) - https://sketch.com -->
    <title>Group</title>
    <desc>Created with Sketch.</desc>
    <defs>
        <polygon id="path-1" points="0.0949013699 0.498634615 52.5597781 0.498634615 52.5597781 66.8184764 0.0949013699 66.8184764"></polygon>
        <linearGradient x1="13.8716502%" y1="75.4061863%" x2="13.8716502%" y2="-25.4774971%" id="linearGradient-3">
            <stop stop-color="#F01446" offset="0%"></stop>
            <stop stop-color="#9D2235" offset="100%"></stop>
        </linearGradient>
        <polygon id="path-4" points="0.485967123 0.498634615 52.9521315 0.498634615 52.9521315 66.8189198 0.485967123 66.8189198"></polygon>
        <linearGradient x1="13.8716502%" y1="75.4061863%" x2="13.8716502%" y2="-25.4774971%" id="linearGradient-6">
            <stop stop-color="#F01446" offset="0%"></stop>
            <stop stop-color="#9D2235" offset="100%"></stop>
        </linearGradient>
    </defs>
    <g id="Page-1" stroke="none" stroke-width="1" fill="none" fill-rule="evenodd">
        <g id="DIG_24942_300x250-3" transform="translate(-102.000000, -116.000000)">
            <g id="bow" transform="translate(102.000000, 116.000000)">
                <g id="Group">
                    <g id="Group-6" transform="translate(41.205479, 0.000000)">
                        <mask id="mask-2" fill="white">
                            <use xlink:href="#path-1"></use>
                        </mask>
                        <g id="Clip-5"></g>
                        <path d="M29.3095863,4.51708846 L0.277750685,33.5667423 L0.0949013699,33.5667423 L0.186326027,33.6582231 L0.0949013699,33.7497038 L0.277750685,33.7497038 L29.3095863,62.7993577 C37.8893397,71.3843769 52.5597781,65.3054154 52.5597781,53.1642423 L52.5597781,33.7497038 L52.5597781,33.5667423 L52.5597781,14.1534923 C52.5597781,2.01231923 37.8893397,-4.06793077 29.3095863,4.51708846" id="Fill-4" fill="url(#linearGradient-3)" mask="url(#mask-2)"></path>
                    </g>
                    <g id="Group-9">
                        <mask id="mask-5" fill="white">
                            <use xlink:href="#path-4"></use>
                        </mask>
                        <g id="Clip-8"></g>
                        <path d="M52.7692822,33.5666135 L23.7374466,4.51695962 C15.1576932,-4.06805962 0.485967123,2.01219038 0.485967123,14.1546519 L0.485967123,33.5666135 L0.485967123,33.7508635 L0.485967123,53.1641135 C0.485967123,65.3052865 15.1576932,71.3855365 23.7374466,62.7992288 L52.7692822,33.7508635 L52.9521315,33.7508635 L52.8607068,33.6580942 L52.9521315,33.5666135 L52.7692822,33.5666135 Z" id="Fill-7" fill="url(#linearGradient-6)" mask="url(#mask-5)"></path>
                    </g>
                </g>
            </g>
        </g>
    </g>
</svg>