<?xml version="1.0" encoding="UTF-8"?>
<svg enable-background="new 0 0 361.8 361.8" version="1.1" viewBox="0 0 361.8 361.8" xml:space="preserve" xmlns="http://www.w3.org/2000/svg">
<style type="text/css">
	.st0{fill:#FFFFFF;}
	.st1{fill:#1006DC;}
</style>
<ellipse class="st0" cx="180.9" cy="180.9" rx="180.9" ry="180.9"/>
<path class="st1" d="m180.9 70.2c13.5 0 24.5 10.9 24.5 24.5s-10.9 24.5-24.5 24.5c-13.2 0-24.5-10.9-24.5-24.5s11.3-24.5 24.5-24.5z"/>
<path class="st1" d="m155 147.5c9.4 5.4 19.4 6.9 26.3 6.9s16.9-1.4 26.3-6.9c1.5-0.9 2.4 0.6 2 1.9-3.2 13-14.6 22.7-28.2 22.8h-0.2c-13.6-0.1-25.1-9.8-28.2-22.8-0.4-1.3 0.5-2.8 2-1.9z"/>
<path class="st1" d="m144.6 197.1c13.1 7.6 27.1 9.6 36.7 9.6s23.6-2 36.7-9.6c2.1-1.2 3.3 0.9 2.8 2.7-4.4 18.2-20.4 31.7-39.4 31.8h-0.2c-19-0.1-35-13.6-39.4-31.8-0.5-1.8 0.6-3.9 2.8-2.7z"/>
<path class="st1" d="m231.3 258.8c-5.6 23.1-25.8 40.2-49.9 40.3h-0.3c-24.1-0.1-44.3-17.2-49.9-40.3-0.6-2.3 0.9-5 3.6-3.4 16.5 9.6 34.3 12.1 46.5 12.2 12.2 0 29.9-2.5 46.5-12.2 2.6-1.6 4.1 1 3.5 3.4z"/>
</svg>
