<svg id="Layer_1" data-name="Layer 1" xmlns="http://www.w3.org/2000/svg" viewBox="0 0 1909.36 689.64"><defs><style>.cls-1,.cls-2{fill:#fff;}.cls-1{fill-rule:evenodd;}</style></defs><title>Artboard 1</title><path class="cls-1" d="M1033.78,335.94c0-20.81,29.23-35.92,74-35.92,51.12,0,99.17,18.13,129.05,43.64a11.66,11.66,0,0,0,17.68-3.09L1291.05,268a11.18,11.18,0,0,0-3-14.5c-45.09-33.88-105.75-58.2-181.19-58.2-123.74,0-192.92,69.18-192.92,148.1,0,184.26,279.63,120.49,279.63,201.52,0,22.17-25.33,40.95-78.92,40.95-53.24,0-116.18-21-152.75-50a11.68,11.68,0,0,0-17.17,3.06L903.3,608.21a11.14,11.14,0,0,0,2.29,14.38c49.91,41.95,125.24,66.71,203.21,66.71,130.56,0,203.64-64.31,203.64-151C1312.44,352.6,1033.78,410,1033.78,335.94Z"/><path class="cls-1" d="M470,21.78H361.13a7.92,7.92,0,0,0-7.92,7.92V259.47c-36.47-39.83-85.4-64.11-140.46-64.11C95.25,195.36,0,305.93,0,442.33s95.25,247,212.75,247c55.06,0,104-24.28,140.46-64.11v44.5a7.91,7.91,0,0,0,7.92,7.92H470a7.92,7.92,0,0,0,7.92-7.92V29.7A7.93,7.93,0,0,0,470,21.78ZM238.89,585.59c-63.15,0-114.34-64.16-114.34-143.31S175.74,299,238.89,299c62.87,0,113.86,63.6,114.32,142.25v2.1C352.75,522,301.76,585.59,238.89,585.59Z"/><path class="cls-1" d="M1633.84,195.32c-57.5,0-101.75,24.17-130.79,63.6V29.7a7.92,7.92,0,0,0-7.92-7.92H1386.27a7.93,7.93,0,0,0-7.93,7.92v640a7.92,7.92,0,0,0,7.93,7.92h108.86a7.91,7.91,0,0,0,7.92-7.92V396c.09-61.95,44.34-96.48,97.79-96.48s95.52,32.89,95.52,113.63l.11,256.54a7.91,7.91,0,0,0,7.92,7.92h108.86a7.92,7.92,0,0,0,7.93-7.92V405.54C1821.18,260.34,1737.84,195.32,1633.84,195.32Z"/><path class="cls-2" d="M619.35,73.7C619.35,33,653.29,0,693.05,0a73.7,73.7,0,1,1,0,147.4C653.29,147.4,619.35,114.43,619.35,73.7ZM834.14,557.84c-49.81,28.94-103.25,36.57-140,36.63s-90.22-7.69-140-36.63c-8.16-4.57-12.51,3.41-10.82,10.37,16.92,69.49,77.78,121,150.4,121.43h.9C767.18,689.22,828,637.7,845,568.21,846.65,561.25,842.3,553.27,834.14,557.84ZM804.67,382.39c-39.33,22.85-81.52,28.87-110.56,28.92s-71.23-6.07-110.56-28.92c-6.45-3.61-9.88,2.69-8.54,8.18,13.35,54.87,61.4,95.55,118.75,95.88h.7c57.35-.33,105.4-41,118.75-95.88C814.55,385.08,811.12,378.78,804.67,382.39ZM773.28,232.85c-28.16,16.36-58.37,20.67-79.17,20.71s-51-4.35-79.17-20.71c-4.62-2.59-7.08,1.93-6.12,5.86,9.56,39.29,44,68.42,85,68.66h.5c41.07-.24,75.48-29.37,85-68.66C780.36,234.78,777.9,230.26,773.28,232.85Z"/><path class="cls-2" d="M1873.77,649.08v4.6h-8.9V676.9h-5.52V653.68h-8.9v-4.6Zm30.06,27.82-1-16.37c-.1-2.14-.1-4.8-.2-7.77h-.31c-.72,2.46-1.53,5.73-2.35,8.29l-5,15.44h-5.73l-5-15.85c-.51-2.15-1.33-5.42-1.94-7.88H1882c0,2.56-.1,5.22-.2,7.77l-1,16.37h-5.32l2-27.82h8.28l4.81,13.6c.61,2.15,1.12,4.19,1.84,7.06h.1c.72-2.56,1.33-4.91,2-7l4.8-13.7h8l2.15,27.82Z"/></svg>