<?xml version="1.0" encoding="UTF-8"?>
<svg enable-background="new 0 0 1163.9 160.4" version="1.1" viewBox="0 0 1163.9 160.4" xml:space="preserve" xmlns="http://www.w3.org/2000/svg">
<style type="text/css">
	.st0{fill:#FFFFFF;}
</style>
<path class="st0" d="m664.5 128 34.6-91.6h13.3l34.6 91.6h-13.1l-8.8-24.8h-38.5l-9 24.8h-13.1zm26-35.8h30.5l-15-41.3h-0.5l-15 41.3z"/>
<path class="st0" d="m779 130c-7 0-12.8-1.7-17.3-5.1-4.6-3.4-7.9-7.7-10-12.8l10.5-4.4c3.3 7.9 9 11.8 17 11.8 3.7 0 6.7-0.8 9-2.4s3.5-3.8 3.5-6.4c0-4.1-2.9-6.9-8.6-8.3l-12.7-3.1c-4-1-7.8-3-11.4-5.8-3.6-2.9-5.4-6.7-5.4-11.6 0-5.5 2.5-10 7.4-13.5s10.7-5.2 17.5-5.2c5.5 0 10.5 1.3 14.8 3.8 4.4 2.5 7.5 6.1 9.3 10.8l-10.2 4.2c-2.3-5.5-7.1-8.3-14.3-8.3-3.5 0-6.4 0.7-8.8 2.2s-3.6 3.4-3.6 5.9c0 3.6 2.8 6 8.3 7.3l12.4 2.9c5.9 1.4 10.2 3.7 13.1 7 2.8 3.3 4.2 7.1 4.2 11.3 0 5.6-2.3 10.3-6.9 14.1s-10.6 5.6-17.8 5.6z"/>
<path class="st0" d="m835.9 130c-7 0-12.8-1.7-17.3-5.1-4.6-3.4-7.9-7.7-10-12.8l10.5-4.4c3.3 7.9 9 11.8 17 11.8 3.7 0 6.7-0.8 9-2.4s3.5-3.8 3.5-6.4c0-4.1-2.9-6.9-8.6-8.3l-12.7-3.1c-4-1-7.8-3-11.4-5.8-3.6-2.9-5.4-6.7-5.4-11.6 0-5.5 2.5-10 7.4-13.5s10.7-5.2 17.5-5.2c5.5 0 10.5 1.3 14.8 3.8 4.4 2.5 7.5 6.1 9.3 10.8l-10.2 4.2c-2.3-5.5-7.1-8.3-14.3-8.3-3.5 0-6.4 0.7-8.8 2.2s-3.6 3.4-3.6 5.9c0 3.6 2.8 6 8.3 7.3l12.4 2.9c5.9 1.4 10.2 3.7 13.1 7s4.2 7.1 4.2 11.3c0 5.6-2.3 10.3-6.9 14.1s-10.5 5.6-17.8 5.6z"/>
<path class="st0" d="m881.7 49.5c-1.6 1.6-3.6 2.4-5.9 2.4s-4.3-0.8-5.9-2.4-2.4-3.6-2.4-5.9 0.8-4.3 2.4-5.9 3.6-2.4 5.9-2.4 4.3 0.8 5.9 2.4 2.4 3.6 2.4 5.9-0.7 4.3-2.4 5.9zm0 78.5h-11.7v-62.7h11.8l-0.1 62.7z"/>
<path class="st0" d="m918.5 130c-7 0-12.8-1.7-17.3-5.1-4.6-3.4-7.9-7.7-10-12.8l10.5-4.4c3.3 7.9 9 11.8 17 11.8 3.7 0 6.7-0.8 9-2.4s3.5-3.8 3.5-6.4c0-4.1-2.9-6.9-8.6-8.3l-12.7-3.1c-4-1-7.8-3-11.4-5.8-3.6-2.9-5.4-6.7-5.4-11.6 0-5.5 2.5-10 7.4-13.5s10.7-5.2 17.5-5.2c5.5 0 10.5 1.3 14.8 3.8 4.4 2.5 7.5 6.1 9.3 10.8l-10.2 4.2c-2.3-5.5-7.1-8.3-14.3-8.3-3.5 0-6.4 0.7-8.8 2.2s-3.6 3.4-3.6 5.9c0 3.6 2.8 6 8.3 7.3l12.4 2.9c5.9 1.4 10.2 3.7 13.1 7 2.8 3.3 4.2 7.1 4.2 11.3 0 5.6-2.3 10.3-6.9 14.1s-10.6 5.6-17.8 5.6z"/>
<path class="st0" d="m978.6 129c-6.6 0-11.6-1.7-15-5.2-3.5-3.5-5.2-8.4-5.2-14.8v-33h-11v-10.8h11v-19.2h11.8v19.2h15.4v10.8h-15.4v32c0 6.8 2.8 10.2 8.4 10.2 2.1 0 3.9-0.3 5.4-1l4.1 10.1c-2.5 1.2-5.7 1.7-9.5 1.7z"/>
<path class="st0" d="m1016.7 130c-6.7 0-12.2-1.9-16.7-5.8-4.5-3.8-6.7-8.9-6.7-15.2 0-6.8 2.6-12.2 7.9-16.1s11.8-5.8 19.6-5.8c6.9 0 12.6 1.3 17 3.8v-1.8c0-4.6-1.6-8.3-4.7-11.1-3.2-2.8-7-4.2-11.6-4.2-3.4 0-6.5 0.8-9.3 2.4s-4.7 3.8-5.7 6.7l-10.8-4.6c1.4-3.8 4.3-7.2 8.6-10.4s9.9-4.8 16.9-4.8c8 0 14.7 2.3 20 7s7.9 11.3 7.9 19.8v38.1h-11.3v-8.7h-0.5c-4.7 7.2-11.6 10.7-20.6 10.7zm1.9-10.7c4.9 0 9.3-1.8 13.2-5.4 4-3.6 6-7.9 6-12.9-3.3-2.7-8.3-4.1-15-4.1-5.7 0-10 1.2-12.9 3.7s-4.4 5.4-4.4 8.7c0 3.1 1.3 5.5 4 7.3 2.6 1.8 5.7 2.7 9.1 2.7z"/>
<path class="st0" d="m1072.3 65.3v8.7h0.5c1.7-3 4.4-5.5 8.1-7.6s7.6-3.1 11.8-3.1c7.8 0 13.7 2.4 17.8 7.2s6.1 11.2 6.1 19.2v38.3h-11.8v-36.6c0-11.6-5.2-17.4-15.5-17.4-4.9 0-8.8 1.9-11.9 5.8s-4.6 8.4-4.6 13.5v34.7h-11.8v-62.7h11.3z"/>
<path class="st0" d="m1154.4 129c-6.6 0-11.6-1.7-15-5.2-3.5-3.5-5.2-8.4-5.2-14.8v-33h-11v-10.8h11v-19.2h11.8v19.2h15.4v10.8h-15.4v32c0 6.8 2.8 10.2 8.4 10.2 2.1 0 3.9-0.3 5.4-1l4.1 10.1c-2.6 1.2-5.8 1.7-9.5 1.7z"/>
<path class="st0" d="m224.7 77.6c0-28.9 24.3-52.5 53.3-52.5 16 0 27.4 6.3 36 14.5l-10.1 10.1c-6.1-5.8-14.5-10.2-25.9-10.2-21.1 0-37.6 17-37.6 38.1s16.5 38.1 37.6 38.1c13.7 0 21.5-5.5 26.5-10.5 4.1-4.1 6.8-10 7.8-18h-34.3v-14.3h48.3c0.5 2.6 0.8 5.6 0.8 9 0 10.8-2.9 24.1-12.4 33.5-9.2 9.6-21 14.7-36.6 14.7-29.1-0.1-53.4-23.6-53.4-52.5z"/>
<path class="st0" d="m366 62.5c-18.7 0-33.9 14.2-33.9 33.8 0 19.5 15.2 33.8 33.9 33.8s33.9-14.3 33.9-33.8c0-19.6-15.2-33.8-33.9-33.8zm0 54.2c-10.2 0-19.1-8.4-19.1-20.5 0-12.2 8.8-20.5 19.1-20.5 10.2 0 19.1 8.3 19.1 20.5 0 12.1-8.9 20.5-19.1 20.5z"/>
<path class="st0" d="m440 62.5c-18.7 0-33.9 14.2-33.9 33.8 0 19.5 15.2 33.8 33.9 33.8s33.9-14.3 33.9-33.8c0-19.6-15.2-33.8-33.9-33.8zm0 54.2c-10.2 0-19.1-8.4-19.1-20.5 0-12.2 8.8-20.5 19.1-20.5s19.1 8.3 19.1 20.5c0 12.1-8.9 20.5-19.1 20.5z"/>
<path class="st0" d="m530.8 64.5v5.5h-0.5c-3.3-4-9.7-7.6-17.8-7.6-16.9 0-32.4 14.8-32.4 33.9 0 18.9 15.5 33.7 32.4 33.7 8.1 0 14.5-3.6 17.8-7.7h0.5v4.9c0 12.9-6.9 19.8-18 19.8-9.1 0-14.7-6.5-17-12l-12.9 5.4c3.7 9 13.6 20 30 20 17.4 0 32.1-10.2 32.1-35.2v-60.7h-14.2zm-17 52.2c-10.2 0-18.8-8.6-18.8-20.4 0-11.9 8.6-20.6 18.8-20.6 10.1 0 18 8.7 18 20.6 0.1 11.9-7.9 20.4-18 20.4z"/>
<rect class="st0" x="555.2" y="28.7" width="14.8" height="99.3"/>
<path class="st0" d="m610.7 116.7c-7.6 0-12.9-3.5-16.4-10.2l45.2-18.7-1.5-3.8c-2.8-7.6-11.4-21.5-28.9-21.5-17.4 0-31.9 13.7-31.9 33.8 0 18.9 14.3 33.8 33.5 33.8 15.5 0 24.4-9.5 28.2-15l-11.5-7.7c-3.9 5.6-9.1 9.3-16.7 9.3zm-1.1-41.2c5.9 0 10.9 2.9 12.5 7.2l-30.2 12.5c-0.4-13 10.1-19.7 17.7-19.7z"/>
<circle class="st0" cx="164" cy="44" r="12"/>
<circle class="st0" cx="128" cy="72" r="24"/>
<circle class="st0" cx="128" cy="132" r="28"/>
<circle class="st0" cx="48" cy="48" r="48"/>
</svg>
