<?xml version="1.0" encoding="UTF-8"?>
<svg width="50px" height="50px" viewBox="0 0 50 50" version="1.1" xmlns="http://www.w3.org/2000/svg" xmlns:xlink="http://www.w3.org/1999/xlink">
    <title>Netflix_Logo_RGB</title>
    <defs>
        <rect id="path-1" x="0" y="0" width="50" height="50" rx="12"></rect>
    </defs>
    <g id="Artwork" stroke="none" stroke-width="1" fill="none" fill-rule="evenodd">
        <g id="300x250_Amazon_Netflix_Integration_Frame2" transform="translate(-16.000000, -146.000000)">
            <g id="Netflix_Logo_RGB" transform="translate(16.000000, 146.000000)">
                <mask id="mask-2" fill="white">
                    <use xlink:href="#path-1"></use>
                </mask>
                <use id="Mask" fill="#FFFFFF" xlink:href="#path-1"></use>
                <path d="M31.396616,20.4545455 L29.804139,20.4545455 L29.804139,30.5377469 C31.2513876,30.5941231 32.692541,30.6767821 34.127864,30.785124 L34.127864,29.0086599 C33.2199215,28.9401024 32.3095938,28.8819861 31.396616,28.8338608 L31.396616,20.4545455 Z M44.6969697,20.4545455 L42.8233271,20.4545455 L41.5883296,23.4440384 L40.4787903,20.4545455 L38.6332481,20.4545455 L40.6164538,25.7963622 L38.4515891,31.0368603 C39.0504962,31.0978649 39.6477002,31.1629602 40.2443366,31.2317312 L41.5034607,28.1847315 L42.7503797,31.5436018 C43.3998107,31.6308105 44.0475387,31.7218135 44.6941313,31.8181818 L44.6969697,31.8170258 L42.4750527,25.8324373 L44.6969697,20.4545455 Z M24.5195861,30.268595 L26.0684443,30.268212 L26.0684443,26.2404848 L28.1680231,26.2404848 L28.1680231,24.4960025 L26.0684443,24.4960025 L26.0684443,22.2147316 L28.8433112,22.2147316 L28.8433112,20.4545455 L24.5195861,20.4545455 L24.5195861,30.268595 Z M17.7937916,22.2879509 L19.581892,22.2879509 L19.581892,30.785124 C20.150395,30.7619536 20.7200636,30.7428649 21.2903293,30.726753 L21.2903293,22.2879509 L23.0783444,22.2879509 L23.0783444,20.4545455 L17.7937916,20.4545455 L17.7937916,22.2879509 Z M12.5092387,30.785124 C13.9438923,30.6381762 15.3851513,30.5170676 16.8329638,30.4230829 L16.8329638,28.6941617 C15.9079315,28.7544241 14.9855154,28.8257812 14.0657932,28.9072988 L14.0657932,26.2900632 C14.6692621,26.2832895 15.4638973,26.2625306 16.167871,26.2723991 L16.167871,24.5435363 C15.6054588,24.5419889 14.7015376,24.552383 14.0657932,24.5615508 L14.0657932,22.1988242 L16.8329638,22.1988242 L16.8329638,20.4545455 L12.5092387,20.4545455 L12.5092387,30.785124 Z M8.96296442,26.8852404 L6.8470291,20.4545455 L5.3030303,20.4545455 L5.3030303,31.8181818 C5.84352451,31.7338205 6.38504606,31.6530459 6.927622,31.5755616 L6.927622,25.3960534 L8.80905118,31.3218257 C9.40080473,31.2465941 9.99361268,31.1753346 10.5875831,31.1083436 L10.5875831,20.4545455 L8.96296442,20.4545455 L8.96296442,26.8852404 Z M35.5691057,30.6398315 C36.2105102,30.6847779 36.8509555,30.7330037 37.4907613,30.785124 L37.4907613,20.4545455 L35.5691057,20.4545455 L35.5691057,30.6398315 L35.5691057,30.6398315 Z" fill="#D8232A" mask="url(#mask-2)"></path>
            </g>
        </g>
    </g>
</svg>