<?xml version="1.0" encoding="UTF-8"?>
<svg version="1.1" viewBox="0 0 94 67" xmlns="http://www.w3.org/2000/svg" xmlns:xlink="http://www.w3.org/1999/xlink">
<title>bow</title>
<desc>Created with Sketch.</desc>
<defs>
<polygon id="c" points="0.094901 0.49863 52.56 0.49863 52.56 66.818 0.094901 66.818"/>
<linearGradient id="a" x1="13.872%" x2="13.872%" y1="75.406%" y2="-25.477%">
<stop stop-color="#F01446" offset="0"/>
<stop stop-color="#9D2235" offset="1"/>
</linearGradient>
<polygon id="b" points="0.48597 0.49863 52.952 0.49863 52.952 66.819 0.48597 66.819"/>
</defs>
<g fill="none" fill-rule="evenodd">
<g transform="translate(-102 -308)">
<g transform="translate(102 308)">
<g transform="translate(41.205)">
<mask id="e" fill="white">
<use xlink:href="#c"/>
</mask>
<path d="m29.31 4.5171-29.032 29.05h-0.18285l0.091425 0.091481-0.091425 0.091481h0.18285l29.032 29.05c8.5798 8.585 23.25 2.5061 23.25-9.6351v-19.415-0.18296-19.413c0-12.141-14.67-18.221-23.25-9.6364" fill="url(#a)" mask="url(#e)"/>
</g>
<mask id="d" fill="white">
<use xlink:href="#b"/>
</mask>
<path d="m52.769 33.567-29.032-29.05c-8.5798-8.585-23.251-2.5048-23.251 9.6377v19.412 0.18425 19.413c0 12.141 14.672 18.221 23.251 9.6351l29.032-29.048h0.18285l-0.091425-0.092769 0.091425-0.091481h-0.18285z" fill="url(#a)" mask="url(#d)"/>
</g>
</g>
</g>
</svg>
