<?xml version="1.0" encoding="UTF-8"?>
<svg version="1.1" viewBox="0 0 47 36" xmlns="http://www.w3.org/2000/svg" xmlns:xlink="http://www.w3.org/1999/xlink">
<title>Group</title>
<desc>Created with Sketch.</desc>
<defs>
<polygon id="b" points="0.13536 0.21422 12.793 0.21422 12.793 7.8606 0.13536 7.8606"/>
<polygon id="a" points="0.055828 0.21422 12.714 0.21422 12.714 7.8606 0.055828 7.8606"/>
</defs>
<g fill="none" fill-rule="evenodd">
<g transform="translate(-80 -14)">
<g transform="translate(80 14)">
<polygon points="2 36 46 36 46 16 2 16" fill="#BD8037"/>
<polygon points="0 15 47 15 47 9 0 9" fill="#BD8037"/>
<polygon points="20 36 27 36 27 9 20 9" fill="#001036"/>
<g transform="translate(11)">
<mask id="d" fill="white">
<use xlink:href="#b"/>
</mask>
<path d="m12.793 7.8606h-12.658v-4.5064c0-2.792 3.5392-4.1902 5.6095-2.2157l7.0485 6.7221z" fill="#001036" mask="url(#d)"/>
<g transform="translate(13.98)">
<mask id="c" fill="white">
<use xlink:href="#a"/>
</mask>
<path d="m0.055828 7.8606h12.658v-4.5064c0-2.792-3.5395-4.1902-5.6098-2.2157l-7.0482 6.7221z" fill="#001036" mask="url(#c)"/>
</g>
</g>
</g>
</g>
</g>
</svg>
