<?xml version="1.0" encoding="UTF-8"?>
<svg version="1.1" viewBox="0 0 318 31" xmlns="http://www.w3.org/2000/svg" xmlns:xlink="http://www.w3.org/1999/xlink">
<title>Group</title>
<desc>Created with Sketch.</desc>
<defs>
<polygon id="c" points="0.045812 0.25277 13.324 0.25277 13.324 30.603 0.045812 30.603"/>
<polygon id="b" points="0 30.747 317.82 30.747 317.82 0.39756 0 0.39756"/>
</defs>
<g fill="none" fill-rule="evenodd">
<g transform="translate(-16 -183)">
<g transform="translate(16 183)">
<path d="m45.388 15.181c0-0.91569 1.2835-1.5806 3.2514-1.5806 2.2446 0 4.3537 0.79805 5.6657 1.9204 0.24385 0.20865 0.61657 0.14268 0.77636-0.13592l1.6019-3.1926c0.12371-0.21581 0.066613-0.48885-0.13164-0.63788-1.9794-1.4912-4.6431-2.5615-7.9552-2.5615-5.4326 0-8.4702 3.0444-8.4702 6.5176 0 8.1089 12.277 5.3026 12.277 8.8688 0 0.97531-1.1122 1.802-3.4651 1.802-2.3374 0-5.1007-0.92444-6.7065-2.203-0.23949-0.19117-0.59278-0.12638-0.75376 0.13513l-1.8192 3.0499c-0.12728 0.20706-0.085249 0.47692 0.10032 0.63272 2.1919 1.8461 5.4988 2.9359 8.9226 2.9359 5.7323 0 8.9401-2.8297 8.9401-6.6463 0-8.1713-12.234-5.6476-12.234-8.9046" fill="#fff"/>
<path d="m10.488 26.168c-2.7724 0-5.0202-2.8234-5.0202-6.3061 0-3.4831 2.2478-6.3065 5.0202-6.3065 2.7601 0 4.9992 2.7983 5.019 6.26v0.092603c-0.019825 3.4613-2.2589 6.26-5.019 6.26m10.147-24.812h-4.7795c-0.19231 0-0.34813 0.15619-0.34813 0.34855v10.112c-1.6007-1.7527-3.7494-2.821-6.1665-2.821-5.159 0-9.341 4.8658-9.341 10.869 0 6.0025 4.182 10.868 9.341 10.868 2.4171 0 4.5658-1.0683 6.1665-2.821v1.9582c0 0.19276 0.15583 0.34855 0.34813 0.34855h4.7795c0.19231 0 0.34813-0.15579 0.34813-0.34855v-28.165c0-0.19236-0.15583-0.34855-0.34813-0.34855" fill="#fff"/>
<path d="m65.992 11.792v-10.087c0-0.19236-0.15583-0.34855-0.34774-0.34855h-4.7799c-0.19191 0-0.34813 0.15619-0.34813 0.34855v28.164c0 0.19315 0.15622 0.34895 0.34813 0.34895h4.7799c0.19191 0 0.34774-0.15579 0.34774-0.34895v-12.044c0.0035685-2.7268 1.9465-4.2462 4.293-4.2462 2.3489 0 4.1939 1.4475 4.1939 5.0005l0.0051546 11.29c0 0.19315 0.15583 0.34895 0.34774 0.34895h4.7799c0.19191 0 0.34774-0.15579 0.34774-0.34895v-11.625c0-6.3896-3.659-9.2511-8.2252-9.2511-2.5246 0-4.4675 1.0635-5.7422 2.7987z" fill="#fff"/>
<g transform="translate(23.791 .14479)">
<mask id="d" fill="white">
<use xlink:href="#c"/>
</mask>
<path d="m10.161 10.5c-1.2363 0.72015-2.563 0.91013-3.4762 0.91132-0.91316-0.0011923-2.2399-0.19117-3.4762-0.91132-0.20262-0.11367-0.31047 0.084654-0.26844 0.25794 0.4199 1.7292 1.9306 3.0114 3.7335 3.0217h0.022204c1.8029-0.010333 3.314-1.2925 3.7339-3.0217 0.04203-0.17328-0.06582-0.3716-0.26883-0.25794m1.3783 6.5811c-1.7268 1.0055-3.5793 1.2706-4.8545 1.2726-1.2752-0.0019872-3.1273-0.26708-4.8541-1.2726-0.28311-0.15897-0.43378 0.11804-0.3751 0.36008 0.58644 2.4144 2.6963 4.2049 5.2137 4.2192h0.030928c2.5178-0.014308 4.6277-1.8048 5.2137-4.2192 0.058683-0.24204-0.09199-0.51905-0.3747-0.36008m1.2934 7.721c-2.1863 1.2738-4.5325 1.6096-6.1479 1.6124-1.615-0.0027821-3.9611-0.33862-6.1479-1.6124-0.35844-0.2011-0.54916 0.15023-0.47502 0.45665 0.74266 3.0579 3.4147 5.3252 6.6035 5.3439h0.039254c3.1887-0.01868 5.8608-2.2861 6.6035-5.3439 0.074147-0.30642-0.11657-0.65776-0.47541-0.45665m-9.4302-21.306c0-1.7924 1.4901-3.2435 3.2359-3.2435 1.7879 0 3.2355 1.451 3.2355 3.2435 0 1.792-1.4477 3.2435-3.2355 3.2435-1.7458 0-3.2359-1.4514-3.2359-3.2435" fill="#fff" mask="url(#d)"/>
</g>
<path d="m83.589 30.186l-0.044806-0.72015c-0.0047581-0.09459-0.0047581-0.21183-0.0091197-0.34219h-0.013481c-0.031324 0.1081-0.067406 0.25197-0.10349 0.36445l-0.21967 0.67962h-0.25178l-0.21967-0.6975c-0.022601-0.09459-0.058287-0.23846-0.085249-0.34656h-0.013481c0 0.11247-0.0047581 0.22932-0.0091197 0.34219l-0.044806 0.72015h-0.23354l0.090008-1.2241h0.3636l0.21094 0.59854c0.026963 0.094192 0.049167 0.18441 0.080491 0.3104h0.0047581c0.031324-0.11247 0.058287-0.21621 0.085249-0.30603l0.21094-0.60291h0.35051l0.093973 1.2241h-0.24227zm-1.32-1.2241v0.20229h-0.39056v1.0218h-0.24266v-1.0218h-0.39056v-0.20229h1.0238z" fill="#fff"/>
<path d="m232.84 17.94h5.4694l-2.6883-7.44h-0.092387l-2.6887 7.44zm-4.6649 6.4496l6.205-16.492h2.3898l6.205 16.492h-2.3446l-1.5856-4.4688h-6.9167l-1.609 4.4688h-2.3438z" fill="#fff"/>
<path d="m248.72 24.759c-1.2565 0-2.2946-0.30722-3.1142-0.92126-0.81958-0.61404-1.4211-1.3823-1.8037-2.3035l1.8846-0.78335c0.59714 1.4133 1.6162 2.1191 3.0563 2.1191 0.6586 0 1.1982-0.14546 1.6201-0.43758 0.42109-0.29172 0.63164-0.67564 0.63164-1.1518 0-0.73685-0.51348-1.2356-1.5396-1.4971l-2.2748-0.55283c-0.72046-0.18441-1.4021-0.53336-2.0456-1.048-0.64314-0.51428-0.9651-1.209-0.9651-2.0846 0-0.99796 0.44052-1.8079 1.3216-2.4299 0.88065-0.62199 1.9262-0.93278 3.1368-0.93278 0.99563 0 1.8846 0.22654 2.6653 0.67922 0.78152 0.45308 1.3406 1.1021 1.678 1.9466l-1.8386 0.7599c-0.41356-0.99796-1.2716-1.4971-2.5737-1.4971-0.62807 0-1.157 0.13076-1.5856 0.39147-0.42902 0.26151-0.64314 0.61444-0.64314 1.0596 0 0.64504 0.49762 1.0826 1.4933 1.3127l2.2292 0.53018c1.0567 0.24562 1.8386 0.66809 2.3438 1.267 0.50594 0.59854 0.75892 1.2746 0.75892 2.0265 0 1.0135-0.41396 1.8584-1.2411 2.5337-0.82712 0.67564-1.8925 1.0139-3.1943 1.0139" fill="#fff"/>
<path d="m255.83 23.837c-0.81958-0.61404-1.4215-1.3823-1.8037-2.3035l1.8846-0.78335c0.59714 1.4133 1.6158 2.1191 3.0563 2.1191 0.6586 0 1.1982-0.14546 1.6201-0.43758 0.4207-0.29172 0.63164-0.67564 0.63164-1.1518 0-0.73685-0.51348-1.2356-1.5396-1.4971l-2.2752-0.55283c-0.72006-0.18441-1.4017-0.53336-2.0448-1.048-0.64353-0.51428-0.9655-1.209-0.9655-2.0846 0-0.99796 0.44012-1.8079 1.3212-2.4299 0.88104-0.62199 1.9266-0.93278 3.1372-0.93278 0.99563 0 1.8842 0.22654 2.6653 0.67922 0.78152 0.45308 1.3406 1.1021 1.678 1.9466l-1.8386 0.7599c-0.41356-0.99796-1.272-1.4971-2.5737-1.4971-0.62847 0-1.157 0.13076-1.5856 0.39147-0.42902 0.26151-0.64353 0.61444-0.64353 1.0596 0 0.64504 0.49802 1.0826 1.4936 1.3127l2.2292 0.53018c1.0571 0.24562 1.8382 0.66809 2.3438 1.267 0.50594 0.59854 0.75892 1.2746 0.75892 2.0265 0 1.0135-0.41396 1.8584-1.2411 2.5337-0.82751 0.67564-1.8925 1.0139-3.1947 1.0139-1.2561 0-2.2942-0.30722-3.1138-0.92126z" fill="#fff"/>
<mask id="a" fill="white">
<use xlink:href="#b"/>
</mask>
<path d="m265.06 24.39h2.1142v-11.286h-2.1142v11.286zm2.1142-14.12c-0.29143 0.29172-0.64353 0.43758-1.0571 0.43758-0.41356 0-0.76645-0.14586-1.0571-0.43758-0.29143-0.29172-0.43695-0.64504-0.43695-1.06 0-0.41413 0.14552-0.76745 0.43695-1.0596 0.29064-0.29132 0.64353-0.43758 1.0571-0.43758 0.41356 0 0.76566 0.14626 1.0571 0.43758 0.29064 0.29212 0.43616 0.64544 0.43616 1.0596 0 0.41492-0.14552 0.76824-0.43616 1.06z" fill="#fff" mask="url(#a)"/>
<path d="m273.77 24.759c-1.2565 0-2.2942-0.30722-3.1142-0.92126-0.81958-0.61404-1.4211-1.3823-1.8037-2.3035l1.8846-0.78335c0.59714 1.4133 1.6158 2.1191 3.0563 2.1191 0.6586 0 1.1986-0.14546 1.6201-0.43758 0.42109-0.29172 0.63164-0.67564 0.63164-1.1518 0-0.73685-0.51348-1.2356-1.5396-1.4971l-2.2752-0.55283c-0.72006-0.18441-1.4017-0.53336-2.0448-1.048-0.64353-0.51428-0.9655-1.209-0.9655-2.0846 0-0.99796 0.44052-1.8079 1.3212-2.4299 0.88104-0.62199 1.9266-0.93278 3.1376-0.93278 0.99524 0 1.8842 0.22654 2.6653 0.67922 0.78112 0.45308 1.3406 1.1021 1.6776 1.9466l-1.8386 0.7599c-0.41356-0.99796-1.272-1.4971-2.5737-1.4971-0.62847 0-1.1566 0.13076-1.5856 0.39147-0.42863 0.26151-0.64353 0.61444-0.64353 1.0596 0 0.64504 0.49802 1.0826 1.4936 1.3127l2.2292 0.53018c1.0571 0.24562 1.8386 0.66809 2.3442 1.267 0.50555 0.59854 0.75852 1.2746 0.75852 2.0265 0 1.0135-0.41356 1.8584-1.2411 2.5337-0.82751 0.67564-1.8925 1.0139-3.1943 1.0139" fill="#fff" mask="url(#a)"/>
<path d="m284.57 24.574c-1.18 0-2.0797-0.31437-2.7002-0.94431-0.62054-0.62954-0.93021-1.5202-0.93021-2.6724v-5.9194h-1.977v-1.9347h1.977v-3.4553h2.1142v3.4553h2.7573v1.9347h-2.7573v5.7584c0 1.2289 0.50515 1.8425 1.5162 1.8425 0.38303 0 0.7046-0.060808 0.9655-0.18401l0.73513 1.8199c-0.45955 0.19912-1.0266 0.29927-1.7006 0.29927" fill="#fff" mask="url(#a)"/>
<path d="m291.74 22.823c0.87311 0 1.6661-0.3255 2.3783-0.97888 0.71253-0.65219 1.0686-1.424 1.0686-2.3147-0.59714-0.49123-1.4936-0.73724-2.6887-0.73724-1.0262 0-1.8002 0.22296-2.3208 0.66809-0.52101 0.44553-0.78112 0.96776-0.78112 1.5663 0 0.55283 0.23751 0.99081 0.71213 1.3127 0.47462 0.32272 1.0186 0.48368 1.6316 0.48368m-0.34457 1.9351c-1.1951 0-2.1947-0.34577-2.9992-1.0365-0.80412-0.69114-1.2066-1.6044-1.2066-2.7411 0-1.2285 0.47502-2.1919 1.4251-2.8906 0.94964-0.69869 2.1217-1.048 3.5158-1.048 1.2411 0 2.2601 0.23012 3.0563 0.69074v-0.32232c0-0.82945-0.28311-1.4932-0.85011-1.9923-0.56701-0.49918-1.2637-0.74877-2.0912-0.74877-0.613 0-1.1685 0.14626-1.6661 0.43758-0.49802 0.29172-0.83862 0.69114-1.0226 1.1979l-1.9302-0.82945c0.26011-0.67524 0.77319-1.3012 1.5396-1.8771 0.76566-0.57588 1.7772-0.86363 3.0333-0.86363 1.4397 0 2.6352 0.42247 3.5848 1.2666 0.95004 0.84455 1.4251 2.0349 1.4251 3.5702v6.818h-2.0226v-1.5663h-0.091593c-0.84298 1.2901-2.0761 1.9351-3.6998 1.9351" fill="#fff" mask="url(#a)"/>
<path d="m301.39 13.103v1.5663h0.091594c0.3065-0.53733 0.78905-0.99399 1.448-1.3704 0.6582-0.37637 1.3632-0.56436 2.1142-0.56436 1.3937 0 2.4588 0.43003 3.1943 1.2897 0.73513 0.86005 1.1031 2.0118 1.1031 3.4553v6.9098h-2.1142v-6.5875c0-2.0881-0.92704-3.1326-2.7807-3.1326-0.87351 0-1.5856 0.34935-2.1372 1.048-0.55154 0.69909-0.82751 1.5087-0.82751 2.4299v6.2421h-2.1142v-11.286h2.0226z" fill="#fff" mask="url(#a)"/>
<path d="m316.12 24.574c-1.18 0-2.0797-0.31437-2.7002-0.94431-0.62054-0.62954-0.93061-1.5202-0.93061-2.6724v-5.9194h-1.9766v-1.9347h1.9766v-3.4553h2.1142v3.4553h2.7573v1.9347h-2.7573v5.7584c0 1.2289 0.50555 1.8425 1.5166 1.8425 0.38263 0 0.7042-0.060808 0.9655-0.18401l0.73513 1.8199c-0.45995 0.19912-1.027 0.29927-1.7006 0.29927" fill="#fff" mask="url(#a)"/>
<path d="m149.22 15.314c0-5.206 4.3668-9.4443 9.5602-9.4443 2.8731 0 4.9183 1.1287 6.4579 2.6028l-1.8156 1.8199c-1.1027-1.0365-2.5967-1.8425-4.6423-1.8425-3.7918 0-6.7565 3.0634-6.7565 6.8641s2.9647 6.8645 6.7565 6.8645c2.4591 0 3.8608-0.99081 4.7573-1.8886 0.73552-0.73724 1.2181-1.7972 1.4021-3.2482h-6.1594v-2.5798h8.6637c0.092387 0.46063 0.13838 1.0135 0.13838 1.6124 0 1.9347-0.52855 4.3309-2.2292 6.0355-1.6546 1.7273-3.7692 2.6489-6.5729 2.6489-5.1935 0-9.5602-4.2387-9.5602-9.4447" fill="#fff" mask="url(#a)"/>
<path d="m174.58 22.363c-1.8386 0-3.4242-1.5202-3.4242-3.6854 0-2.1883 1.5856-3.6858 3.4242-3.6858s3.4242 1.4975 3.4242 3.6858c0 2.1652-1.5856 3.6854-3.4242 3.6854m0-9.7666c-3.3553 0-6.0896 2.5567-6.0896 6.0812 0 3.5014 2.7343 6.0812 6.0896 6.0812s6.09-2.5798 6.09-6.0812c0-3.5245-2.7347-6.0812-6.09-6.0812" fill="#fff" mask="url(#a)"/>
<path d="m187.87 22.363c-1.8382 0-3.4242-1.5202-3.4242-3.6854 0-2.1883 1.586-3.6858 3.4242-3.6858 1.8386 0 3.4242 1.4975 3.4242 3.6858 0 2.1652-1.5856 3.6854-3.4242 3.6854m0-9.7666c-3.3553 0-6.0896 2.5567-6.0896 6.0812 0 3.5014 2.7343 6.0812 6.0896 6.0812s6.09-2.5798 6.09-6.0812c0-3.5245-2.7347-6.0812-6.09-6.0812" fill="#fff" mask="url(#a)"/>
<path d="m201.12 22.363c-1.8386 0-3.3786-1.5432-3.3786-3.6624 0-2.1422 1.54-3.7089 3.3786-3.7089 1.8152 0 3.2403 1.5667 3.2403 3.7089 0 2.1191-1.4251 3.6624-3.2403 3.6624zm3.0563-9.3982v0.99041h-0.091594c-0.59754-0.71419-1.747-1.3588-3.1947-1.3588-3.0333 0-5.8144 2.672-5.8144 6.1042 0 3.4092 2.7811 6.0581 5.8144 6.0581 1.4477 0 2.5971-0.64504 3.1947-1.3819h0.091594v0.87515c0 2.3262-1.2411 3.5702-3.2403 3.5702-1.6316 0-2.6431-1.1748-3.0567-2.1652l-2.3208 0.96776c0.66614 1.6124 2.4358 3.5936 5.3775 3.5936 3.1253 0 5.7684-1.8429 5.7684-6.3347v-10.919h-2.5281z" fill="#fff" mask="url(#a)"/>
<polygon points="208.54 24.39 211.21 24.39 211.21 6.5149 208.54 6.5149" fill="#fff" mask="url(#a)"/>
<path d="m218.31 14.946c1.0575 0 1.9536 0.52978 2.2526 1.2901l-5.4238 2.257c-0.068992-2.3492 1.8156-3.5471 3.1713-3.5471m0.20698 7.4173c-1.3557 0-2.3212-0.62199-2.9413-1.8429l8.1122-3.3631-0.27597-0.69114c-0.50515-1.3588-2.0452-3.8698-5.1935-3.8698-3.1257 0-5.7224 2.4649-5.7224 6.0812 0 3.4092 2.5737 6.0816 6.021 6.0816 2.7807 0 4.3897-1.7046 5.0559-2.695l-2.0682-1.3823c-0.68953 1.0135-1.6316 1.6816-2.9877 1.6816" fill="#fff" mask="url(#a)"/>
<path d="m138.31 11.433c1.1899 0 2.1546-0.96696 2.1546-2.1593 0-1.1927-0.96471-2.1597-2.1546-2.1597s-2.1546 0.96696-2.1546 2.1597c0 1.1923 0.9647 2.1593 2.1546 2.1593" fill="#fff" mask="url(#a)"/>
<path d="m131.85 18.631c2.3794 0 4.3089-1.9335 4.3089-4.3189 0-2.385-1.9294-4.3185-4.3089-4.3185s-4.3089 1.9335-4.3089 4.3185c0 2.3854 1.9294 4.3189 4.3089 4.3189" fill="#fff" mask="url(#a)"/>
<path d="m131.85 30.148c2.7764 0 5.0269-2.2558 5.0269-5.0387 0-2.7828-2.2506-5.0387-5.0269-5.0387s-5.0269 2.2558-5.0269 5.0387c0 2.7828 2.2506 5.0387 5.0269 5.0387" fill="#fff" mask="url(#a)"/>
<path d="m117.49 18.631c4.7593 0 8.6173-3.8671 8.6173-8.6375 0-4.7708-3.858-8.6379-8.6173-8.6379s-8.6177 3.8671-8.6177 8.6379c0 4.7704 3.8584 8.6375 8.6177 8.6375" fill="#fff" mask="url(#a)"/>
<polygon points="93.91 30.154 94.896 30.154 94.896 1.3597 93.91 1.3597" fill="#fff" mask="url(#a)"/>
</g>
</g>
</g>
</svg>
