<?xml version="1.0" encoding="UTF-8"?>
<svg enable-background="new 0 0 3518.1 423.7" version="1.1" viewBox="0 0 3518.1 423.7" xml:space="preserve" xmlns="http://www.w3.org/2000/svg">
<style type="text/css">
	.st0{fill:#F01446;}
	.st1{fill:#FFFFFF;}
</style>
		<path class="st0" d="m423.6 190.4h0.3c25.1-0.1 46.1-17.9 51.9-41.9 0.6-2.4-0.9-5.2-3.7-3.6-17.2 10-35.6 12.6-48.3 12.6s-31.1-2.6-48.3-12.6c-2.8-1.6-4.3 1.2-3.7 3.6 5.7 23.9 26.7 41.7 51.8 41.9z"/>
		<path class="st0" d="m423.5 299.7h0.4c35-0.2 64.3-25 72.5-58.5 0.8-3.4-1.3-7.2-5.2-5-24 13.9-49.8 17.6-67.5 17.7-17.7 0-43.5-3.7-67.5-17.7-3.9-2.2-6 1.6-5.2 5 8.2 33.4 37.5 58.3 72.5 58.5z"/>
		<path class="st0" d="m423.1 92.7c24.9 0 45-20.1 45-45s-20.1-45-45-45c-24.3 0-45 20.1-45 45s20.7 45 45 45z"/>
		<path class="st0" d="m286.9 16h-66.5c-2.7 0-4.8 2.2-4.8 4.8v140.3c-22.3-24.3-52.1-39.1-85.8-39.1-71.6 0-129.8 67.5-129.8 150.8s58.2 150.8 129.9 150.8c33.6 0 63.5-14.8 85.8-39.1v27.2c0 2.7 2.2 4.8 4.8 4.8h66.5c2.7 0 4.8-2.2 4.8-4.8v-390.8c0-2.7-2.2-4.9-4.9-4.9zm-71.3 257.4c-0.3 48-31.4 86.8-69.8 86.8-38.6 0-69.8-39.2-69.8-87.5s31.2-87.5 69.8-87.5c38.4 0 69.5 38.8 69.8 86.8v1.4z"/>
		<path class="st0" d="m1166.9 397.2h-5.3l-3.2 9.1c-0.4 1.4-0.8 2.9-1.3 4.6h-0.1c-0.5-1.9-0.8-3.2-1.2-4.7l-3.2-9h-5.5l-1.3 18.4h3.5l0.7-10.8c0.1-1.7 0.1-3.5 0.1-5.1h0.2c0.4 1.6 0.9 3.8 1.3 5.2l3.3 10.5h3.8l3.3-10.2c0.5-1.7 1.1-3.9 1.6-5.5h0.2c0.1 2 0.1 3.7 0.1 5.1l0.7 10.8h3.7l-1.4-18.4z"/>
		<polygon class="st0" points="1129.3 400.3 1135.2 400.3 1135.2 415.6 1138.9 415.6 1138.9 400.3 1144.8 400.3 1144.8 397.2 1129.3 397.2"/>
		<path class="st0" d="m997.5 122c-35.1 0-62.1 14.7-79.8 38.8v-139.9c0-2.7-2.2-4.8-4.8-4.8h-66.5c-2.7 0-4.8 2.2-4.8 4.8v390.7c0 2.7 2.2 4.8 4.8 4.8h66.5c2.7 0 4.8-2.2 4.8-4.8v-167.1c0-37.8 27.1-58.9 59.7-58.9 32.7 0 58.3 20.1 58.3 69.4l0.1 156.6c0 2.7 2.2 4.8 4.8 4.8h66.5c2.7 0 4.8-2.2 4.8-4.8v-161.3c-0.1-88.7-51-128.3-114.4-128.3z"/>
		<path class="st0" d="m509.2 343.3c-30.4 17.7-63 22.3-85.5 22.4-22.5 0-55.1-4.7-85.5-22.4-5-2.8-7.6 2.1-6.6 6.3 10.3 42.4 47.5 73.9 91.8 74.1h0.5c44.3-0.3 81.5-31.7 91.8-74.1 1.2-4.2-1.5-9.1-6.5-6.3z"/>
		<path class="st0" d="m631.1 207.8c0-12.7 17.8-21.9 45.2-21.9 31.2 0 60.5 11.1 78.8 26.6 3.4 2.9 8.6 2 10.8-1.9l22.3-44.3c1.7-3 0.9-6.8-1.8-8.9-27.5-20.7-64.6-35.5-110.6-35.5-75.5 0-117.8 42.2-117.8 90.4 0 112.5 170.7 73.6 170.7 123 0 13.5-15.5 25-48.2 25-32.5 0-70.9-12.8-93.2-30.6-3.3-2.6-8.2-1.8-10.5 1.9l-25.3 42.4c-1.8 2.9-1.2 6.6 1.4 8.8 30.5 25.6 76.5 40.7 124.1 40.7 79.7 0 124.3-39.3 124.3-92.2-0.1-113.3-170.2-78.3-170.2-123.5z"/>
		<path class="st1" d="m1293.6 271c0-81.3 57-150.1 151.3-150.1 95 0 151.9 68.8 151.9 150.1s-57 150.7-151.9 150.7c-94.3 0-151.3-69.4-151.3-150.7zm224.9 0c0-44.5-26.1-83.1-73.6-83.1-46.9 0-73 38.6-73 83.1 0 45.1 26.1 83.7 73 83.7 47.5-0.1 73.6-38.6 73.6-83.7z"/>
		<path class="st1" d="m1817.4 414.6v-36.2c-19.6 21.4-54 43.3-100.9 43.3-62.9 0-92.6-34.4-92.6-90.2v-203.6h75.4v173.9c0 39.8 20.8 52.8 52.8 52.8 29.1 0 52.2-16 65.3-32.6v-194.1h75.4v286.7h-75.4z"/>
		<path class="st1" d="m1970.4 342.8v-149h-47.5v-65.9h47.5v-78.3h75.4v78.3h58.2v65.9h-58.2v128.8c0 18.4 9.5 32 26.1 32 11.3 0 22-4.1 26.1-8.9l16 57.6c-11.3 10.1-31.4 18.4-62.9 18.4-52.8 0-80.7-27.3-80.7-78.9z"/>
		<path class="st1" d="m2334.8 414.6v-36.8c-22.6 28.5-53.4 43.9-88.4 43.9-71.8 0-127-54.6-127-150.7 0-93.2 54-150.1 127-150.1 33.8 0 65.9 14.2 88.4 43.9v-146h76v395.8h-76zm0-92.6v-101.5c-12.5-19-39.8-32.6-64.7-32.6-43.3 0-73 33.8-73 83.1 0 49.9 29.7 83.7 73 83.7 25-0.1 52.3-13.7 64.7-32.7z"/>
		<path class="st1" d="m2437.5 271c0-81.3 57-150.1 151.3-150.1 95 0 151.9 68.8 151.9 150.1s-57 150.7-151.9 150.7c-94.3 0-151.3-69.4-151.3-150.7zm224.9 0c0-44.5-26.1-83.1-73.6-83.1-46.9 0-73 38.6-73 83.1 0 45.1 26.1 83.7 73 83.7 47.5-0.1 73.6-38.6 73.6-83.7z"/>
		<path class="st1" d="m2760.9 271c0-81.3 57-150.1 151.3-150.1 95 0 151.9 68.8 151.9 150.1s-57 150.7-151.9 150.7c-94.3 0-151.3-69.4-151.3-150.7zm225 0c0-44.5-26.1-83.1-73.6-83.1-46.9 0-73 38.6-73 83.1 0 45.1 26.1 83.7 73 83.7 47.4-0.1 73.6-38.6 73.6-83.7z"/>
		<path class="st1" d="m3090.9 414.6v-286.7h75.4v38.6c20.8-24.9 55.8-45.7 91.4-45.7v73.6c-5.3-1.2-11.9-1.8-20.8-1.8-24.9 0-58.2 14.2-70.6 32.6v189.3h-75.4v0.1z"/>
		<path class="st1" d="m3265.3 377.2l32.6-54.6c21.4 20.2 63.5 39.8 99.1 39.8 32.6 0 48.1-12.5 48.1-30.3 0-46.9-169.7-8.3-169.7-121.1 0-48.1 41.5-90.2 117.5-90.2 48.1 0 86.6 16.6 115.1 39.2l-30.3 53.4c-17.2-17.8-49.9-33.2-84.9-33.2-27.3 0-45.1 11.9-45.1 27.9 0 42.1 170.3 6.5 170.3 122.3 0 52.8-45.1 91.4-124.6 91.4-49.7-0.1-97.8-16.7-128.1-44.6z"/>
</svg>
