<?xml version="1.0" encoding="UTF-8"?>
<svg enable-background="new 0 0 1061 320" shape-rendering="auto" version="1.1" viewBox="0 0 1061 320" xml:space="preserve" xmlns="http://www.w3.org/2000/svg">
<style type="text/css">
	.st0{fill:#FFFFFF;}
</style>
<path class="st0" d="m0 111.2"/>
<path class="st0" d="m620.6 61.2c-49.1 0-83.5 37.8-83.5 84.6 0 51.8 37.1 84.9 86.2 84.9 24 0 48.1-6.8 64.5-20.6 1.2-1 1.4-2.7 0.6-4l-15.4-22.5c-1-1.4-3-1.8-4.3-0.6-10.6 8.7-26.8 13.9-40.7 13.9-27.4 0-43.8-17-46.5-37.4h117c1.7 0 3-1.3 3-3v-6.4c0-52.8-32.8-88.9-80.9-88.9zm-39.8 69.5c2-16 13.4-35.8 39.8-35.8 28.1 0 38.8 20.4 39.8 35.8h-79.6z"/>
<path class="st0" d="m797.7 61.2c31.5 0 51.1 13 62.2 27.2 0.9 1.2 0.8 3-0.3 4l-23.3 21.6c-1.3 1.2-3.3 1-4.4-0.4-7.7-9.4-18.6-14.8-32.1-14.8-25.7 0-43.8 18.7-43.8 46.8s18.1 47.1 43.8 47.1c13.5 0 24.5-5.6 32.1-14.8 1.1-1.3 3.1-1.5 4.4-0.3l23.4 21.7c1.1 1.1 1.3 2.8 0.3 4-10.9 14-30.3 26.9-61.1 27.2-47.1 0.5-86.4-37.1-86.7-84.2-0.4-49.7 35.5-85.1 85.5-85.1z"/>
<path class="st0" d="m118.1 0c-67.2 0-116.3 48.1-116.3 115.3s49.1 115.3 116.3 115.3c67.5 0 116.6-48.1 116.6-115.3s-49.1-115.3-116.6-115.3zm0 188.5c-41.1 0-67.5-31.8-67.5-73.2 0-41.8 26.4-73.2 67.5-73.2s67.9 31.4 67.9 73.2c0 41.4-26.8 73.2-67.9 73.2z"/>
<path class="st0" d="M451.7,45.5h-62.2c-1.7,0-3-1.3-3-3V6.7c0-1.7,1.3-3,3-3h171.8c1.7,0,3,1.3,3,3v35.8c0,1.7-1.3,3-3,3h-61.8  v178.1c0,1.7-1.3,3-3,3h-41.8c-1.7,0-3-1.3-3-3V45.5z"/>
<path class="st0" d="m963.7 62.6c-19.6 0-34.6 8.2-44.5 21.6v-78c0-1.5-1.2-2.7-2.7-2.7h-37c-1.5 0-2.7 1.2-2.7 2.7v217.7c0 1.5 1.2 2.7 2.7 2.7h37c1.5 0 2.7-1.2 2.7-2.7v-93.1c0-21.1 15.1-32.8 33.3-32.8s32.5 11.2 32.5 38.7v87.2c0 1.5 1.2 2.7 2.7 2.7h37c1.5 0 2.7-1.2 2.7-2.7v-89.8c0-49.4-28.3-71.5-63.7-71.5z"/>
<path class="st0" d="m347.5 62.6c-19.6 0-34.6 8.2-44.5 21.6v-16.4c0-1.5-1.2-2.7-2.7-2.7h-37c-1.5 0-2.7 1.2-2.7 2.7v156.1c0 1.5 1.2 2.7 2.7 2.7h37c1.5 0 2.7-1.2 2.7-2.7v-93.1c0-21.1 15.1-32.8 33.3-32.8s32.5 11.2 32.5 38.7v87.2c0 1.5 1.2 2.7 2.7 2.7h37c1.5 0 2.7-1.2 2.7-2.7v-89.8c0-49.4-28.3-71.5-63.7-71.5z"/>
<polygon class="st0" points="1045.8 214.7 1045.8 216.6 1042 216.6 1042 226.6 1039.6 226.6 1039.6 216.6 1035.8 216.6 1035.8 214.7"/>
<path class="st0" d="m1058.7 226.6l-0.4-7c0-0.9 0-2.1-0.1-3.3h-0.1c-0.3 1-0.7 2.5-1 3.5l-2.1 6.6h-2.4l-2.2-6.8c-0.2-0.9-0.6-2.3-0.8-3.4h-0.1c0 1.1 0 2.2-0.1 3.3l-0.4 7h-2.3l0.9-11.9h3.6l2.1 5.8c0.3 0.9 0.5 1.8 0.8 3 0.3-1.1 0.6-2.1 0.8-3l2.1-5.9h3.4l0.9 11.9-2.6 0.2z"/>
</svg>
