<?xml version="1.0" encoding="UTF-8"?>
<svg width="104px" height="35px" viewBox="0 0 104 35" version="1.1" xmlns="http://www.w3.org/2000/svg" xmlns:xlink="http://www.w3.org/1999/xlink">
    <!-- Generator: Sketch 59.1 (86144) - https://sketch.com -->
    <title>GoogleNest_Logo</title>
    <desc>Created with Sketch.</desc>
    <g id="Ontech_DCO_MidFunnel_Banners" stroke="none" stroke-width="1" fill="none" fill-rule="evenodd">
        <g id="OnTech_Lifestyle_300x600_v3" transform="translate(-180.000000, -33.000000)" fill-rule="nonzero">
            <g id="GoogleNest_Logo" transform="translate(180.000000, 33.000000)">
                <g id="GooglePay_Logo_Primary_RGB_436x173px">
                    <path d="M35.347993,17.9186574 C35.3494807,16.7321222 35.2455974,15.5476481 35.0374533,14.3782631 L18.0346821,14.3782631 L18.0346821,21.0842149 L27.7730881,21.0842149 C27.3704082,23.2484795 26.0696136,25.1599068 24.1722067,26.3754601 L24.1722067,30.7284041 L29.9841997,30.7284041 C33.387258,27.6982715 35.347993,23.2171575 35.347993,17.9186574 Z" id="Path" fill="#4285F4"></path>
                    <path d="M18.0069876,34.9029082 C22.8647256,34.9029082 26.9549261,33.3653334 29.9375723,30.7143425 L24.1347879,26.3763573 C22.5197087,27.4319337 20.4396068,28.0344316 18.0069876,28.0344316 C13.3117575,28.0344316 9.32656219,24.9833821 7.90149234,20.8719361 L1.92369942,20.8719361 L1.92369942,25.3424708 C4.97923388,31.2034673 11.2022094,34.9026092 18.0069876,34.9029082 Z" id="Path" fill="#34A853"></path>
                    <path d="M7.93526012,20.8206102 C7.1779934,18.6723473 7.1779934,16.3459349 7.93526012,14.197672 L7.93526012,9.73992509 L1.92665384,9.73992509 C-0.642217946,14.6281339 -0.642217946,20.3901483 1.92665384,25.2783571 L7.93526012,20.8206102 Z" id="Path" fill="#FBBC04"></path>
                    <path d="M18.0114053,6.98443166 C20.579205,6.94400736 23.0603812,7.87889074 24.9186405,9.5870116 L24.9186405,9.5870116 L30.0578035,4.63488032 C26.799039,1.68547241 22.4818999,0.0661980701 18.0114053,0.116512352 C11.2047579,0.116811281 4.98007317,3.81565318 1.92369942,9.67617409 L7.90313436,14.1463461 C9.32859562,10.0352338 13.3148855,6.98443166 18.0114053,6.98443166 Z" id="Path" fill="#EA4335"></path>
                    <polygon id="N" fill="#80868B" points="55.5118588 26.2066091 55.5118588 15.0825993 55.4113455 11.7381258 55.5118588 11.7381258 64.9601085 26.2066091 67.171401 26.2066091 67.171401 8.85412324 65.0354935 8.85412324 65.0354935 19.3237795 65.1360068 22.6682531 65.0354935 22.6682531 56.0144253 8.85412324 53.4010796 8.85412324 53.4010796 26.2066091"></polygon>
                    <path d="M76.6709293,26.5943742 C78.0111066,26.5943742 79.1544457,26.3035504 80.1009458,25.7219028 C81.0474458,25.1402552 81.7971078,24.3485683 82.3499308,23.3468419 L82.3499308,23.3468419 L80.5406908,22.4986058 C79.6528239,23.9850385 78.3880315,24.7282548 76.7463144,24.7282548 C76.0427213,24.7282548 75.3684446,24.5666861 74.7234843,24.2435485 C74.0785239,23.920411 73.5466411,23.4357047 73.1278357,22.7894296 C72.7090303,22.1431545 72.4744993,21.3514676 72.4242426,20.4143687 L72.4242426,20.4143687 L82.5509573,20.4143687 C82.6012137,20.236643 82.6263423,20.0266036 82.6263423,19.7842505 C82.6263423,18.5563278 82.379247,17.4657387 81.8850563,16.5124829 C81.3908664,15.5592271 80.683085,14.8119716 79.7617135,14.2707162 C78.8403413,13.7294608 77.7514472,13.4588331 76.4950311,13.4588331 C75.2553671,13.4588331 74.1664731,13.7577354 73.228349,14.3555398 C72.2902249,14.9533443 71.5656916,15.7531097 71.054749,16.754836 C70.5438064,17.7565624 70.2883352,18.85523 70.2883352,20.0508389 C70.2883352,21.2949185 70.5605586,22.4137822 71.1050056,23.4074302 C71.6494526,24.4010781 72.4074904,25.1806474 73.379119,25.7461381 C74.3507475,26.3116288 75.4480176,26.5943742 76.6709293,26.5943742 Z M80.364793,18.7178966 L72.5498843,18.7178966 C72.7676631,17.7000133 73.2241609,16.8800518 73.9193779,16.2580121 C74.6145948,15.6359723 75.4647698,15.3249525 76.4699028,15.3249525 C77.341018,15.3249525 78.0655514,15.5026781 78.6435028,15.8581294 C79.221454,16.2135807 79.644448,16.6498163 79.9124828,17.1668364 C80.1805184,17.6838564 80.3312884,18.2008766 80.364793,18.7178966 L80.364793,18.7178966 Z" id="e" fill="#80868B"></path>
                    <path d="M90.1565435,26.5943742 C91.0946676,26.5943742 91.9490299,26.4408838 92.7196321,26.1339032 C93.4902343,25.8269225 94.1016897,25.3866476 94.5539999,24.8130784 C95.0063101,24.2395093 95.2324644,23.5730382 95.2324644,22.8136649 C95.2324644,21.9411936 94.9141724,21.2020164 94.2775884,20.5961335 C93.6410044,19.9902507 92.6945043,19.5338189 91.4380874,19.2268383 L91.4380874,19.2268383 L89.5785918,18.7663673 C88.8414942,18.5886416 88.2886712,18.3584061 87.9201227,18.0756607 C87.5515735,17.7929154 87.3672989,17.4253465 87.3672989,16.9729539 C87.3672989,16.4882475 87.6311469,16.0883649 88.1588413,15.7733058 C88.6865365,15.4582467 89.3021803,15.3007171 90.0057734,15.3007171 C91.463216,15.3007171 92.4767252,15.8500509 93.0463001,16.9487186 L93.0463001,16.9487186 L94.9057964,16.1247179 C94.537248,15.2845602 93.9132275,14.6302067 93.0337365,14.1616573 C92.1542448,13.6931079 91.1532999,13.4588331 90.030902,13.4588331 C89.1765388,13.4588331 88.3808081,13.604245 87.6437112,13.8950688 C86.9066136,14.1858926 86.3160976,14.6019322 85.8721642,15.1431876 C85.4282299,15.684443 85.2062632,16.3105219 85.2062632,17.0214245 C85.2062632,17.9423665 85.5329319,18.6936613 86.1862678,19.2753089 C86.8396045,19.8569565 87.677215,20.2689568 88.6991001,20.5113099 L88.6991001,20.5113099 L90.2570563,20.899075 C91.228685,21.1252713 91.940654,21.395899 92.3929642,21.7109581 C92.8452736,22.0260172 93.0714287,22.4420567 93.0714287,22.9590768 C93.0714287,23.5407244 92.7866412,23.9890777 92.2170655,24.3041368 C91.6474906,24.6191959 90.9606494,24.7767255 90.1565435,24.7767255 C89.4026932,24.7767255 88.7116644,24.5747645 88.0834563,24.1708426 C87.4552482,23.7669207 86.9819986,23.1933515 86.6637066,22.4501352 L86.6637066,22.4501352 L84.7539538,23.274136 C85.1392549,24.2435485 85.7925908,25.0392747 86.713963,25.6613145 C87.6353345,26.2833542 88.7828618,26.5943742 90.1565435,26.5943742 Z" id="s" fill="#80868B"></path>
                    <path d="M102.232987,26.4004916 C102.63504,26.4004916 102.965896,26.3762563 103.225556,26.3277857 C103.485215,26.2793151 103.740686,26.1985306 103.99197,26.0854325 L103.99197,26.0854325 L103.99197,24.0739013 C103.53966,24.3485683 103.070598,24.4859017 102.584784,24.4859017 C101.981704,24.4859017 101.521018,24.3081761 101.202726,23.9527247 C100.934691,23.6295872 100.800672,23.1287241 100.800672,22.4501352 L100.800672,22.4501352 L100.800672,15.7127175 L103.916585,15.7127175 L103.916585,13.8465982 L100.800672,13.8465982 L100.800672,10.3567128 L98.6647653,10.3567128 L98.6647653,13.8465982 L96.4283446,13.8465982 L96.4283446,15.7127175 L98.6647653,15.7127175 L98.6647653,22.9590768 C98.6647653,23.5407244 98.7485263,24.0335092 98.9160482,24.437431 C99.083571,24.841353 99.3348539,25.1968043 99.6698978,25.5037849 C99.9714379,25.7784518 100.344175,25.9965697 100.788109,26.1581385 C101.232042,26.3197072 101.713669,26.4004916 102.232987,26.4004916 Z" id="t" fill="#80868B"></path>
                </g>
            </g>
        </g>
    </g>
</svg>