<?xml version="1.0" encoding="UTF-8"?>
<svg enable-background="new 0 0 556.2 200.4" version="1.1" viewBox="0 0 556.2 200.4" xml:space="preserve" xmlns="http://www.w3.org/2000/svg">
<style type="text/css">
	.st0{fill:#F01446;}
</style>
	<path class="st0" d="M201.4,42.8c11.8,0,21.4-9.6,21.4-21.4S213.2,0,201.4,0C189.9,0,180,9.6,180,21.4S189.9,42.8,201.4,42.8z"/>
		<path class="st0" d="m201.7 89.3h0.1c11.9-0.1 21.9-8.5 24.7-20 0.3-1.1-0.4-2.5-1.8-1.7-8.2 4.8-17 6-23 6s-14.8-1.3-23-6c-1.3-0.7-2.1 0.6-1.8 1.7 2.8 11.5 12.8 20 24.8 20z"/>
		<path class="st0" d="m201.6 141.4h0.2c16.7-0.1 30.6-11.9 34.5-27.9 0.4-1.6-0.6-3.4-2.5-2.4-11.4 6.7-23.7 8.4-32.1 8.4s-20.7-1.8-32.1-8.4c-1.9-1-2.9 0.8-2.5 2.4 3.9 16 17.9 27.8 34.5 27.9z"/>
		<path class="st0" d="m136.6 6.3h-31.6c-1.3 0-2.3 1-2.3 2.3v66.8c-10.6-11.6-24.9-18.6-40.9-18.6-34.1 0-61.8 32.1-61.8 71.8s27.7 71.8 61.8 71.8c16 0 30.2-7.1 40.8-18.6v12.9c0 1.3 1 2.3 2.3 2.3h31.6c1.3 0 2.3-1 2.3-2.3v-186.1c0.1-1.2-0.9-2.3-2.2-2.3zm-33.9 122.5c-0.1 22.9-15 41.3-33.2 41.3-18.4 0-33.2-18.7-33.2-41.6s14.9-41.6 33.2-41.6 33.1 18.5 33.2 41.3v0.6z"/>
		<path class="st0" d="m555.5 187.8h-2.5l-1.5 4.3c-0.2 0.6-0.4 1.4-0.6 2.2-0.2-0.9-0.4-1.5-0.6-2.2l-1.5-4.3h-2.6l-0.6 8.8h1.7l0.3-5.2c0-0.8 0.1-1.6 0.1-2.5h0.1c0.2 0.8 0.5 1.8 0.6 2.5l1.6 5h1.8l1.6-4.9c0.3-0.8 0.5-1.8 0.7-2.6h0.1c0 1 0 1.8 0.1 2.5l0.3 5.2h1.7l-0.8-8.8z"/>
		<polygon class="st0" points="537.6 189.3 540.4 189.3 540.4 196.6 542.2 196.6 542.2 189.3 545 189.3 545 187.8 537.6 187.8"/>
		<path class="st0" d="m474.8 56.8c-16.7 0-29.6 7-38 18.5v-66.7c0-1.3-1-2.3-2.3-2.3h-31.6c-1.3 0-2.3 1-2.3 2.3v186c0 1.3 1 2.3 2.3 2.3h31.6c1.3 0 2.3-1 2.3-2.3v-79.5c0-18 12.9-28 28.4-28s27.8 9.6 27.8 33v74.6c0 1.3 1 2.3 2.3 2.3h31.7c1.3 0 2.3-1 2.3-2.3v-76.8c0-42.2-24.2-61.1-54.5-61.1z"/>
		<path class="st0" d="m242.4 162.1c-14.5 8.4-30 10.6-40.7 10.6s-26.2-2.2-40.7-10.6c-2.4-1.3-3.6 1-3.1 3 4.9 20.2 22.6 35.2 43.7 35.3h0.2c21.1-0.1 38.8-15.1 43.7-35.3 0.6-2-0.7-4.3-3.1-3z"/>
		<path class="st0" d="m300.4 97.6c0-6 8.5-10.4 21.5-10.4 14.9 0 28.8 5.3 37.5 12.7 1.4 1.2 3.6 1 4.8-0.4 0.1-0.2 0.3-0.3 0.4-0.5l10.6-21.1c0.8-1.4 0.4-3.2-0.9-4.2-13.1-9.8-30.7-16.9-52.7-16.9-36 0-56 20.1-56 43 0 53.6 81.3 35 81.3 58.6 0 6.4-7.4 11.9-22.9 11.9s-33.8-6.1-44.4-14.5c-1.5-1.2-3.6-0.9-4.8 0.6-0.1 0.1-0.2 0.2-0.2 0.3l-12.1 20.1c-0.8 1.4-0.6 3.1 0.7 4.2 14.5 12.2 36.4 19.4 59.1 19.4 37.9 0 59.2-18.7 59.2-43.9-0.1-54-81.1-37.3-81.1-58.9z"/>
</svg>
