<?xml version="1.0" encoding="UTF-8"?>
<svg width="79px" height="27px" viewBox="0 0 79 27" version="1.1" xmlns="http://www.w3.org/2000/svg" xmlns:xlink="http://www.w3.org/1999/xlink">
    <title>Logos-/-External-Logos-/-Partners-/-Google-/-Google-Nest-Copy</title>
    <g id="Whole-Home" stroke="none" stroke-width="1" fill="none" fill-rule="evenodd">
        <g id="WholeHome_DCO_300x250_Frame2" transform="translate(-15.000000, -60.000000)" fill-rule="nonzero">
            <g id="Logos-/-External-Logos-/-Partners-/-Google-/-Google-Nest-Copy" transform="translate(15.935294, 60.351351)">
                <g id="Color" transform="translate(0.064706, 0.648649)">
                    <path d="M24.6554088,12.7811742 C24.6564465,11.9293475 24.5839874,11.0790004 24.4388058,10.2394859 L12.5792845,10.2394859 L12.5792845,15.053763 L19.3718733,15.053763 C19.0910019,16.6075125 18.1836909,17.9797473 16.8602398,18.8524065 L16.8602398,21.9774332 L20.9141351,21.9774332 C23.287786,19.8020674 24.6554088,16.5850261 24.6554088,12.7811742 Z" id="Path" fill="#3284FF"></path>
                    <path d="M12.5599674,24.9743558 C15.948265,24.9743558 18.801201,23.8705139 20.8816122,21.9673381 L16.83414,18.8530506 C15.7076139,19.6108605 14.256732,20.0434004 12.5599674,20.0434004 C9.28502001,20.0434004 6.50532561,17.8530183 5.511332,14.9013657 L1.34179034,14.9013657 L1.34179034,18.1108121 C3.47304151,22.3184862 7.81359922,24.9741412 12.5599674,24.9743558 Z" id="Path" fill="#26B14C"></path>
                    <path d="M5.53488518,14.8645182 C5.00668771,13.3222565 5.00668771,11.6520994 5.53488518,10.1098376 L5.53488518,6.90957178 L1.34385107,6.90957178 C-0.447950356,10.4188709 -0.447950356,14.5554849 1.34385107,18.0647841 L5.53488518,14.8645182 Z" id="Path" fill="#FFBB00"></path>
                    <path d="M12.5630488,4.93137253 C14.3541025,4.90235147 16.0847357,5.5735146 17.3808813,6.79979348 L17.3808813,6.79979348 L20.9654742,3.24460362 C18.692469,1.12719103 15.681242,-0.0353039403 12.5630488,0.000817239367 C7.81537689,0.00103184432 3.47362692,2.65647138 1.34179034,6.8638042 L5.51247728,10.0729902 C6.50674392,7.12157709 9.2872019,4.93137253 12.5630488,4.93137253 Z" id="Path" fill="#FF3424"></path>
                    <polygon id="N" fill="#212123" points="36.2265226 20.9088273 36.2265226 10.7968461 36.137878 7.75664259 36.2265226 7.75664259 44.5591066 20.9088273 46.5092858 20.9088273 46.5092858 5.13501782 44.6255899 5.13501782 44.6255899 14.6521766 44.7142344 17.6923802 44.6255899 17.6923802 36.6697452 5.13501782 34.3649879 5.13501782 34.3649879 20.9088273"></polygon>
                    <path d="M53.9960918,21.3453234 C55.1586393,21.3453234 56.1504376,21.0817493 56.9714867,20.5546011 C57.7925359,20.0274531 58.4428359,19.3099458 58.9223867,18.4020797 L58.9223867,18.4020797 L57.3529476,17.633322 C56.58276,18.9804783 55.4856058,19.6540565 54.0614851,19.6540565 C53.4511477,19.6540565 52.866241,19.5076264 52.3067651,19.2147664 C51.7472891,18.9219063 51.285903,18.4826162 50.922607,17.896896 C50.5593109,17.3111759 50.355865,16.5936687 50.3122695,15.7443745 L50.3122695,15.7443745 L59.0967689,15.7443745 C59.1403644,15.5833015 59.1621622,15.3929424 59.1621622,15.1732973 C59.1621622,14.0604292 58.9478175,13.0720263 58.5191281,12.2080892 C58.0904387,11.344152 57.4764683,10.6669131 56.6772169,10.1763725 C55.8779655,9.68583182 54.9333957,9.44056148 53.8435074,9.44056148 C52.768151,9.44056148 51.8235812,9.71145705 51.009798,10.2532482 C50.1960147,10.7950393 49.5675125,11.519868 49.1242913,12.4277342 C48.6810701,13.3356004 48.4594595,14.3313247 48.4594595,15.414907 C48.4594595,16.5424182 48.695602,17.5564462 49.1678868,18.4569909 C49.6401718,19.3575356 50.2977377,20.0640606 51.1405846,20.5765657 C51.9834315,21.0890708 52.9352673,21.3453234 53.9960918,21.3453234 Z M57.6756757,14.2024662 L50.2432432,14.2024662 C50.4503635,13.2203234 50.8845196,12.4291527 51.5457113,11.8289544 C52.206903,11.2287559 53.0154688,10.9286567 53.9714087,10.9286567 C54.7998899,10.9286567 55.4889633,11.100142 56.0386287,11.4431126 C56.5882941,11.786083 56.9905855,12.2070014 57.2455028,12.7058676 C57.50042,13.2047338 57.6438111,13.7036 57.6756757,14.2024662 L57.6756757,14.2024662 Z" id="e" fill="#212123"></path>
                    <path d="M65.0975186,21.2064464 C65.9338719,21.2064464 66.6955508,21.0673378 67.3825553,20.7891207 C68.0695598,20.5109037 68.6146829,20.1118819 69.0179247,19.5920552 C69.4211665,19.0722286 69.6227873,18.4682047 69.6227873,17.7799835 C69.6227873,16.9892613 69.3390247,16.3193439 68.7714992,15.7702313 C68.2039737,15.2211186 67.360153,14.8074539 66.2400369,14.5292368 L66.2400369,14.5292368 L64.5822653,14.1119111 C63.9251305,13.9508382 63.4322794,13.7421753 63.103712,13.4859227 C62.7751447,13.2296702 62.610861,12.8965418 62.610861,12.4865377 C62.610861,12.0472476 62.8460853,11.6848333 63.3165341,11.3992948 C63.7869828,11.1137562 64.3358398,10.970987 64.9631047,10.970987 C66.2624393,10.970987 67.1659996,11.468849 67.6737854,12.4645733 L67.6737854,12.4645733 L69.3315572,11.7177801 C69.0029898,10.9563439 68.4466656,10.3633023 67.6625843,9.93865516 C66.8785031,9.51400812 65.986144,9.30168449 64.985507,9.30168449 C64.2238281,9.30168449 63.5144212,9.43347153 62.8572865,9.69704562 C62.2001518,9.9606197 61.6736973,10.337677 61.277923,10.8282176 C60.8821487,11.3187582 60.6842614,11.8861747 60.6842614,12.5304668 C60.6842614,13.365118 60.9754917,14.0460176 61.5579519,14.5731658 C62.1404122,15.1003139 62.8871563,15.4737104 63.798184,15.6933555 L63.798184,15.6933555 L65.1871279,16.0447876 C66.0533509,16.2497896 66.6880833,16.49506 67.0913251,16.7805985 C67.4945669,17.0661371 67.6961877,17.4431945 67.6961877,17.9117705 C67.6961877,18.4389187 67.4422948,18.845262 66.9345089,19.1308006 C66.426723,19.4163391 65.8143929,19.5591085 65.0975186,19.5591085 C64.425449,19.5591085 63.8093851,19.376071 63.2493272,19.0099959 C62.6892692,18.6439207 62.2673588,18.1240942 61.9835961,17.450516 L61.9835961,17.450516 L60.2810197,18.1973092 C60.624522,19.0758894 61.2069823,19.7970572 62.0284007,20.3608129 C62.8498191,20.9245686 63.8728584,21.2064464 65.0975186,21.2064464 Z" id="s" fill="#212123"></path>
                    <path d="M75.3286809,21.2064464 C75.6835232,21.2064464 75.9755289,21.1844173 76.204698,21.1403588 C76.433867,21.0963004 76.6593398,21.0228697 76.8811161,20.9200668 L76.8811161,20.9200668 L76.8811161,19.0916428 C76.4819186,19.3413071 76.0679358,19.4661393 75.639168,19.4661393 C75.1069045,19.4661393 74.7003143,19.3045917 74.4193974,18.9814968 C74.1828359,18.687774 74.0645551,18.2325038 74.0645551,17.6156861 L74.0645551,17.6156861 L74.0645551,11.4915673 L76.8145832,11.4915673 L76.8145832,9.79531853 L74.0645551,9.79531853 L74.0645551,6.62311306 L72.1794552,6.62311306 L72.1794552,9.79531853 L70.2056447,9.79531853 L70.2056447,11.4915673 L72.1794552,11.4915673 L72.1794552,18.0782994 C72.1794552,18.6070003 72.2533806,19.0549274 72.4012316,19.4220809 C72.5490826,19.7892343 72.7708591,20.1123293 73.0665611,20.3913658 C73.3326928,20.6410302 73.6616611,20.8392931 74.0534663,20.9861544 C74.4452714,21.1330157 74.8703429,21.2064464 75.3286809,21.2064464 Z" id="t" fill="#212123"></path>
                </g>
            </g>
        </g>
    </g>
</svg>